<?xml version="1.0" encoding="UTF-8" standalone="no"?>
<!DOCTYPE svg PUBLIC "-//W3C//DTD SVG 1.1//EN"
 "http://www.w3.org/Graphics/SVG/1.1/DTD/svg11.dtd">
<!-- Generated by graphviz version 2.43.0 (0)
 -->
<!-- Title: %3 Pages: 1 -->
<svg width="636pt" height="583pt"
 viewBox="0.00 0.00 635.50 583.00" xmlns="http://www.w3.org/2000/svg" xmlns:xlink="http://www.w3.org/1999/xlink">
<g id="graph0" class="graph" transform="scale(1 1) rotate(0) translate(4 579)">
<title>%3</title>
<polygon fill="white" stroke="transparent" points="-4,4 -4,-579 631.5,-579 631.5,4 -4,4"/>
<!-- FilePath -->
<g id="node1" class="node">
<title>FilePath</title>
<polygon fill="none" stroke="black" points="434,-511 358,-511 358,-488 434,-488 434,-511"/>
<text text-anchor="middle" x="396" y="-495.8" font-family="Times,serif" font-size="14.00">FilePath</text>
</g>
<!-- CrystalRotation -->
<g id="node2" class="node">
<title>CrystalRotation</title>
<polygon fill="none" stroke="black" points="627.5,-378 472.5,-378 472.5,-345 627.5,-345 627.5,-378"/>
<text text-anchor="start" x="493.5" y="-363.8" font-family="Times,serif" font-size="14.00">CrystalRotation</text>
<text text-anchor="start" x="480.5" y="-352.2" font-family="Times,serif" font-size="11.00">via:</text>
<text text-anchor="start" x="501.5" y="-352.2" font-family="Times,serif" font-style="italic" font-size="11.00">load_crystal_rotation</text>
</g>
<!-- FilePath&#45;&gt;CrystalRotation -->
<g id="edge1" class="edge">
<title>FilePath&#45;&gt;CrystalRotation</title>
<path fill="none" stroke="black" d="M434.3,-497.41C470.44,-494.1 522.87,-482.92 549,-447 561.19,-430.24 560.23,-406.24 556.92,-388.1"/>
<polygon fill="black" stroke="black" points="560.32,-387.23 554.79,-378.2 553.47,-388.71 560.32,-387.23"/>
</g>
<!-- McStasInstrument -->
<g id="node3" class="node">
<title>McStasInstrument</title>
<polygon fill="none" stroke="black" points="546,-447 354,-447 354,-414 546,-414 546,-447"/>
<text text-anchor="start" x="383" y="-432.8" font-family="Times,serif" font-size="14.00">McStasInstrument</text>
<text text-anchor="start" x="362" y="-421.2" font-family="Times,serif" font-size="11.00">via:</text>
<text text-anchor="start" x="383" y="-421.2" font-family="Times,serif" font-style="italic" font-size="11.00">read_mcstas_geometry_xml</text>
</g>
<!-- FilePath&#45;&gt;McStasInstrument -->
<g id="edge8" class="edge">
<title>FilePath&#45;&gt;McStasInstrument</title>
<path fill="none" stroke="black" d="M404.68,-487.74C411.71,-479.01 421.88,-466.39 430.81,-455.31"/>
<polygon fill="black" stroke="black" points="433.77,-457.22 437.32,-447.23 428.32,-452.82 433.77,-457.22"/>
</g>
<!-- DetectorBankPrefix(panel) -->
<g id="node5" class="node">
<title>DetectorBankPrefix(panel)</title>
<polygon fill="none" stroke="black" points="332,-447 129.67,-447 126,-443.33 126,-414 328.33,-414 332,-417.67 332,-447"/>
<polyline fill="none" stroke="black" points="328.33,-443.33 126,-443.33 "/>
<polyline fill="none" stroke="black" points="328.33,-443.33 328.33,-414 "/>
<polyline fill="none" stroke="black" points="328.33,-443.33 332,-447 "/>
<text text-anchor="start" x="134" y="-432.8" font-family="Times,serif" font-size="14.00">DetectorBankPrefix(panel)</text>
<text text-anchor="start" x="139" y="-421.2" font-family="Times,serif" font-size="11.00">via:</text>
<text text-anchor="start" x="160" y="-421.2" font-family="Times,serif" font-style="italic" font-size="11.00">load_event_data_bank_name</text>
</g>
<!-- FilePath&#45;&gt;DetectorBankPrefix(panel) -->
<g id="edge4" class="edge">
<title>FilePath&#45;&gt;DetectorBankPrefix(panel)</title>
<path fill="none" stroke="black" d="M369.54,-487.88C344.81,-477.96 307.29,-462.91 277.24,-450.85"/>
<polygon fill="black" stroke="black" points="278.35,-447.53 267.77,-447.05 275.75,-454.03 278.35,-447.53"/>
</g>
<!-- RawEventData(panel) -->
<g id="node7" class="node">
<title>RawEventData(panel)</title>
<polygon fill="none" stroke="black" points="434.5,-378 265.17,-378 261.5,-374.33 261.5,-345 430.83,-345 434.5,-348.67 434.5,-378"/>
<polyline fill="none" stroke="black" points="430.83,-374.33 261.5,-374.33 "/>
<polyline fill="none" stroke="black" points="430.83,-374.33 430.83,-345 "/>
<polyline fill="none" stroke="black" points="430.83,-374.33 434.5,-378 "/>
<text text-anchor="start" x="269.5" y="-363.8" font-family="Times,serif" font-size="14.00">RawEventData(panel)</text>
<text text-anchor="start" x="278.5" y="-352.2" font-family="Times,serif" font-size="11.00">via:</text>
<text text-anchor="start" x="299.5" y="-352.2" font-family="Times,serif" font-style="italic" font-size="11.00">load_raw_event_data</text>
</g>
<!-- FilePath&#45;&gt;RawEventData(panel) -->
<g id="edge20" class="edge">
<title>FilePath&#45;&gt;RawEventData(panel)</title>
<path fill="none" stroke="black" d="M382.61,-487.84C371.88,-478.4 357.55,-463.56 351,-447 343.64,-428.41 343.27,-405.69 344.52,-388.49"/>
<polygon fill="black" stroke="black" points="348.05,-388.38 345.53,-378.09 341.08,-387.7 348.05,-388.38"/>
</g>
<!-- NMXData(panel) -->
<g id="node10" class="node">
<title>NMXData(panel)</title>
<polygon fill="none" stroke="black" points="422,-171 289.67,-171 286,-167.33 286,-138 418.33,-138 422,-141.67 422,-171"/>
<polyline fill="none" stroke="black" points="418.33,-167.33 286,-167.33 "/>
<polyline fill="none" stroke="black" points="418.33,-167.33 418.33,-138 "/>
<polyline fill="none" stroke="black" points="418.33,-167.33 422,-171 "/>
<text text-anchor="start" x="294" y="-156.8" font-family="Times,serif" font-size="14.00">NMXData(panel)</text>
<text text-anchor="start" x="308.5" y="-145.2" font-family="Times,serif" font-size="11.00">via:</text>
<text text-anchor="start" x="329.5" y="-145.2" font-family="Times,serif" font-style="italic" font-size="11.00">load_mcstas</text>
</g>
<!-- CrystalRotation&#45;&gt;NMXData(panel) -->
<g id="edge11" class="edge">
<title>CrystalRotation&#45;&gt;NMXData(panel)</title>
<path fill="none" stroke="black" d="M543.15,-344.71C529.45,-314.62 496.07,-248.4 451,-207 437.27,-194.38 419.87,-183.89 403.61,-175.74"/>
<polygon fill="black" stroke="black" points="404.74,-172.4 394.21,-171.21 401.7,-178.7 404.74,-172.4"/>
</g>
<!-- McStasInstrument&#45;&gt;CrystalRotation -->
<g id="edge2" class="edge">
<title>McStasInstrument&#45;&gt;CrystalRotation</title>
<path fill="none" stroke="black" d="M473.19,-413.96C486.48,-405.06 503.34,-393.76 517.88,-384.02"/>
<polygon fill="black" stroke="black" points="520.23,-386.66 526.59,-378.19 516.33,-380.85 520.23,-386.66"/>
</g>
<!-- McStasInstrument&#45;&gt;RawEventData(panel) -->
<g id="edge23" class="edge">
<title>McStasInstrument&#45;&gt;RawEventData(panel)</title>
<path fill="none" stroke="black" d="M426.34,-413.96C412.67,-404.98 395.27,-393.55 380.34,-383.74"/>
<polygon fill="black" stroke="black" points="382.16,-380.75 371.88,-378.19 378.32,-386.6 382.16,-380.75"/>
</g>
<!-- McStasInstrument&#45;&gt;NMXData(panel) -->
<g id="edge13" class="edge">
<title>McStasInstrument&#45;&gt;NMXData(panel)</title>
<path fill="none" stroke="black" d="M450.99,-413.91C453.55,-369.26 458.79,-241.89 438,-207 430.25,-193.99 417.8,-183.81 404.84,-176.07"/>
<polygon fill="black" stroke="black" points="406.29,-172.87 395.84,-171.1 402.9,-179 406.29,-172.87"/>
</g>
<!-- NMXReducedData(panel) -->
<g id="node12" class="node">
<title>NMXReducedData(panel)</title>
<polygon fill="none" stroke="black" points="519.5,-102 326.17,-102 322.5,-98.33 322.5,-69 515.83,-69 519.5,-72.67 519.5,-102"/>
<polyline fill="none" stroke="black" points="515.83,-98.33 322.5,-98.33 "/>
<polyline fill="none" stroke="black" points="515.83,-98.33 515.83,-69 "/>
<polyline fill="none" stroke="black" points="515.83,-98.33 519.5,-102 "/>
<text text-anchor="start" x="330.5" y="-87.8" font-family="Times,serif" font-size="14.00">NMXReducedData(panel)</text>
<text text-anchor="start" x="357" y="-76.2" font-family="Times,serif" font-size="11.00">via:</text>
<text text-anchor="start" x="378" y="-76.2" font-family="Times,serif" font-style="italic" font-size="11.00">bin_time_of_arrival</text>
</g>
<!-- McStasInstrument&#45;&gt;NMXReducedData(panel) -->
<g id="edge17" class="edge">
<title>McStasInstrument&#45;&gt;NMXReducedData(panel)</title>
<path fill="none" stroke="black" d="M452.12,-413.62C455.32,-388.28 461,-337.09 461,-293.5 461,-293.5 461,-293.5 461,-222.5 461,-182.56 444.93,-138.61 433.16,-111.78"/>
<polygon fill="black" stroke="black" points="436.22,-110.05 428.9,-102.38 429.84,-112.94 436.22,-110.05"/>
</g>
<!-- DetectorName(panel) -->
<g id="node4" class="node">
<title>DetectorName(panel)</title>
<polygon fill="none" stroke="black" points="188,-516 3.67,-516 0,-512.33 0,-483 184.33,-483 188,-486.67 188,-516"/>
<polyline fill="none" stroke="black" points="184.33,-512.33 0,-512.33 "/>
<polyline fill="none" stroke="black" points="184.33,-512.33 184.33,-483 "/>
<polyline fill="none" stroke="black" points="184.33,-512.33 188,-516 "/>
<text text-anchor="start" x="17" y="-501.8" font-family="Times,serif" font-size="14.00">DetectorName(panel)</text>
<text text-anchor="start" x="8" y="-490.2" font-family="Times,serif" font-size="11.00">via:</text>
<text text-anchor="start" x="29" y="-490.2" font-family="Times,serif" font-style="italic" font-size="11.00">detector_name_from_index</text>
</g>
<!-- DetectorName(panel)&#45;&gt;DetectorBankPrefix(panel) -->
<g id="edge3" class="edge">
<title>DetectorName(panel)&#45;&gt;DetectorBankPrefix(panel)</title>
<path fill="none" stroke="black" d="M125.31,-482.96C144.09,-473.64 168.17,-461.69 188.4,-451.65"/>
<polygon fill="black" stroke="black" points="189.99,-454.77 197.39,-447.19 186.88,-448.5 189.99,-454.77"/>
</g>
<!-- DetectorName(panel)&#45;&gt;RawEventData(panel) -->
<g id="edge22" class="edge">
<title>DetectorName(panel)&#45;&gt;RawEventData(panel)</title>
<path fill="none" stroke="black" d="M94.71,-482.95C96.45,-463.87 102.32,-431.87 122,-414 132.06,-404.86 194.48,-391.02 251.17,-379.99"/>
<polygon fill="black" stroke="black" points="252.15,-383.36 261.31,-378.03 250.82,-376.49 252.15,-383.36"/>
</g>
<!-- DetectorName(panel)&#45;&gt;NMXData(panel) -->
<g id="edge12" class="edge">
<title>DetectorName(panel)&#45;&gt;NMXData(panel)</title>
<path fill="none" stroke="black" d="M90.72,-482.67C85.78,-457.39 77,-406.28 77,-362.5 77,-362.5 77,-362.5 77,-291.5 77,-202.4 193.91,-171.67 275.83,-161.07"/>
<polygon fill="black" stroke="black" points="276.38,-164.53 285.88,-159.85 275.53,-157.58 276.38,-164.53"/>
</g>
<!-- DetectorName(panel)&#45;&gt;NMXReducedData(panel) -->
<g id="edge16" class="edge">
<title>DetectorName(panel)&#45;&gt;NMXReducedData(panel)</title>
<path fill="none" stroke="black" d="M87.83,-482.87C78.53,-457.86 62,-407.13 62,-362.5 62,-362.5 62,-362.5 62,-222.5 62,-166.67 215.73,-125.67 321.99,-104"/>
<polygon fill="black" stroke="black" points="322.68,-107.43 331.8,-102.03 321.3,-100.57 322.68,-107.43"/>
</g>
<!-- DetectorBankPrefix(panel)&#45;&gt;RawEventData(panel) -->
<g id="edge21" class="edge">
<title>DetectorBankPrefix(panel)&#45;&gt;RawEventData(panel)</title>
<path fill="none" stroke="black" d="M256.6,-413.96C272.85,-404.81 293.62,-393.12 311.25,-383.19"/>
<polygon fill="black" stroke="black" points="313.14,-386.14 320.14,-378.19 309.71,-380.04 313.14,-386.14"/>
</g>
<!-- DetectorIndex(panel) -->
<g id="node6" class="node">
<title>DetectorIndex(panel)</title>
<polygon fill="none" stroke="black" points="178,-575 12.56,-575 10,-572.44 10,-552 175.44,-552 178,-554.56 178,-575"/>
<polyline fill="none" stroke="black" points="175.44,-572.44 10,-572.44 "/>
<polyline fill="none" stroke="black" points="175.44,-572.44 175.44,-552 "/>
<polyline fill="none" stroke="black" points="175.44,-572.44 178,-575 "/>
<text text-anchor="middle" x="94" y="-559.8" font-family="Times,serif" font-size="14.00">DetectorIndex(panel)</text>
</g>
<!-- DetectorIndex(panel)&#45;&gt;DetectorName(panel) -->
<g id="edge5" class="edge">
<title>DetectorIndex(panel)&#45;&gt;DetectorName(panel)</title>
<path fill="none" stroke="black" d="M94,-551.98C94,-544.93 94,-535.32 94,-526.31"/>
<polygon fill="black" stroke="black" points="97.5,-526.2 94,-516.2 90.5,-526.2 97.5,-526.2"/>
</g>
<!-- EventData(panel) -->
<g id="node8" class="node">
<title>EventData(panel)</title>
<polygon fill="none" stroke="black" points="375.5,-309 164.17,-309 160.5,-305.33 160.5,-276 371.83,-276 375.5,-279.67 375.5,-309"/>
<polyline fill="none" stroke="black" points="371.83,-305.33 160.5,-305.33 "/>
<polyline fill="none" stroke="black" points="371.83,-305.33 371.83,-276 "/>
<polyline fill="none" stroke="black" points="371.83,-305.33 375.5,-309 "/>
<text text-anchor="start" x="205" y="-294.8" font-family="Times,serif" font-size="14.00">EventData(panel)</text>
<text text-anchor="start" x="168.5" y="-283.2" font-family="Times,serif" font-size="11.00">via:</text>
<text text-anchor="start" x="189.5" y="-283.2" font-family="Times,serif" font-style="italic" font-size="11.00">event_weights_from_probability</text>
</g>
<!-- RawEventData(panel)&#45;&gt;EventData(panel) -->
<g id="edge6" class="edge">
<title>RawEventData(panel)&#45;&gt;EventData(panel)</title>
<path fill="none" stroke="black" d="M329.45,-344.96C319.12,-336.31 306.09,-325.4 294.68,-315.85"/>
<polygon fill="black" stroke="black" points="296.64,-312.92 286.73,-309.19 292.15,-318.29 296.64,-312.92"/>
</g>
<!-- EventData(panel)&#45;&gt;NMXData(panel) -->
<g id="edge9" class="edge">
<title>EventData(panel)&#45;&gt;NMXData(panel)</title>
<path fill="none" stroke="black" d="M246.82,-275.91C226.08,-258.7 199.79,-230.35 216,-207 229.97,-186.87 252.82,-174.6 275.93,-167.12"/>
<polygon fill="black" stroke="black" points="277.23,-170.38 285.83,-164.19 275.25,-163.67 277.23,-170.38"/>
</g>
<!-- ProtonCharge(panel) -->
<g id="node11" class="node">
<title>ProtonCharge(panel)</title>
<polygon fill="none" stroke="black" points="434.5,-240 223.17,-240 219.5,-236.33 219.5,-207 430.83,-207 434.5,-210.67 434.5,-240"/>
<polyline fill="none" stroke="black" points="430.83,-236.33 219.5,-236.33 "/>
<polyline fill="none" stroke="black" points="430.83,-236.33 430.83,-207 "/>
<polyline fill="none" stroke="black" points="430.83,-236.33 434.5,-240 "/>
<text text-anchor="start" x="252" y="-225.8" font-family="Times,serif" font-size="14.00">ProtonCharge(panel)</text>
<text text-anchor="start" x="227.5" y="-214.2" font-family="Times,serif" font-size="11.00">via:</text>
<text text-anchor="start" x="248.5" y="-214.2" font-family="Times,serif" font-style="italic" font-size="11.00">proton_charge_from_event_data</text>
</g>
<!-- EventData(panel)&#45;&gt;ProtonCharge(panel) -->
<g id="edge19" class="edge">
<title>EventData(panel)&#45;&gt;ProtonCharge(panel)</title>
<path fill="none" stroke="black" d="M281.68,-275.96C288.95,-267.71 298.04,-257.39 306.16,-248.17"/>
<polygon fill="black" stroke="black" points="309,-250.24 312.98,-240.42 303.74,-245.61 309,-250.24"/>
</g>
<!-- MaximumProbability -->
<g id="node9" class="node">
<title>MaximumProbability</title>
<polygon fill="none" stroke="black" points="254.5,-373 87.5,-373 87.5,-350 254.5,-350 254.5,-373"/>
<text text-anchor="middle" x="171" y="-357.8" font-family="Times,serif" font-size="14.00">MaximumProbability</text>
</g>
<!-- MaximumProbability&#45;&gt;EventData(panel) -->
<g id="edge7" class="edge">
<title>MaximumProbability&#45;&gt;EventData(panel)</title>
<path fill="none" stroke="black" d="M186.58,-349.74C200.08,-340.41 220.02,-326.64 236.79,-315.06"/>
<polygon fill="black" stroke="black" points="238.98,-317.8 245.22,-309.23 235,-312.04 238.98,-317.8"/>
</g>
<!-- NMXData(panel)&#45;&gt;NMXReducedData(panel) -->
<g id="edge15" class="edge">
<title>NMXData(panel)&#45;&gt;NMXReducedData(panel)</title>
<path fill="none" stroke="black" d="M369.54,-137.96C377.96,-129.54 388.53,-118.97 397.89,-109.61"/>
<polygon fill="black" stroke="black" points="400.48,-111.97 405.08,-102.42 395.53,-107.02 400.48,-111.97"/>
</g>
<!-- ProtonCharge(panel)&#45;&gt;NMXData(panel) -->
<g id="edge10" class="edge">
<title>ProtonCharge(panel)&#45;&gt;NMXData(panel)</title>
<path fill="none" stroke="black" d="M333.26,-206.96C336.39,-199.21 340.24,-189.63 343.78,-180.86"/>
<polygon fill="black" stroke="black" points="347.09,-182 347.58,-171.42 340.6,-179.39 347.09,-182"/>
</g>
<!-- NMXReducedData -->
<g id="node13" class="node">
<title>NMXReducedData</title>
<polygon fill="none" stroke="black" points="495,-33 347,-33 347,0 495,0 495,-33"/>
<text text-anchor="start" x="355" y="-18.8" font-family="Times,serif" font-size="14.00">NMXReducedData</text>
<text text-anchor="start" x="371" y="-7.2" font-family="Times,serif" font-size="11.00">via:</text>
<text text-anchor="start" x="392" y="-7.2" font-family="Times,serif" font-style="italic" font-size="11.00">merge_panels</text>
</g>
<!-- NMXReducedData(panel)&#45;&gt;NMXReducedData -->
<g id="edge14" class="edge">
<title>NMXReducedData(panel)&#45;&gt;NMXReducedData</title>
<path fill="none" stroke="black" d="M421,-68.96C421,-61.38 421,-52.05 421,-43.42"/>
<polygon fill="black" stroke="black" points="424.5,-43.42 421,-33.42 417.5,-43.42 424.5,-43.42"/>
</g>
<!-- TimeBinSteps -->
<g id="node14" class="node">
<title>TimeBinSteps</title>
<polygon fill="none" stroke="black" points="588,-166 472,-166 472,-143 588,-143 588,-166"/>
<text text-anchor="middle" x="530" y="-150.8" font-family="Times,serif" font-size="14.00">TimeBinSteps</text>
</g>
<!-- TimeBinSteps&#45;&gt;NMXReducedData(panel) -->
<g id="edge18" class="edge">
<title>TimeBinSteps&#45;&gt;NMXReducedData(panel)</title>
<path fill="none" stroke="black" d="M512.49,-142.74C497.11,-133.28 474.29,-119.26 455.29,-107.58"/>
<polygon fill="black" stroke="black" points="456.95,-104.49 446.6,-102.23 453.29,-110.45 456.95,-104.49"/>
</g>
</g>
</svg>
