<?xml version="1.0" encoding="UTF-8" standalone="no"?>
<!DOCTYPE svg PUBLIC "-//W3C//DTD SVG 1.1//EN"
 "http://www.w3.org/Graphics/SVG/1.1/DTD/svg11.dtd">
<!-- Generated by graphviz version 2.43.0 (0)
 -->
<!-- Title: %3 Pages: 1 -->
<svg width="720pt" height="332pt"
 viewBox="0.00 0.00 720.00 332.00" xmlns="http://www.w3.org/2000/svg" xmlns:xlink="http://www.w3.org/1999/xlink">
<g id="graph0" class="graph" transform="scale(1 1) rotate(0) translate(4 328)">
<title>%3</title>
<polygon fill="white" stroke="transparent" points="-4,4 -4,-328 716,-328 716,4 -4,4"/>
<!-- EventWeightsConverter -->
<g id="node1" class="node">
<title>EventWeightsConverter</title>
<polygon fill="none" stroke="black" points="188,-324 0,-324 0,-288 188,-288 188,-324"/>
<text text-anchor="middle" x="94" y="-302.3" font-family="Times,serif" font-size="14.00">EventWeightsConverter</text>
</g>
<!-- ess.nmx.mcstas_loader.load_mcstas_nexus_NMXData -->
<g id="node4" class="node">
<title>ess.nmx.mcstas_loader.load_mcstas_nexus_NMXData</title>
<ellipse fill="none" stroke="black" cx="342" cy="-234" rx="98.58" ry="18"/>
<text text-anchor="middle" x="342" y="-230.3" font-family="Times,serif" font-size="14.00">load_mcstas_nexus</text>
</g>
<!-- EventWeightsConverter&#45;&gt;ess.nmx.mcstas_loader.load_mcstas_nexus_NMXData -->
<g id="edge2" class="edge">
<title>EventWeightsConverter&#45;&gt;ess.nmx.mcstas_loader.load_mcstas_nexus_NMXData</title>
<path fill="none" stroke="black" d="M154.35,-287.97C192.65,-277.16 242.07,-263.21 280.57,-252.34"/>
<polygon fill="black" stroke="black" points="281.94,-255.59 290.62,-249.5 280.04,-248.85 281.94,-255.59"/>
</g>
<!-- InputFilepath -->
<g id="node2" class="node">
<title>InputFilepath</title>
<polygon fill="none" stroke="black" points="320,-324 206,-324 206,-288 320,-288 320,-324"/>
<text text-anchor="middle" x="263" y="-302.3" font-family="Times,serif" font-size="14.00">InputFilepath</text>
</g>
<!-- InputFilepath&#45;&gt;ess.nmx.mcstas_loader.load_mcstas_nexus_NMXData -->
<g id="edge1" class="edge">
<title>InputFilepath&#45;&gt;ess.nmx.mcstas_loader.load_mcstas_nexus_NMXData</title>
<path fill="none" stroke="black" d="M282.53,-287.7C292.46,-278.9 304.67,-268.08 315.44,-258.54"/>
<polygon fill="black" stroke="black" points="317.81,-261.11 322.97,-251.86 313.16,-255.88 317.81,-261.11"/>
</g>
<!-- MaximumProbability -->
<g id="node3" class="node">
<title>MaximumProbability</title>
<polygon fill="none" stroke="black" points="505.5,-324 338.5,-324 338.5,-288 505.5,-288 505.5,-324"/>
<text text-anchor="middle" x="422" y="-302.3" font-family="Times,serif" font-size="14.00">MaximumProbability</text>
</g>
<!-- MaximumProbability&#45;&gt;ess.nmx.mcstas_loader.load_mcstas_nexus_NMXData -->
<g id="edge4" class="edge">
<title>MaximumProbability&#45;&gt;ess.nmx.mcstas_loader.load_mcstas_nexus_NMXData</title>
<path fill="none" stroke="black" d="M402.22,-287.7C392.17,-278.9 379.81,-268.08 368.9,-258.54"/>
<polygon fill="black" stroke="black" points="371.1,-255.81 361.27,-251.86 366.49,-261.08 371.1,-255.81"/>
</g>
<!-- NMXData -->
<g id="node6" class="node">
<title>NMXData</title>
<polygon fill="none" stroke="black" points="385,-180 299,-180 299,-144 385,-144 385,-180"/>
<text text-anchor="middle" x="342" y="-158.3" font-family="Times,serif" font-size="14.00">NMXData</text>
</g>
<!-- ess.nmx.mcstas_loader.load_mcstas_nexus_NMXData&#45;&gt;NMXData -->
<g id="edge5" class="edge">
<title>ess.nmx.mcstas_loader.load_mcstas_nexus_NMXData&#45;&gt;NMXData</title>
<path fill="none" stroke="black" d="M342,-215.7C342,-207.98 342,-198.71 342,-190.11"/>
<polygon fill="black" stroke="black" points="345.5,-190.1 342,-180.1 338.5,-190.1 345.5,-190.1"/>
</g>
<!-- ProtonChargeConverter -->
<g id="node5" class="node">
<title>ProtonChargeConverter</title>
<polygon fill="none" stroke="black" points="712,-324 524,-324 524,-288 712,-288 712,-324"/>
<text text-anchor="middle" x="618" y="-302.3" font-family="Times,serif" font-size="14.00">ProtonChargeConverter</text>
</g>
<!-- ProtonChargeConverter&#45;&gt;ess.nmx.mcstas_loader.load_mcstas_nexus_NMXData -->
<g id="edge3" class="edge">
<title>ProtonChargeConverter&#45;&gt;ess.nmx.mcstas_loader.load_mcstas_nexus_NMXData</title>
<path fill="none" stroke="black" d="M550.84,-287.97C507.17,-276.89 450.51,-262.52 407.23,-251.54"/>
<polygon fill="black" stroke="black" points="407.93,-248.11 397.38,-249.04 406.21,-254.9 407.93,-248.11"/>
</g>
<!-- ess.nmx.reduction.bin_time_of_arrival_NMXReducedData -->
<g id="node7" class="node">
<title>ess.nmx.reduction.bin_time_of_arrival_NMXReducedData</title>
<ellipse fill="none" stroke="black" cx="401" cy="-90" rx="98.58" ry="18"/>
<text text-anchor="middle" x="401" y="-86.3" font-family="Times,serif" font-size="14.00">bin_time_of_arrival</text>
</g>
<!-- NMXData&#45;&gt;ess.nmx.reduction.bin_time_of_arrival_NMXReducedData -->
<g id="edge6" class="edge">
<title>NMXData&#45;&gt;ess.nmx.reduction.bin_time_of_arrival_NMXReducedData</title>
<path fill="none" stroke="black" d="M356.58,-143.7C363.66,-135.3 372.28,-125.07 380.05,-115.86"/>
<polygon fill="black" stroke="black" points="382.81,-118.01 386.58,-108.1 377.46,-113.49 382.81,-118.01"/>
</g>
<!-- NMXReducedData -->
<g id="node9" class="node">
<title>NMXReducedData</title>
<polygon fill="none" stroke="black" points="475,-36 327,-36 327,0 475,0 475,-36"/>
<text text-anchor="middle" x="401" y="-14.3" font-family="Times,serif" font-size="14.00">NMXReducedData</text>
</g>
<!-- ess.nmx.reduction.bin_time_of_arrival_NMXReducedData&#45;&gt;NMXReducedData -->
<g id="edge8" class="edge">
<title>ess.nmx.reduction.bin_time_of_arrival_NMXReducedData&#45;&gt;NMXReducedData</title>
<path fill="none" stroke="black" d="M401,-71.7C401,-63.98 401,-54.71 401,-46.11"/>
<polygon fill="black" stroke="black" points="404.5,-46.1 401,-36.1 397.5,-46.1 404.5,-46.1"/>
</g>
<!-- TimeBinSteps -->
<g id="node8" class="node">
<title>TimeBinSteps</title>
<polygon fill="none" stroke="black" points="519,-180 403,-180 403,-144 519,-144 519,-180"/>
<text text-anchor="middle" x="461" y="-158.3" font-family="Times,serif" font-size="14.00">TimeBinSteps</text>
</g>
<!-- TimeBinSteps&#45;&gt;ess.nmx.reduction.bin_time_of_arrival_NMXReducedData -->
<g id="edge7" class="edge">
<title>TimeBinSteps&#45;&gt;ess.nmx.reduction.bin_time_of_arrival_NMXReducedData</title>
<path fill="none" stroke="black" d="M446.17,-143.7C438.98,-135.3 430.2,-125.07 422.31,-115.86"/>
<polygon fill="black" stroke="black" points="424.83,-113.42 415.66,-108.1 419.51,-117.97 424.83,-113.42"/>
</g>
</g>
</svg>
