<?xml version="1.0" encoding="UTF-8" standalone="no"?>
<!DOCTYPE svg PUBLIC "-//W3C//DTD SVG 1.1//EN"
 "http://www.w3.org/Graphics/SVG/1.1/DTD/svg11.dtd">
<!-- Generated by graphviz version 2.43.0 (0)
 -->
<!-- Title: %3 Pages: 1 -->
<svg width="4325pt" height="377pt"
 viewBox="0.00 0.00 4325.00 376.50" xmlns="http://www.w3.org/2000/svg" xmlns:xlink="http://www.w3.org/1999/xlink">
<g id="graph0" class="graph" transform="scale(1 1) rotate(0) translate(4 372.5)">
<title>%3</title>
<polygon fill="white" stroke="transparent" points="-4,4 -4,-372.5 4321,-372.5 4321,4 -4,4"/>
<g id="clust32" class="cluster">
<title>cluster_UnionType</title>
<polygon fill="#f0f0ff" stroke="#f0f0ff" points="522,-8 522,-179 774,-179 774,-8 522,-8"/>
<text text-anchor="start" x="609" y="-164.8" font-family="Times,serif" font-size="14.00">UnionType</text>
<text text-anchor="start" x="562" y="-153.2" font-family="Times,serif" font-size="11.00">via:</text>
<text text-anchor="start" x="583" y="-153.2" font-family="Times,serif" font-style="italic" font-size="11.00">get_space_group_from_mtz</text>
</g>
<!-- ReferenceIntensities -->
<g id="node1" class="node">
<title>ReferenceIntensities</title>
<polygon fill="none" stroke="black" points="2603,-104.5 2424,-104.5 2424,-71.5 2603,-71.5 2603,-104.5"/>
<text text-anchor="start" x="2439.5" y="-90.3" font-family="Times,serif" font-size="14.00">ReferenceIntensities</text>
<text text-anchor="start" x="2432" y="-78.7" font-family="Times,serif" font-size="11.00">via:</text>
<text text-anchor="start" x="2453" y="-78.7" font-family="Times,serif" font-style="italic" font-size="11.00">get_reference_intensities</text>
</g>
<!-- EstimatedScaleFactor -->
<g id="node2" class="node">
<title>EstimatedScaleFactor</title>
<polygon fill="none" stroke="black" points="2997,-104.5 2675,-104.5 2675,-71.5 2997,-71.5 2997,-104.5"/>
<text text-anchor="start" x="2757" y="-90.3" font-family="Times,serif" font-size="14.00">EstimatedScaleFactor</text>
<text text-anchor="start" x="2683" y="-78.7" font-family="Times,serif" font-size="11.00">via:</text>
<text text-anchor="start" x="2704" y="-78.7" font-family="Times,serif" font-style="italic" font-size="11.00">estimate_scale_factor_per_hkl_asu_from_reference</text>
</g>
<!-- ReferenceIntensities&#45;&gt;EstimatedScaleFactor -->
<g id="edge1" class="edge">
<title>ReferenceIntensities:e&#45;&gt;EstimatedScaleFactor:w</title>
<path fill="none" stroke="black" d="M2603,-88C2631.38,-88 2640.88,-88 2664.98,-88"/>
<polygon fill="black" stroke="black" points="2665,-91.5 2675,-88 2665,-84.5 2665,-91.5"/>
</g>
<!-- EstimatedScaledIntensities -->
<g id="node4" class="node">
<title>EstimatedScaledIntensities</title>
<polygon fill="none" stroke="black" points="3318.5,-128.5 3082.5,-128.5 3082.5,-95.5 3318.5,-95.5 3318.5,-128.5"/>
<text text-anchor="start" x="3102" y="-114.3" font-family="Times,serif" font-size="14.00">EstimatedScaledIntensities</text>
<text text-anchor="start" x="3090.5" y="-102.7" font-family="Times,serif" font-size="11.00">via:</text>
<text text-anchor="start" x="3111.5" y="-102.7" font-family="Times,serif" font-style="italic" font-size="11.00">average_roughly_scaled_intensities</text>
</g>
<!-- EstimatedScaleFactor&#45;&gt;EstimatedScaledIntensities -->
<g id="edge3" class="edge">
<title>EstimatedScaleFactor:e&#45;&gt;EstimatedScaledIntensities:w</title>
<path fill="none" stroke="black" d="M2997,-88C3032.38,-88 3040.97,-107.71 3071.33,-111.41"/>
<polygon fill="black" stroke="black" points="3071.31,-114.91 3081.5,-112 3071.72,-107.92 3071.31,-114.91"/>
</g>
<!-- WavelengthBinned -->
<g id="node3" class="node">
<title>WavelengthBinned</title>
<polygon fill="none" stroke="black" points="2043.5,-114.5 1875.5,-114.5 1875.5,-81.5 2043.5,-81.5 2043.5,-114.5"/>
<text text-anchor="start" x="1892" y="-100.3" font-family="Times,serif" font-size="14.00">WavelengthBinned</text>
<text text-anchor="start" x="1883.5" y="-88.7" font-family="Times,serif" font-size="11.00">via:</text>
<text text-anchor="start" x="1904.5" y="-88.7" font-family="Times,serif" font-style="italic" font-size="11.00">get_wavelength_binned</text>
</g>
<!-- WavelengthBinned&#45;&gt;ReferenceIntensities -->
<g id="edge44" class="edge">
<title>WavelengthBinned:e&#45;&gt;ReferenceIntensities:w</title>
<path fill="none" stroke="black" d="M2044.5,-98C2209.77,-98 2253.5,-88.41 2413.78,-88.01"/>
<polygon fill="black" stroke="black" points="2414,-91.51 2424,-88 2414,-84.51 2414,-91.51"/>
</g>
<!-- WavelengthBinned&#45;&gt;EstimatedScaledIntensities -->
<g id="edge2" class="edge">
<title>WavelengthBinned:e&#45;&gt;EstimatedScaledIntensities:w</title>
<path fill="none" stroke="black" d="M2044.5,-98C2213.2,-98 2255.32,-102.55 2424,-105 2712.78,-109.2 2787.52,-111.94 3071.32,-112"/>
<polygon fill="black" stroke="black" points="3071.5,-115.5 3081.5,-112 3071.5,-108.5 3071.5,-115.5"/>
</g>
<!-- SelectedReferenceWavelength -->
<g id="node33" class="node">
<title>SelectedReferenceWavelength</title>
<polygon fill="none" stroke="black" points="2352,-86.5 2118,-86.5 2118,-53.5 2352,-53.5 2352,-86.5"/>
<text text-anchor="start" x="2126" y="-72.3" font-family="Times,serif" font-size="14.00">SelectedReferenceWavelength</text>
<text text-anchor="start" x="2150.5" y="-60.7" font-family="Times,serif" font-size="11.00">via:</text>
<text text-anchor="start" x="2171.5" y="-60.7" font-family="Times,serif" font-style="italic" font-size="11.00">get_reference_wavelength</text>
</g>
<!-- WavelengthBinned&#45;&gt;SelectedReferenceWavelength -->
<g id="edge46" class="edge">
<title>WavelengthBinned:e&#45;&gt;SelectedReferenceWavelength:w</title>
<path fill="none" stroke="black" d="M2044.5,-98C2075.77,-98 2081.94,-75.59 2107.91,-70.87"/>
<polygon fill="black" stroke="black" points="2108.34,-74.35 2118,-70 2107.74,-67.37 2108.34,-74.35"/>
</g>
<!-- FilteredEstimatedScaledIntensities -->
<g id="node5" class="node">
<title>FilteredEstimatedScaledIntensities</title>
<polygon fill="none" stroke="black" points="3678.5,-128.5 3408.5,-128.5 3408.5,-95.5 3678.5,-95.5 3678.5,-128.5"/>
<text text-anchor="start" x="3416.5" y="-114.3" font-family="Times,serif" font-size="14.00">FilteredEstimatedScaledIntensities</text>
<text text-anchor="start" x="3509" y="-102.7" font-family="Times,serif" font-size="11.00">via:</text>
<text text-anchor="start" x="3530" y="-102.7" font-family="Times,serif" font-style="italic" font-size="11.00">cut_tails</text>
</g>
<!-- EstimatedScaledIntensities&#45;&gt;FilteredEstimatedScaledIntensities -->
<g id="edge4" class="edge">
<title>EstimatedScaledIntensities:e&#45;&gt;FilteredEstimatedScaledIntensities:w</title>
<path fill="none" stroke="black" d="M3319.5,-112C3354.94,-112 3366.3,-112 3397.23,-112"/>
<polygon fill="black" stroke="black" points="3397.5,-115.5 3407.5,-112 3397.5,-108.5 3397.5,-115.5"/>
</g>
<!-- FittingResult -->
<g id="node8" class="node">
<title>FittingResult</title>
<polygon fill="none" stroke="black" points="4014,-101.5 3755,-101.5 3755,-68.5 4014,-68.5 4014,-101.5"/>
<text text-anchor="start" x="3837" y="-87.3" font-family="Times,serif" font-size="14.00">FittingResult</text>
<text text-anchor="start" x="3763" y="-75.7" font-family="Times,serif" font-size="11.00">via:</text>
<text text-anchor="start" x="3784" y="-75.7" font-family="Times,serif" font-style="italic" font-size="11.00">fit_wavelength_scale_factor_polynomial</text>
</g>
<!-- FilteredEstimatedScaledIntensities&#45;&gt;FittingResult -->
<g id="edge7" class="edge">
<title>FilteredEstimatedScaledIntensities:e&#45;&gt;FittingResult:w</title>
<path fill="none" stroke="black" d="M3679.5,-112C3711.38,-112 3718.12,-90.39 3744.7,-85.84"/>
<polygon fill="black" stroke="black" points="3745.32,-89.3 3755,-85 3744.75,-82.32 3745.32,-89.3"/>
</g>
<!-- ScaledIntensityLeftTailThreshold -->
<g id="node6" class="node">
<title>ScaledIntensityLeftTailThreshold</title>
<polygon fill="none" stroke="black" points="3327,-91.5 3074,-91.5 3074,-68.5 3327,-68.5 3327,-91.5"/>
<text text-anchor="middle" x="3200.5" y="-76.3" font-family="Times,serif" font-size="14.00">ScaledIntensityLeftTailThreshold</text>
</g>
<!-- ScaledIntensityLeftTailThreshold&#45;&gt;FilteredEstimatedScaledIntensities -->
<g id="edge5" class="edge">
<title>ScaledIntensityLeftTailThreshold:e&#45;&gt;FilteredEstimatedScaledIntensities:w</title>
<path fill="none" stroke="black" d="M3328.5,-80C3362.68,-80 3368.66,-106.06 3397.33,-111.14"/>
<polygon fill="black" stroke="black" points="3397.24,-114.65 3407.5,-112 3397.83,-107.67 3397.24,-114.65"/>
</g>
<!-- ScaledIntensityRightTailThreshold -->
<g id="node7" class="node">
<title>ScaledIntensityRightTailThreshold</title>
<polygon fill="none" stroke="black" points="3332,-155.5 3069,-155.5 3069,-132.5 3332,-132.5 3332,-155.5"/>
<text text-anchor="middle" x="3200.5" y="-140.3" font-family="Times,serif" font-size="14.00">ScaledIntensityRightTailThreshold</text>
</g>
<!-- ScaledIntensityRightTailThreshold&#45;&gt;FilteredEstimatedScaledIntensities -->
<g id="edge6" class="edge">
<title>ScaledIntensityRightTailThreshold:e&#45;&gt;FilteredEstimatedScaledIntensities:w</title>
<path fill="none" stroke="black" d="M3332,-144C3364.74,-144 3370.18,-118.17 3397.37,-112.92"/>
<polygon fill="black" stroke="black" points="3397.86,-116.39 3407.5,-112 3397.22,-109.42 3397.86,-116.39"/>
</g>
<!-- WavelengthScaleFactors -->
<g id="node41" class="node">
<title>WavelengthScaleFactors</title>
<polygon fill="none" stroke="black" points="4317,-89.5 4086,-89.5 4086,-56.5 4317,-56.5 4317,-89.5"/>
<text text-anchor="start" x="4113.5" y="-75.3" font-family="Times,serif" font-size="14.00">WavelengthScaleFactors</text>
<text text-anchor="start" x="4094" y="-63.7" font-family="Times,serif" font-size="11.00">via:</text>
<text text-anchor="start" x="4115" y="-63.7" font-family="Times,serif" font-style="italic" font-size="11.00">calculate_wavelength_scale_factor</text>
</g>
<!-- FittingResult&#45;&gt;WavelengthScaleFactors -->
<g id="edge60" class="edge">
<title>FittingResult:e&#45;&gt;WavelengthScaleFactors:w</title>
<path fill="none" stroke="black" d="M4014,-85C4042.77,-85 4051.62,-75.56 4075.88,-73.43"/>
<polygon fill="black" stroke="black" points="4076.16,-76.92 4086,-73 4075.86,-69.92 4076.16,-76.92"/>
</g>
<!-- WavelengthFittingPolynomialDegree -->
<g id="node9" class="node">
<title>WavelengthFittingPolynomialDegree</title>
<polygon fill="none" stroke="black" points="3683,-91.5 3404,-91.5 3404,-68.5 3683,-68.5 3683,-91.5"/>
<text text-anchor="middle" x="3543.5" y="-76.3" font-family="Times,serif" font-size="14.00">WavelengthFittingPolynomialDegree</text>
</g>
<!-- WavelengthFittingPolynomialDegree&#45;&gt;FittingResult -->
<g id="edge8" class="edge">
<title>WavelengthFittingPolynomialDegree:e&#45;&gt;FittingResult:w</title>
<path fill="none" stroke="black" d="M3683,-80C3711.44,-80 3720.83,-83.93 3744.96,-84.82"/>
<polygon fill="black" stroke="black" points="3744.94,-88.32 3755,-85 3745.06,-81.32 3744.94,-88.32"/>
</g>
<!-- IntensityColumnName -->
<g id="node10" class="node">
<title>IntensityColumnName</title>
<polygon fill="none" stroke="black" points="448,-316.5 271,-316.5 271,-293.5 448,-293.5 448,-316.5"/>
<text text-anchor="middle" x="359.5" y="-301.3" font-family="Times,serif" font-size="14.00">IntensityColumnName</text>
</g>
<!-- MtzDataFrame(mtzfile=0) -->
<g id="node21" class="node">
<title>MtzDataFrame(mtzfile=0)</title>
<polygon fill="none" stroke="black" points="761,-368.5 535,-368.5 535,-335.5 761,-335.5 761,-368.5"/>
<text text-anchor="start" x="553.5" y="-354.3" font-family="Times,serif" font-size="14.00">MtzDataFrame(mtzfile=0)</text>
<text text-anchor="start" x="543" y="-342.7" font-family="Times,serif" font-size="11.00">via:</text>
<text text-anchor="start" x="564" y="-342.7" font-family="Times,serif" font-style="italic" font-size="11.00">process_single_mtz_to_dataframe</text>
</g>
<!-- IntensityColumnName&#45;&gt;MtzDataFrame(mtzfile=0) -->
<g id="edge21" class="edge">
<title>IntensityColumnName:e&#45;&gt;MtzDataFrame(mtzfile=0):w</title>
<path fill="none" stroke="black" d="M448.5,-305C488.14,-305 490.52,-344.27 523.75,-351.02"/>
<polygon fill="black" stroke="black" points="523.71,-354.53 534,-352 524.38,-347.56 523.71,-354.53"/>
</g>
<!-- MtzDataFrame(mtzfile=1) -->
<g id="node23" class="node">
<title>MtzDataFrame(mtzfile=1)</title>
<polygon fill="none" stroke="black" points="761,-331.5 535,-331.5 535,-298.5 761,-298.5 761,-331.5"/>
<text text-anchor="start" x="553.5" y="-317.3" font-family="Times,serif" font-size="14.00">MtzDataFrame(mtzfile=1)</text>
<text text-anchor="start" x="543" y="-305.7" font-family="Times,serif" font-size="11.00">via:</text>
<text text-anchor="start" x="564" y="-305.7" font-family="Times,serif" font-style="italic" font-size="11.00">process_single_mtz_to_dataframe</text>
</g>
<!-- IntensityColumnName&#45;&gt;MtzDataFrame(mtzfile=1) -->
<g id="edge25" class="edge">
<title>IntensityColumnName:e&#45;&gt;MtzDataFrame(mtzfile=1):w</title>
<path fill="none" stroke="black" d="M448.5,-305C483.17,-305 493.8,-313.21 523.96,-314.75"/>
<polygon fill="black" stroke="black" points="523.92,-318.25 534,-315 524.09,-311.25 523.92,-318.25"/>
</g>
<!-- MtzDataFrame(mtzfile=2) -->
<g id="node24" class="node">
<title>MtzDataFrame(mtzfile=2)</title>
<polygon fill="none" stroke="black" points="761,-294.5 535,-294.5 535,-261.5 761,-261.5 761,-294.5"/>
<text text-anchor="start" x="553.5" y="-280.3" font-family="Times,serif" font-size="14.00">MtzDataFrame(mtzfile=2)</text>
<text text-anchor="start" x="543" y="-268.7" font-family="Times,serif" font-size="11.00">via:</text>
<text text-anchor="start" x="564" y="-268.7" font-family="Times,serif" font-style="italic" font-size="11.00">process_single_mtz_to_dataframe</text>
</g>
<!-- IntensityColumnName&#45;&gt;MtzDataFrame(mtzfile=2) -->
<g id="edge29" class="edge">
<title>IntensityColumnName:e&#45;&gt;MtzDataFrame(mtzfile=2):w</title>
<path fill="none" stroke="black" d="M448.5,-305C484.61,-305 492.76,-282.83 523.63,-278.67"/>
<polygon fill="black" stroke="black" points="524.25,-282.14 534,-278 523.8,-275.15 524.25,-282.14"/>
</g>
<!-- MtzDataFrame(mtzfile=3) -->
<g id="node25" class="node">
<title>MtzDataFrame(mtzfile=3)</title>
<polygon fill="none" stroke="black" points="761,-257.5 535,-257.5 535,-224.5 761,-224.5 761,-257.5"/>
<text text-anchor="start" x="553.5" y="-243.3" font-family="Times,serif" font-size="14.00">MtzDataFrame(mtzfile=3)</text>
<text text-anchor="start" x="543" y="-231.7" font-family="Times,serif" font-size="11.00">via:</text>
<text text-anchor="start" x="564" y="-231.7" font-family="Times,serif" font-style="italic" font-size="11.00">process_single_mtz_to_dataframe</text>
</g>
<!-- IntensityColumnName&#45;&gt;MtzDataFrame(mtzfile=3) -->
<g id="edge33" class="edge">
<title>IntensityColumnName:e&#45;&gt;MtzDataFrame(mtzfile=3):w</title>
<path fill="none" stroke="black" d="M448.5,-305C492.26,-305 487.66,-250.61 523.86,-242.11"/>
<polygon fill="black" stroke="black" points="524.44,-245.57 534,-241 523.68,-238.61 524.44,-245.57"/>
</g>
<!-- MtzDataFrame(mtzfile=4) -->
<g id="node26" class="node">
<title>MtzDataFrame(mtzfile=4)</title>
<polygon fill="none" stroke="black" points="761,-220.5 535,-220.5 535,-187.5 761,-187.5 761,-220.5"/>
<text text-anchor="start" x="553.5" y="-206.3" font-family="Times,serif" font-size="14.00">MtzDataFrame(mtzfile=4)</text>
<text text-anchor="start" x="543" y="-194.7" font-family="Times,serif" font-size="11.00">via:</text>
<text text-anchor="start" x="564" y="-194.7" font-family="Times,serif" font-style="italic" font-size="11.00">process_single_mtz_to_dataframe</text>
</g>
<!-- IntensityColumnName&#45;&gt;MtzDataFrame(mtzfile=4) -->
<g id="edge37" class="edge">
<title>IntensityColumnName:e&#45;&gt;MtzDataFrame(mtzfile=4):w</title>
<path fill="none" stroke="black" d="M448.5,-305C503.64,-305 478.85,-216.23 523.99,-205.13"/>
<polygon fill="black" stroke="black" points="524.46,-208.6 534,-204 523.67,-201.65 524.46,-208.6"/>
</g>
<!-- MTZFilePath(mtzfile=0) -->
<g id="node11" class="node">
<title>MTZFilePath(mtzfile=0)</title>
<polygon fill="none" stroke="black" points="189,-229.5 0,-229.5 0,-206.5 189,-206.5 189,-229.5"/>
<text text-anchor="middle" x="94.5" y="-214.3" font-family="Times,serif" font-size="14.00">MTZFilePath(mtzfile=0)</text>
</g>
<!-- Mtz(mtzfile=0) -->
<g id="node16" class="node">
<title>Mtz(mtzfile=0)</title>
<polygon fill="none" stroke="black" points="422,-234.5 297,-234.5 297,-201.5 422,-201.5 422,-234.5"/>
<text text-anchor="start" x="305" y="-220.3" font-family="Times,serif" font-size="14.00">Mtz(mtzfile=0)</text>
<text text-anchor="start" x="311" y="-208.7" font-family="Times,serif" font-size="11.00">via:</text>
<text text-anchor="start" x="332" y="-208.7" font-family="Times,serif" font-style="italic" font-size="11.00">read_mtz_file</text>
</g>
<!-- MTZFilePath(mtzfile=0)&#45;&gt;Mtz(mtzfile=0) -->
<g id="edge9" class="edge">
<title>MTZFilePath(mtzfile=0):e&#45;&gt;Mtz(mtzfile=0):w</title>
<path fill="none" stroke="black" d="M189,-218C233.23,-218 246.75,-218 286.42,-218"/>
<polygon fill="black" stroke="black" points="286.5,-221.5 296.5,-218 286.5,-214.5 286.5,-221.5"/>
</g>
<!-- MTZFilePath(mtzfile=1) -->
<g id="node12" class="node">
<title>MTZFilePath(mtzfile=1)</title>
<polygon fill="none" stroke="black" points="189,-189.5 0,-189.5 0,-166.5 189,-166.5 189,-189.5"/>
<text text-anchor="middle" x="94.5" y="-174.3" font-family="Times,serif" font-size="14.00">MTZFilePath(mtzfile=1)</text>
</g>
<!-- Mtz(mtzfile=1) -->
<g id="node17" class="node">
<title>Mtz(mtzfile=1)</title>
<polygon fill="none" stroke="black" points="422,-194.5 297,-194.5 297,-161.5 422,-161.5 422,-194.5"/>
<text text-anchor="start" x="305" y="-180.3" font-family="Times,serif" font-size="14.00">Mtz(mtzfile=1)</text>
<text text-anchor="start" x="311" y="-168.7" font-family="Times,serif" font-size="11.00">via:</text>
<text text-anchor="start" x="332" y="-168.7" font-family="Times,serif" font-style="italic" font-size="11.00">read_mtz_file</text>
</g>
<!-- MTZFilePath(mtzfile=1)&#45;&gt;Mtz(mtzfile=1) -->
<g id="edge10" class="edge">
<title>MTZFilePath(mtzfile=1):e&#45;&gt;Mtz(mtzfile=1):w</title>
<path fill="none" stroke="black" d="M189,-178C233.23,-178 246.75,-178 286.42,-178"/>
<polygon fill="black" stroke="black" points="286.5,-181.5 296.5,-178 286.5,-174.5 286.5,-181.5"/>
</g>
<!-- MTZFilePath(mtzfile=2) -->
<g id="node13" class="node">
<title>MTZFilePath(mtzfile=2)</title>
<polygon fill="none" stroke="black" points="189,-147.5 0,-147.5 0,-124.5 189,-124.5 189,-147.5"/>
<text text-anchor="middle" x="94.5" y="-132.3" font-family="Times,serif" font-size="14.00">MTZFilePath(mtzfile=2)</text>
</g>
<!-- Mtz(mtzfile=2) -->
<g id="node18" class="node">
<title>Mtz(mtzfile=2)</title>
<polygon fill="none" stroke="black" points="422,-152.5 297,-152.5 297,-119.5 422,-119.5 422,-152.5"/>
<text text-anchor="start" x="305" y="-138.3" font-family="Times,serif" font-size="14.00">Mtz(mtzfile=2)</text>
<text text-anchor="start" x="311" y="-126.7" font-family="Times,serif" font-size="11.00">via:</text>
<text text-anchor="start" x="332" y="-126.7" font-family="Times,serif" font-style="italic" font-size="11.00">read_mtz_file</text>
</g>
<!-- MTZFilePath(mtzfile=2)&#45;&gt;Mtz(mtzfile=2) -->
<g id="edge11" class="edge">
<title>MTZFilePath(mtzfile=2):e&#45;&gt;Mtz(mtzfile=2):w</title>
<path fill="none" stroke="black" d="M189,-136C233.23,-136 246.75,-136 286.42,-136"/>
<polygon fill="black" stroke="black" points="286.5,-139.5 296.5,-136 286.5,-132.5 286.5,-139.5"/>
</g>
<!-- MTZFilePath(mtzfile=3) -->
<g id="node14" class="node">
<title>MTZFilePath(mtzfile=3)</title>
<polygon fill="none" stroke="black" points="189,-99.5 0,-99.5 0,-76.5 189,-76.5 189,-99.5"/>
<text text-anchor="middle" x="94.5" y="-84.3" font-family="Times,serif" font-size="14.00">MTZFilePath(mtzfile=3)</text>
</g>
<!-- Mtz(mtzfile=3) -->
<g id="node19" class="node">
<title>Mtz(mtzfile=3)</title>
<polygon fill="none" stroke="black" points="422,-104.5 297,-104.5 297,-71.5 422,-71.5 422,-104.5"/>
<text text-anchor="start" x="305" y="-90.3" font-family="Times,serif" font-size="14.00">Mtz(mtzfile=3)</text>
<text text-anchor="start" x="311" y="-78.7" font-family="Times,serif" font-size="11.00">via:</text>
<text text-anchor="start" x="332" y="-78.7" font-family="Times,serif" font-style="italic" font-size="11.00">read_mtz_file</text>
</g>
<!-- MTZFilePath(mtzfile=3)&#45;&gt;Mtz(mtzfile=3) -->
<g id="edge12" class="edge">
<title>MTZFilePath(mtzfile=3):e&#45;&gt;Mtz(mtzfile=3):w</title>
<path fill="none" stroke="black" d="M189,-88C233.23,-88 246.75,-88 286.42,-88"/>
<polygon fill="black" stroke="black" points="286.5,-91.5 296.5,-88 286.5,-84.5 286.5,-91.5"/>
</g>
<!-- MTZFilePath(mtzfile=4) -->
<g id="node15" class="node">
<title>MTZFilePath(mtzfile=4)</title>
<polygon fill="none" stroke="black" points="189,-40.5 0,-40.5 0,-17.5 189,-17.5 189,-40.5"/>
<text text-anchor="middle" x="94.5" y="-25.3" font-family="Times,serif" font-size="14.00">MTZFilePath(mtzfile=4)</text>
</g>
<!-- Mtz(mtzfile=4) -->
<g id="node20" class="node">
<title>Mtz(mtzfile=4)</title>
<polygon fill="none" stroke="black" points="422,-45.5 297,-45.5 297,-12.5 422,-12.5 422,-45.5"/>
<text text-anchor="start" x="305" y="-31.3" font-family="Times,serif" font-size="14.00">Mtz(mtzfile=4)</text>
<text text-anchor="start" x="311" y="-19.7" font-family="Times,serif" font-size="11.00">via:</text>
<text text-anchor="start" x="332" y="-19.7" font-family="Times,serif" font-style="italic" font-size="11.00">read_mtz_file</text>
</g>
<!-- MTZFilePath(mtzfile=4)&#45;&gt;Mtz(mtzfile=4) -->
<g id="edge13" class="edge">
<title>MTZFilePath(mtzfile=4):e&#45;&gt;Mtz(mtzfile=4):w</title>
<path fill="none" stroke="black" d="M189,-29C233.23,-29 246.75,-29 286.42,-29"/>
<polygon fill="black" stroke="black" points="286.5,-32.5 296.5,-29 286.5,-25.5 286.5,-32.5"/>
</g>
<!-- Mtz(mtzfile=0)&#45;&gt;MtzDataFrame(mtzfile=0) -->
<g id="edge19" class="edge">
<title>Mtz(mtzfile=0):e&#45;&gt;MtzDataFrame(mtzfile=0):w</title>
<path fill="none" stroke="black" d="M422.5,-218C496.34,-218 460.33,-339.73 523.88,-351.14"/>
<polygon fill="black" stroke="black" points="523.74,-354.65 534,-352 524.33,-347.67 523.74,-354.65"/>
</g>
<!-- UnionType[SpaceGroup, NoneType](mtzfile=0) -->
<g id="node35" class="node">
<title>UnionType[SpaceGroup, NoneType](mtzfile=0)</title>
<polygon fill="none" stroke="black" points="766,-137.5 530,-137.5 530,-116.5 766,-116.5 766,-137.5"/>
<text text-anchor="start" x="538" y="-123.9" font-family="Times,serif" font-size="12.00">[SpaceGroup, NoneType](mtzfile=0)</text>
</g>
<!-- Mtz(mtzfile=0)&#45;&gt;UnionType[SpaceGroup, NoneType](mtzfile=0) -->
<g id="edge53" class="edge">
<title>Mtz(mtzfile=0):e&#45;&gt;UnionType[SpaceGroup, NoneType](mtzfile=0):w</title>
<path fill="none" stroke="black" stroke-width="2" d="M422.5,-218C481.11,-218 468.58,-137.35 518.85,-127.9"/>
<polygon fill="black" stroke="black" stroke-width="2" points="513.35,-133.11 522,-127 511.42,-126.38 513.35,-133.11"/>
</g>
<!-- Mtz(mtzfile=1)&#45;&gt;MtzDataFrame(mtzfile=1) -->
<g id="edge23" class="edge">
<title>Mtz(mtzfile=1):e&#45;&gt;MtzDataFrame(mtzfile=1):w</title>
<path fill="none" stroke="black" d="M422.5,-178C497.33,-178 459.49,-302.46 523.75,-314.13"/>
<polygon fill="black" stroke="black" points="523.74,-317.64 534,-315 524.33,-310.66 523.74,-317.64"/>
</g>
<!-- UnionType[SpaceGroup, NoneType](mtzfile=1) -->
<g id="node36" class="node">
<title>UnionType[SpaceGroup, NoneType](mtzfile=1)</title>
<polygon fill="none" stroke="black" points="766,-112.5 530,-112.5 530,-91.5 766,-91.5 766,-112.5"/>
<text text-anchor="start" x="538" y="-98.9" font-family="Times,serif" font-size="12.00">[SpaceGroup, NoneType](mtzfile=1)</text>
</g>
<!-- Mtz(mtzfile=1)&#45;&gt;UnionType[SpaceGroup, NoneType](mtzfile=1) -->
<g id="edge54" class="edge">
<title>Mtz(mtzfile=1):e&#45;&gt;UnionType[SpaceGroup, NoneType](mtzfile=1):w</title>
<path fill="none" stroke="black" stroke-width="2" d="M422.5,-178C477.02,-178 471.81,-111.2 518.86,-102.85"/>
<polygon fill="black" stroke="black" stroke-width="2" points="513.27,-108 522,-102 511.43,-101.25 513.27,-108"/>
</g>
<!-- Mtz(mtzfile=2)&#45;&gt;MtzDataFrame(mtzfile=2) -->
<g id="edge27" class="edge">
<title>Mtz(mtzfile=2):e&#45;&gt;MtzDataFrame(mtzfile=2):w</title>
<path fill="none" stroke="black" d="M422.5,-136C499.14,-136 457.9,-265.53 523.95,-277.17"/>
<polygon fill="black" stroke="black" points="523.74,-280.66 534,-278 524.32,-273.69 523.74,-280.66"/>
</g>
<!-- UnionType[SpaceGroup, NoneType](mtzfile=2) -->
<g id="node37" class="node">
<title>UnionType[SpaceGroup, NoneType](mtzfile=2)</title>
<polygon fill="none" stroke="black" points="766,-87.5 530,-87.5 530,-66.5 766,-66.5 766,-87.5"/>
<text text-anchor="start" x="538" y="-73.9" font-family="Times,serif" font-size="12.00">[SpaceGroup, NoneType](mtzfile=2)</text>
</g>
<!-- Mtz(mtzfile=2)&#45;&gt;UnionType[SpaceGroup, NoneType](mtzfile=2) -->
<g id="edge55" class="edge">
<title>Mtz(mtzfile=2):e&#45;&gt;UnionType[SpaceGroup, NoneType](mtzfile=2):w</title>
<path fill="none" stroke="black" stroke-width="2" d="M422.5,-136C473.02,-136 474.87,-84.58 518.93,-77.75"/>
<polygon fill="black" stroke="black" stroke-width="2" points="513.11,-82.76 522,-77 511.46,-75.96 513.11,-82.76"/>
</g>
<!-- Mtz(mtzfile=3)&#45;&gt;MtzDataFrame(mtzfile=3) -->
<g id="edge31" class="edge">
<title>Mtz(mtzfile=3):e&#45;&gt;MtzDataFrame(mtzfile=3):w</title>
<path fill="none" stroke="black" d="M422.5,-88C503.03,-88 454.48,-228.13 523.91,-240.18"/>
<polygon fill="black" stroke="black" points="523.75,-243.68 534,-241 524.32,-236.7 523.75,-243.68"/>
</g>
<!-- UnionType[SpaceGroup, NoneType](mtzfile=3) -->
<g id="node38" class="node">
<title>UnionType[SpaceGroup, NoneType](mtzfile=3)</title>
<polygon fill="none" stroke="black" points="766,-62.5 530,-62.5 530,-41.5 766,-41.5 766,-62.5"/>
<text text-anchor="start" x="538" y="-48.9" font-family="Times,serif" font-size="12.00">[SpaceGroup, NoneType](mtzfile=3)</text>
</g>
<!-- Mtz(mtzfile=3)&#45;&gt;UnionType[SpaceGroup, NoneType](mtzfile=3) -->
<g id="edge56" class="edge">
<title>Mtz(mtzfile=3):e&#45;&gt;UnionType[SpaceGroup, NoneType](mtzfile=3):w</title>
<path fill="none" stroke="black" stroke-width="2" d="M422.5,-88C468.85,-88 477.86,-57.02 518.81,-52.54"/>
<polygon fill="black" stroke="black" stroke-width="2" points="512.72,-57.11 522,-52 511.56,-50.21 512.72,-57.11"/>
</g>
<!-- Mtz(mtzfile=4)&#45;&gt;MtzDataFrame(mtzfile=4) -->
<g id="edge35" class="edge">
<title>Mtz(mtzfile=4):e&#45;&gt;MtzDataFrame(mtzfile=4):w</title>
<path fill="none" stroke="black" d="M422.5,-29C511.12,-29 447.22,-190.6 523.93,-203.22"/>
<polygon fill="black" stroke="black" points="523.76,-206.72 534,-204 524.3,-199.74 523.76,-206.72"/>
</g>
<!-- UnionType[SpaceGroup, NoneType](mtzfile=4) -->
<g id="node39" class="node">
<title>UnionType[SpaceGroup, NoneType](mtzfile=4)</title>
<polygon fill="none" stroke="black" points="766,-37.5 530,-37.5 530,-16.5 766,-16.5 766,-37.5"/>
<text text-anchor="start" x="538" y="-23.9" font-family="Times,serif" font-size="12.00">[SpaceGroup, NoneType](mtzfile=4)</text>
</g>
<!-- Mtz(mtzfile=4)&#45;&gt;UnionType[SpaceGroup, NoneType](mtzfile=4) -->
<g id="edge57" class="edge">
<title>Mtz(mtzfile=4):e&#45;&gt;UnionType[SpaceGroup, NoneType](mtzfile=4):w</title>
<path fill="none" stroke="black" stroke-width="2" d="M422.5,-29C466.14,-29 479.6,-27.3 518.52,-27.03"/>
<polygon fill="black" stroke="black" stroke-width="2" points="512.04,-30.6 522,-27 511.97,-23.6 512.04,-30.6"/>
</g>
<!-- MtzDataFrame -->
<g id="node22" class="node">
<title>MtzDataFrame</title>
<polygon fill="none" stroke="black" points="1009,-275.5 840,-275.5 840,-242.5 1009,-242.5 1009,-275.5"/>
<text text-anchor="start" x="870" y="-261.3" font-family="Times,serif" font-size="14.00">MtzDataFrame</text>
<text text-anchor="start" x="848" y="-249.7" font-family="Times,serif" font-size="11.00">via:</text>
<text text-anchor="start" x="869" y="-249.7" font-family="Times,serif" font-style="italic" font-size="11.00">merge_mtz_dataframes</text>
</g>
<!-- MtzDataFrame(mtzfile=0)&#45;&gt;MtzDataFrame -->
<g id="edge14" class="edge">
<title>MtzDataFrame(mtzfile=0):e&#45;&gt;MtzDataFrame:w</title>
<path fill="none" stroke="black" d="M762,-352C812.02,-352 789.52,-271.62 829.34,-260.31"/>
<polygon fill="black" stroke="black" points="830.03,-263.75 839.5,-259 829.13,-256.81 830.03,-263.75"/>
</g>
<!-- NMXMtzDataFrame -->
<g id="node29" class="node">
<title>NMXMtzDataFrame</title>
<polygon fill="none" stroke="black" points="1468,-130.5 1298,-130.5 1298,-97.5 1468,-97.5 1468,-130.5"/>
<text text-anchor="start" x="1310.5" y="-116.3" font-family="Times,serif" font-size="14.00">NMXMtzDataFrame</text>
<text text-anchor="start" x="1306" y="-104.7" font-family="Times,serif" font-size="11.00">via:</text>
<text text-anchor="start" x="1327" y="-104.7" font-family="Times,serif" font-style="italic" font-size="11.00">process_mtz_dataframe</text>
</g>
<!-- MtzDataFrame&#45;&gt;NMXMtzDataFrame -->
<g id="edge40" class="edge">
<title>MtzDataFrame:e&#45;&gt;NMXMtzDataFrame:w</title>
<path fill="none" stroke="black" d="M1009.5,-259C1149.5,-259 1154.34,-120.99 1287.74,-114.26"/>
<polygon fill="black" stroke="black" points="1288.09,-117.75 1298,-114 1287.92,-110.75 1288.09,-117.75"/>
</g>
<!-- MtzDataFrame(mtzfile=1)&#45;&gt;MtzDataFrame -->
<g id="edge15" class="edge">
<title>MtzDataFrame(mtzfile=1):e&#45;&gt;MtzDataFrame:w</title>
<path fill="none" stroke="black" d="M762,-315C800.68,-315 797.95,-268.61 829.18,-260.27"/>
<polygon fill="black" stroke="black" points="830,-263.7 839.5,-259 829.15,-256.75 830,-263.7"/>
</g>
<!-- MtzDataFrame(mtzfile=2)&#45;&gt;MtzDataFrame -->
<g id="edge16" class="edge">
<title>MtzDataFrame(mtzfile=2):e&#45;&gt;MtzDataFrame:w</title>
<path fill="none" stroke="black" d="M762,-278C793.72,-278 802.33,-262.8 829.18,-259.59"/>
<polygon fill="black" stroke="black" points="829.72,-263.06 839.5,-259 829.32,-256.08 829.72,-263.06"/>
</g>
<!-- MtzDataFrame(mtzfile=3)&#45;&gt;MtzDataFrame -->
<g id="edge17" class="edge">
<title>MtzDataFrame(mtzfile=3):e&#45;&gt;MtzDataFrame:w</title>
<path fill="none" stroke="black" d="M762,-241C793.63,-241 802.39,-255.4 829.2,-258.44"/>
<polygon fill="black" stroke="black" points="829.33,-261.95 839.5,-259 829.7,-254.96 829.33,-261.95"/>
</g>
<!-- MtzDataFrame(mtzfile=4)&#45;&gt;MtzDataFrame -->
<g id="edge18" class="edge">
<title>MtzDataFrame(mtzfile=4):e&#45;&gt;MtzDataFrame:w</title>
<path fill="none" stroke="black" d="M762,-204C800.44,-204 798.12,-249.56 829.24,-257.75"/>
<polygon fill="black" stroke="black" points="829.15,-261.26 839.5,-259 830,-254.31 829.15,-261.26"/>
</g>
<!-- WavelengthColumnName -->
<g id="node27" class="node">
<title>WavelengthColumnName</title>
<polygon fill="none" stroke="black" points="458,-289.5 261,-289.5 261,-266.5 458,-266.5 458,-289.5"/>
<text text-anchor="middle" x="359.5" y="-274.3" font-family="Times,serif" font-size="14.00">WavelengthColumnName</text>
</g>
<!-- WavelengthColumnName&#45;&gt;MtzDataFrame(mtzfile=0) -->
<g id="edge20" class="edge">
<title>WavelengthColumnName:e&#45;&gt;MtzDataFrame(mtzfile=0):w</title>
<path fill="none" stroke="black" d="M458,-278C501.28,-278 489.42,-340.36 523.65,-350.59"/>
<polygon fill="black" stroke="black" points="523.62,-354.12 534,-352 524.56,-347.18 523.62,-354.12"/>
</g>
<!-- WavelengthColumnName&#45;&gt;MtzDataFrame(mtzfile=1) -->
<g id="edge24" class="edge">
<title>WavelengthColumnName:e&#45;&gt;MtzDataFrame(mtzfile=1):w</title>
<path fill="none" stroke="black" d="M458,-278C491.9,-278 495.91,-308.13 523.98,-314.01"/>
<polygon fill="black" stroke="black" points="523.7,-317.5 534,-315 524.39,-310.53 523.7,-317.5"/>
</g>
<!-- WavelengthColumnName&#45;&gt;MtzDataFrame(mtzfile=2) -->
<g id="edge28" class="edge">
<title>WavelengthColumnName:e&#45;&gt;MtzDataFrame(mtzfile=2):w</title>
<path fill="none" stroke="black" d="M458,-278C488.08,-278 498.07,-278 523.76,-278"/>
<polygon fill="black" stroke="black" points="524,-281.5 534,-278 524,-274.5 524,-281.5"/>
</g>
<!-- WavelengthColumnName&#45;&gt;MtzDataFrame(mtzfile=3) -->
<g id="edge32" class="edge">
<title>WavelengthColumnName:e&#45;&gt;MtzDataFrame(mtzfile=3):w</title>
<path fill="none" stroke="black" d="M458,-278C491.9,-278 495.91,-247.87 523.98,-241.99"/>
<polygon fill="black" stroke="black" points="524.39,-245.47 534,-241 523.7,-238.5 524.39,-245.47"/>
</g>
<!-- WavelengthColumnName&#45;&gt;MtzDataFrame(mtzfile=4) -->
<g id="edge36" class="edge">
<title>WavelengthColumnName:e&#45;&gt;MtzDataFrame(mtzfile=4):w</title>
<path fill="none" stroke="black" d="M458,-278C501.28,-278 489.42,-215.64 523.65,-205.41"/>
<polygon fill="black" stroke="black" points="524.56,-208.82 534,-204 523.62,-201.88 524.56,-208.82"/>
</g>
<!-- StdDevColumnName -->
<g id="node28" class="node">
<title>StdDevColumnName</title>
<polygon fill="none" stroke="black" points="442.5,-262.5 276.5,-262.5 276.5,-239.5 442.5,-239.5 442.5,-262.5"/>
<text text-anchor="middle" x="359.5" y="-247.3" font-family="Times,serif" font-size="14.00">StdDevColumnName</text>
</g>
<!-- StdDevColumnName&#45;&gt;MtzDataFrame(mtzfile=0) -->
<g id="edge22" class="edge">
<title>StdDevColumnName:e&#45;&gt;MtzDataFrame(mtzfile=0):w</title>
<path fill="none" stroke="black" d="M443.5,-251C500.12,-251 477.03,-340.14 524.01,-350.93"/>
<polygon fill="black" stroke="black" points="523.69,-354.42 534,-352 524.43,-347.46 523.69,-354.42"/>
</g>
<!-- StdDevColumnName&#45;&gt;MtzDataFrame(mtzfile=1) -->
<g id="edge26" class="edge">
<title>StdDevColumnName:e&#45;&gt;MtzDataFrame(mtzfile=1):w</title>
<path fill="none" stroke="black" d="M443.5,-251C489.11,-251 485.61,-305.85 523.93,-313.99"/>
<polygon fill="black" stroke="black" points="523.7,-317.49 534,-315 524.4,-310.52 523.7,-317.49"/>
</g>
<!-- StdDevColumnName&#45;&gt;MtzDataFrame(mtzfile=2) -->
<g id="edge30" class="edge">
<title>StdDevColumnName:e&#45;&gt;MtzDataFrame(mtzfile=2):w</title>
<path fill="none" stroke="black" d="M443.5,-251C481.87,-251 490.64,-273.56 523.92,-277.44"/>
<polygon fill="black" stroke="black" points="523.82,-280.94 534,-278 524.21,-273.95 523.82,-280.94"/>
</g>
<!-- StdDevColumnName&#45;&gt;MtzDataFrame(mtzfile=3) -->
<g id="edge34" class="edge">
<title>StdDevColumnName:e&#45;&gt;MtzDataFrame(mtzfile=3):w</title>
<path fill="none" stroke="black" d="M443.5,-251C480.33,-251 491.56,-242.72 523.8,-241.23"/>
<polygon fill="black" stroke="black" points="524.08,-244.72 534,-241 523.92,-237.72 524.08,-244.72"/>
</g>
<!-- StdDevColumnName&#45;&gt;MtzDataFrame(mtzfile=4) -->
<g id="edge38" class="edge">
<title>StdDevColumnName:e&#45;&gt;MtzDataFrame(mtzfile=4):w</title>
<path fill="none" stroke="black" d="M443.5,-251C485.11,-251 488.39,-211.39 523.71,-204.9"/>
<polygon fill="black" stroke="black" points="524.34,-208.36 534,-204 523.73,-201.38 524.34,-208.36"/>
</g>
<!-- NMXMtzDataArray -->
<g id="node30" class="node">
<title>NMXMtzDataArray</title>
<polygon fill="none" stroke="black" points="1801,-130.5 1540,-130.5 1540,-97.5 1801,-97.5 1801,-130.5"/>
<text text-anchor="start" x="1601.5" y="-116.3" font-family="Times,serif" font-size="14.00">NMXMtzDataArray</text>
<text text-anchor="start" x="1548" y="-104.7" font-family="Times,serif" font-size="11.00">via:</text>
<text text-anchor="start" x="1569" y="-104.7" font-family="Times,serif" font-style="italic" font-size="11.00">nmx_mtz_dataframe_to_scipp_dataarray</text>
</g>
<!-- NMXMtzDataFrame&#45;&gt;NMXMtzDataArray -->
<g id="edge39" class="edge">
<title>NMXMtzDataFrame:e&#45;&gt;NMXMtzDataArray:w</title>
<path fill="none" stroke="black" d="M1468,-114C1496.38,-114 1505.88,-114 1529.98,-114"/>
<polygon fill="black" stroke="black" points="1530,-117.5 1540,-114 1530,-110.5 1530,-117.5"/>
</g>
<!-- NMXMtzDataArray&#45;&gt;WavelengthBinned -->
<g id="edge58" class="edge">
<title>NMXMtzDataArray:e&#45;&gt;WavelengthBinned:w</title>
<path fill="none" stroke="black" d="M1801,-114C1830.78,-114 1839.3,-101.31 1864.42,-98.53"/>
<polygon fill="black" stroke="black" points="1864.7,-102.02 1874.5,-98 1864.33,-95.03 1864.7,-102.02"/>
</g>
<!-- ReciprocalAsu -->
<g id="node31" class="node">
<title>ReciprocalAsu</title>
<polygon fill="none" stroke="black" points="1226,-106.5 1083,-106.5 1083,-73.5 1226,-73.5 1226,-106.5"/>
<text text-anchor="start" x="1103.5" y="-92.3" font-family="Times,serif" font-size="14.00">ReciprocalAsu</text>
<text text-anchor="start" x="1091" y="-80.7" font-family="Times,serif" font-size="11.00">via:</text>
<text text-anchor="start" x="1112" y="-80.7" font-family="Times,serif" font-style="italic" font-size="11.00">get_reciprocal_asu</text>
</g>
<!-- ReciprocalAsu&#45;&gt;NMXMtzDataFrame -->
<g id="edge41" class="edge">
<title>ReciprocalAsu:e&#45;&gt;NMXMtzDataFrame:w</title>
<path fill="none" stroke="black" d="M1226,-90C1256.04,-90 1262.93,-109.04 1287.9,-113.2"/>
<polygon fill="black" stroke="black" points="1287.76,-116.7 1298,-114 1288.31,-109.72 1287.76,-116.7"/>
</g>
<!-- SpaceGroup -->
<g id="node32" class="node">
<title>SpaceGroup</title>
<polygon fill="none" stroke="black" points="1011,-106.5 838,-106.5 838,-73.5 1011,-73.5 1011,-106.5"/>
<text text-anchor="start" x="880.5" y="-92.3" font-family="Times,serif" font-size="14.00">SpaceGroup</text>
<text text-anchor="start" x="846" y="-80.7" font-family="Times,serif" font-size="11.00">via:</text>
<text text-anchor="start" x="867" y="-80.7" font-family="Times,serif" font-style="italic" font-size="11.00">get_unique_space_group</text>
</g>
<!-- SpaceGroup&#45;&gt;NMXMtzDataFrame -->
<g id="edge42" class="edge">
<title>SpaceGroup:e&#45;&gt;NMXMtzDataFrame:w</title>
<path fill="none" stroke="black" d="M1011,-90C1043.88,-90 1050.41,-102.67 1083,-107 1174.35,-119.15 1200.52,-114.38 1287.91,-114.02"/>
<polygon fill="black" stroke="black" points="1288.01,-117.52 1298,-114 1287.99,-110.52 1288.01,-117.52"/>
</g>
<!-- SpaceGroup&#45;&gt;ReciprocalAsu -->
<g id="edge43" class="edge">
<title>SpaceGroup:e&#45;&gt;ReciprocalAsu:w</title>
<path fill="none" stroke="black" d="M1011,-90C1039.38,-90 1048.88,-90 1072.98,-90"/>
<polygon fill="black" stroke="black" points="1073,-93.5 1083,-90 1073,-86.5 1073,-93.5"/>
</g>
<!-- SelectedReferenceWavelength&#45;&gt;ReferenceIntensities -->
<g id="edge45" class="edge">
<title>SelectedReferenceWavelength:e&#45;&gt;ReferenceIntensities:w</title>
<path fill="none" stroke="black" d="M2352,-70C2381.25,-70 2389.3,-84.15 2413.75,-87.36"/>
<polygon fill="black" stroke="black" points="2413.8,-90.87 2424,-88 2414.24,-83.88 2413.8,-90.87"/>
</g>
<!-- SelectedReferenceWavelength&#45;&gt;WavelengthScaleFactors -->
<g id="edge61" class="edge">
<title>SelectedReferenceWavelength:e&#45;&gt;WavelengthScaleFactors:w</title>
<path fill="none" stroke="black" d="M2352,-70C2566.7,-70 2620.3,-61 2835,-61 2835,-61 2835,-61 3544.5,-61 3753.19,-61 3805.5,-59.21 4014,-68 4042.42,-69.2 4051.83,-72.2 4075.96,-72.87"/>
<polygon fill="black" stroke="black" points="4075.95,-76.37 4086,-73 4076.05,-69.37 4075.95,-76.37"/>
</g>
<!-- ReferenceWavelength -->
<g id="node34" class="node">
<title>ReferenceWavelength</title>
<polygon fill="none" stroke="black" points="2046,-77.5 1873,-77.5 1873,-54.5 2046,-54.5 2046,-77.5"/>
<text text-anchor="middle" x="1959.5" y="-62.3" font-family="Times,serif" font-size="14.00">ReferenceWavelength</text>
</g>
<!-- ReferenceWavelength&#45;&gt;SelectedReferenceWavelength -->
<g id="edge47" class="edge">
<title>ReferenceWavelength:e&#45;&gt;SelectedReferenceWavelength:w</title>
<path fill="none" stroke="black" d="M2046,-66C2074.42,-66 2083.85,-69.15 2107.97,-69.86"/>
<polygon fill="black" stroke="black" points="2107.95,-73.36 2118,-70 2108.05,-66.36 2107.95,-73.36"/>
</g>
<!-- UnionType[SpaceGroup, NoneType](mtzfile=0)&#45;&gt;SpaceGroup -->
<g id="edge48" class="edge">
<title>UnionType[SpaceGroup, NoneType](mtzfile=0):e&#45;&gt;SpaceGroup:w</title>
<path fill="none" stroke="black" d="M767,-127C798.83,-127 802.05,-97.39 827.85,-91.15"/>
<polygon fill="black" stroke="black" points="828.46,-94.6 838,-90 827.67,-87.65 828.46,-94.6"/>
</g>
<!-- UnionType[SpaceGroup, NoneType](mtzfile=1)&#45;&gt;SpaceGroup -->
<g id="edge49" class="edge">
<title>UnionType[SpaceGroup, NoneType](mtzfile=1):e&#45;&gt;SpaceGroup:w</title>
<path fill="none" stroke="black" d="M767,-102C795.25,-102 804.01,-92.65 827.7,-90.46"/>
<polygon fill="black" stroke="black" points="828.16,-93.94 838,-90 827.86,-86.95 828.16,-93.94"/>
</g>
<!-- UnionType[SpaceGroup, NoneType](mtzfile=2)&#45;&gt;SpaceGroup -->
<g id="edge50" class="edge">
<title>UnionType[SpaceGroup, NoneType](mtzfile=2):e&#45;&gt;SpaceGroup:w</title>
<path fill="none" stroke="black" d="M767,-77C795.45,-77 804.05,-87.22 828,-89.54"/>
<polygon fill="black" stroke="black" points="827.85,-93.03 838,-90 828.17,-86.04 827.85,-93.03"/>
</g>
<!-- UnionType[SpaceGroup, NoneType](mtzfile=3)&#45;&gt;SpaceGroup -->
<g id="edge51" class="edge">
<title>UnionType[SpaceGroup, NoneType](mtzfile=3):e&#45;&gt;SpaceGroup:w</title>
<path fill="none" stroke="black" d="M767,-52C799.02,-52 801.93,-82.41 827.8,-88.82"/>
<polygon fill="black" stroke="black" points="827.66,-92.33 838,-90 828.47,-85.37 827.66,-92.33"/>
</g>
<!-- UnionType[SpaceGroup, NoneType](mtzfile=4)&#45;&gt;SpaceGroup -->
<g id="edge52" class="edge">
<title>UnionType[SpaceGroup, NoneType](mtzfile=4):e&#45;&gt;SpaceGroup:w</title>
<path fill="none" stroke="black" d="M767,-27C805.4,-27 797.77,-79.19 827.89,-88.57"/>
<polygon fill="black" stroke="black" points="827.61,-92.06 838,-90 828.59,-85.13 827.61,-92.06"/>
</g>
<!-- WavelengthBins -->
<g id="node40" class="node">
<title>WavelengthBins</title>
<polygon fill="none" stroke="black" points="1736.5,-93.5 1604.5,-93.5 1604.5,-70.5 1736.5,-70.5 1736.5,-93.5"/>
<text text-anchor="middle" x="1670.5" y="-78.3" font-family="Times,serif" font-size="14.00">WavelengthBins</text>
</g>
<!-- WavelengthBins&#45;&gt;WavelengthBinned -->
<g id="edge59" class="edge">
<title>WavelengthBins:e&#45;&gt;WavelengthBinned:w</title>
<path fill="none" stroke="black" d="M1737.5,-82C1795.21,-82 1811.35,-96.18 1864.19,-97.84"/>
<polygon fill="black" stroke="black" points="1864.45,-101.35 1874.5,-98 1864.55,-94.35 1864.45,-101.35"/>
</g>
</g>
</svg>
