<?xml version="1.0" encoding="UTF-8" standalone="no"?>
<!DOCTYPE svg PUBLIC "-//W3C//DTD SVG 1.1//EN"
 "http://www.w3.org/Graphics/SVG/1.1/DTD/svg11.dtd">
<!-- Generated by graphviz version 2.43.0 (0)
 -->
<!-- Title: %3 Pages: 1 -->
<svg width="847pt" height="1196pt"
 viewBox="0.00 0.00 846.73 1196.00" xmlns="http://www.w3.org/2000/svg" xmlns:xlink="http://www.w3.org/1999/xlink">
<g id="graph0" class="graph" transform="scale(1 1) rotate(0) translate(4 1192)">
<title>%3</title>
<polygon fill="white" stroke="transparent" points="-4,4 -4,-1192 842.73,-1192 842.73,4 -4,4"/>
<!-- ess.nmx.mcstas.load.load_crystal_rotation_CrystalRotation -->
<g id="node1" class="node">
<title>ess.nmx.mcstas.load.load_crystal_rotation_CrystalRotation</title>
<ellipse fill="none" stroke="black" cx="730.84" cy="-810" rx="107.78" ry="18"/>
<text text-anchor="middle" x="730.84" y="-806.3" font-family="Times,serif" font-size="14.00">load_crystal_rotation</text>
</g>
<!-- CrystalRotation -->
<g id="node4" class="node">
<title>CrystalRotation</title>
<polygon fill="none" stroke="black" points="763.34,-684 634.34,-684 634.34,-648 763.34,-648 763.34,-684"/>
<text text-anchor="middle" x="698.84" y="-662.3" font-family="Times,serif" font-size="14.00">CrystalRotation</text>
</g>
<!-- ess.nmx.mcstas.load.load_crystal_rotation_CrystalRotation&#45;&gt;CrystalRotation -->
<g id="edge3" class="edge">
<title>ess.nmx.mcstas.load.load_crystal_rotation_CrystalRotation&#45;&gt;CrystalRotation</title>
<path fill="none" stroke="black" d="M726.98,-791.87C721.5,-767.56 711.42,-722.82 704.93,-694.01"/>
<polygon fill="black" stroke="black" points="708.32,-693.18 702.71,-684.19 701.5,-694.71 708.32,-693.18"/>
</g>
<!-- FilePath -->
<g id="node2" class="node">
<title>FilePath</title>
<polygon fill="none" stroke="black" points="615.84,-1044 539.84,-1044 539.84,-1008 615.84,-1008 615.84,-1044"/>
<text text-anchor="middle" x="577.84" y="-1022.3" font-family="Times,serif" font-size="14.00">FilePath</text>
</g>
<!-- FilePath&#45;&gt;ess.nmx.mcstas.load.load_crystal_rotation_CrystalRotation -->
<g id="edge1" class="edge">
<title>FilePath&#45;&gt;ess.nmx.mcstas.load.load_crystal_rotation_CrystalRotation</title>
<path fill="none" stroke="black" d="M615.98,-1021.93C675.46,-1016.25 786.01,-1001.88 809.84,-972 844.3,-928.77 792.95,-868.05 758.24,-834.9"/>
<polygon fill="black" stroke="black" points="760.4,-832.13 750.7,-827.87 755.63,-837.25 760.4,-832.13"/>
</g>
<!-- ess.nmx.mcstas.load.load_event_data_bank_name_DetectorBankPrefix(panel) -->
<g id="node5" class="node">
<title>ess.nmx.mcstas.load.load_event_data_bank_name_DetectorBankPrefix(panel)</title>
<ellipse fill="none" stroke="black" cx="324.84" cy="-954" rx="141.88" ry="18"/>
<text text-anchor="middle" x="324.84" y="-950.3" font-family="Times,serif" font-size="14.00">load_event_data_bank_name</text>
</g>
<!-- FilePath&#45;&gt;ess.nmx.mcstas.load.load_event_data_bank_name_DetectorBankPrefix(panel) -->
<g id="edge5" class="edge">
<title>FilePath&#45;&gt;ess.nmx.mcstas.load.load_event_data_bank_name_DetectorBankPrefix(panel)</title>
<path fill="none" stroke="black" d="M539.69,-1014.44C500.38,-1003.57 438.34,-986.4 391.01,-973.31"/>
<polygon fill="black" stroke="black" points="391.72,-969.87 381.15,-970.58 389.86,-976.62 391.72,-969.87"/>
</g>
<!-- ess.nmx.mcstas.xml.read_mcstas_geometry_xml_McStasInstrument -->
<g id="node14" class="node">
<title>ess.nmx.mcstas.xml.read_mcstas_geometry_xml_McStasInstrument</title>
<ellipse fill="none" stroke="black" cx="661.84" cy="-954" rx="139.18" ry="18"/>
<text text-anchor="middle" x="661.84" y="-950.3" font-family="Times,serif" font-size="14.00">read_mcstas_geometry_xml</text>
</g>
<!-- FilePath&#45;&gt;ess.nmx.mcstas.xml.read_mcstas_geometry_xml_McStasInstrument -->
<g id="edge12" class="edge">
<title>FilePath&#45;&gt;ess.nmx.mcstas.xml.read_mcstas_geometry_xml_McStasInstrument</title>
<path fill="none" stroke="black" d="M598.6,-1007.7C609.16,-998.9 622.14,-988.08 633.59,-978.54"/>
<polygon fill="black" stroke="black" points="636.16,-980.95 641.6,-971.86 631.68,-975.58 636.16,-980.95"/>
</g>
<!-- ess.nmx.mcstas.load.load_raw_event_data_RawEventData(panel) -->
<g id="node24" class="node">
<title>ess.nmx.mcstas.load.load_raw_event_data_RawEventData(panel)</title>
<ellipse fill="none" stroke="black" cx="417.84" cy="-810" rx="107.48" ry="18"/>
<text text-anchor="middle" x="417.84" y="-806.3" font-family="Times,serif" font-size="14.00">load_raw_event_data</text>
</g>
<!-- FilePath&#45;&gt;ess.nmx.mcstas.load.load_raw_event_data_RawEventData(panel) -->
<g id="edge29" class="edge">
<title>FilePath&#45;&gt;ess.nmx.mcstas.load.load_raw_event_data_RawEventData(panel)</title>
<path fill="none" stroke="black" d="M552.71,-1007.87C539.99,-998.34 524.94,-985.66 513.84,-972 479.61,-929.88 485.67,-909.98 456.84,-864 451.01,-854.71 444.07,-844.93 437.67,-836.34"/>
<polygon fill="black" stroke="black" points="440.34,-834.07 431.51,-828.21 434.76,-838.29 440.34,-834.07"/>
</g>
<!-- McStasInstrument -->
<g id="node3" class="node">
<title>McStasInstrument</title>
<polygon fill="none" stroke="black" points="672.84,-900 522.84,-900 522.84,-864 672.84,-864 672.84,-900"/>
<text text-anchor="middle" x="597.84" y="-878.3" font-family="Times,serif" font-size="14.00">McStasInstrument</text>
</g>
<!-- McStasInstrument&#45;&gt;ess.nmx.mcstas.load.load_crystal_rotation_CrystalRotation -->
<g id="edge2" class="edge">
<title>McStasInstrument&#45;&gt;ess.nmx.mcstas.load.load_crystal_rotation_CrystalRotation</title>
<path fill="none" stroke="black" d="M630.37,-863.88C648.56,-854.3 671.39,-842.29 690.68,-832.13"/>
<polygon fill="black" stroke="black" points="692.34,-835.22 699.55,-827.47 689.07,-829.03 692.34,-835.22"/>
</g>
<!-- ess.nmx.mcstas.load.load_mcstas_NMXData(panel) -->
<g id="node15" class="node">
<title>ess.nmx.mcstas.load.load_mcstas_NMXData(panel)</title>
<ellipse fill="none" stroke="black" cx="411.84" cy="-378" rx="67.69" ry="18"/>
<text text-anchor="middle" x="411.84" y="-374.3" font-family="Times,serif" font-size="14.00">load_mcstas</text>
</g>
<!-- McStasInstrument&#45;&gt;ess.nmx.mcstas.load.load_mcstas_NMXData(panel) -->
<g id="edge18" class="edge">
<title>McStasInstrument&#45;&gt;ess.nmx.mcstas.load.load_mcstas_NMXData(panel)</title>
<path fill="none" stroke="black" d="M589.54,-863.97C577.56,-837.77 556.84,-785.7 556.84,-739 556.84,-739 556.84,-739 556.84,-521 556.84,-463.23 497.35,-421.21 454.58,-398.46"/>
<polygon fill="black" stroke="black" points="455.96,-395.23 445.47,-393.77 452.76,-401.46 455.96,-395.23"/>
</g>
<!-- ess.nmx.reduction.bin_time_of_arrival_NMXReducedData(panel) -->
<g id="node21" class="node">
<title>ess.nmx.reduction.bin_time_of_arrival_NMXReducedData(panel)</title>
<ellipse fill="none" stroke="black" cx="579.84" cy="-234" rx="98.58" ry="18"/>
<text text-anchor="middle" x="579.84" y="-230.3" font-family="Times,serif" font-size="14.00">bin_time_of_arrival</text>
</g>
<!-- McStasInstrument&#45;&gt;ess.nmx.reduction.bin_time_of_arrival_NMXReducedData(panel) -->
<g id="edge24" class="edge">
<title>McStasInstrument&#45;&gt;ess.nmx.reduction.bin_time_of_arrival_NMXReducedData(panel)</title>
<path fill="none" stroke="black" d="M597.25,-863.95C596.37,-837.3 594.84,-784.12 594.84,-739 594.84,-739 594.84,-739 594.84,-377 594.84,-336.99 588.88,-291 584.47,-262.46"/>
<polygon fill="black" stroke="black" points="587.9,-261.75 582.87,-252.43 580.99,-262.85 587.9,-261.75"/>
</g>
<!-- McStasInstrument&#45;&gt;ess.nmx.mcstas.load.load_raw_event_data_RawEventData(panel) -->
<g id="edge32" class="edge">
<title>McStasInstrument&#45;&gt;ess.nmx.mcstas.load.load_raw_event_data_RawEventData(panel)</title>
<path fill="none" stroke="black" d="M553.8,-863.88C527.85,-853.78 494.92,-840.98 467.97,-830.5"/>
<polygon fill="black" stroke="black" points="468.93,-827.11 458.34,-826.75 466.39,-833.64 468.93,-827.11"/>
</g>
<!-- CrystalRotation&#45;&gt;ess.nmx.mcstas.load.load_mcstas_NMXData(panel) -->
<g id="edge16" class="edge">
<title>CrystalRotation&#45;&gt;ess.nmx.mcstas.load.load_mcstas_NMXData(panel)</title>
<path fill="none" stroke="black" d="M694.18,-647.84C681.68,-605 643.32,-492.45 570.84,-432 544.93,-410.39 509.87,-397.48 479.27,-389.83"/>
<polygon fill="black" stroke="black" points="480.04,-386.42 469.5,-387.52 478.43,-393.23 480.04,-386.42"/>
</g>
<!-- DetectorBankPrefix(panel) -->
<g id="node7" class="node">
<title>DetectorBankPrefix(panel)</title>
<polygon fill="none" stroke="black" points="447.84,-900 245.84,-900 241.84,-896 241.84,-864 443.84,-864 447.84,-868 447.84,-900"/>
<polyline fill="none" stroke="black" points="443.84,-896 241.84,-896 "/>
<polyline fill="none" stroke="black" points="443.84,-896 443.84,-864 "/>
<polyline fill="none" stroke="black" points="443.84,-896 447.84,-900 "/>
<text text-anchor="middle" x="344.84" y="-878.3" font-family="Times,serif" font-size="14.00">DetectorBankPrefix(panel)</text>
</g>
<!-- ess.nmx.mcstas.load.load_event_data_bank_name_DetectorBankPrefix(panel)&#45;&gt;DetectorBankPrefix(panel) -->
<g id="edge6" class="edge">
<title>ess.nmx.mcstas.load.load_event_data_bank_name_DetectorBankPrefix(panel)&#45;&gt;DetectorBankPrefix(panel)</title>
<path fill="none" stroke="black" d="M329.78,-935.7C332.01,-927.9 334.69,-918.51 337.17,-909.83"/>
<polygon fill="black" stroke="black" points="340.57,-910.68 339.95,-900.1 333.84,-908.76 340.57,-910.68"/>
</g>
<!-- DetectorName(panel) -->
<g id="node6" class="node">
<title>DetectorName(panel)</title>
<polygon fill="none" stroke="black" points="220.84,-1044 54.84,-1044 50.84,-1040 50.84,-1008 216.84,-1008 220.84,-1012 220.84,-1044"/>
<polyline fill="none" stroke="black" points="216.84,-1040 50.84,-1040 "/>
<polyline fill="none" stroke="black" points="216.84,-1040 216.84,-1008 "/>
<polyline fill="none" stroke="black" points="216.84,-1040 220.84,-1044 "/>
<text text-anchor="middle" x="135.84" y="-1022.3" font-family="Times,serif" font-size="14.00">DetectorName(panel)</text>
</g>
<!-- DetectorName(panel)&#45;&gt;ess.nmx.mcstas.load.load_event_data_bank_name_DetectorBankPrefix(panel) -->
<g id="edge4" class="edge">
<title>DetectorName(panel)&#45;&gt;ess.nmx.mcstas.load.load_event_data_bank_name_DetectorBankPrefix(panel)</title>
<path fill="none" stroke="black" d="M182.07,-1007.88C209.05,-997.88 243.21,-985.23 271.35,-974.81"/>
<polygon fill="black" stroke="black" points="272.87,-977.98 281.03,-971.23 270.44,-971.42 272.87,-977.98"/>
</g>
<!-- DetectorName(panel)&#45;&gt;ess.nmx.mcstas.load.load_mcstas_NMXData(panel) -->
<g id="edge17" class="edge">
<title>DetectorName(panel)&#45;&gt;ess.nmx.mcstas.load.load_mcstas_NMXData(panel)</title>
<path fill="none" stroke="black" d="M131.99,-1007.61C126.44,-980.94 116.84,-928.27 116.84,-883 116.84,-883 116.84,-883 116.84,-521 116.84,-423.82 248.43,-393.1 335.84,-383.43"/>
<polygon fill="black" stroke="black" points="336.42,-386.88 346,-382.37 335.69,-379.92 336.42,-386.88"/>
</g>
<!-- DetectorName(panel)&#45;&gt;ess.nmx.reduction.bin_time_of_arrival_NMXReducedData(panel) -->
<g id="edge23" class="edge">
<title>DetectorName(panel)&#45;&gt;ess.nmx.reduction.bin_time_of_arrival_NMXReducedData(panel)</title>
<path fill="none" stroke="black" d="M124.03,-1007.96C107.33,-982.16 78.84,-931.08 78.84,-883 78.84,-883 78.84,-883 78.84,-377 78.84,-294.34 334.46,-257.32 480.52,-242.91"/>
<polygon fill="black" stroke="black" points="481.23,-246.36 490.85,-241.91 480.56,-239.39 481.23,-246.36"/>
</g>
<!-- DetectorName(panel)&#45;&gt;ess.nmx.mcstas.load.load_raw_event_data_RawEventData(panel) -->
<g id="edge31" class="edge">
<title>DetectorName(panel)&#45;&gt;ess.nmx.mcstas.load.load_raw_event_data_RawEventData(panel)</title>
<path fill="none" stroke="black" d="M140.68,-1007.89C151.22,-974.08 179.67,-898.96 232.84,-864 261.8,-844.95 297.68,-832.64 330.11,-824.73"/>
<polygon fill="black" stroke="black" points="331.11,-828.09 340.05,-822.41 329.52,-821.27 331.11,-828.09"/>
</g>
<!-- DetectorBankPrefix(panel)&#45;&gt;ess.nmx.mcstas.load.load_raw_event_data_RawEventData(panel) -->
<g id="edge30" class="edge">
<title>DetectorBankPrefix(panel)&#45;&gt;ess.nmx.mcstas.load.load_raw_event_data_RawEventData(panel)</title>
<path fill="none" stroke="black" d="M362.88,-863.7C371.97,-854.99 383.12,-844.29 393,-834.82"/>
<polygon fill="black" stroke="black" points="395.46,-837.31 400.25,-827.86 390.61,-832.26 395.46,-837.31"/>
</g>
<!-- DetectorIndex(panel) -->
<g id="node8" class="node">
<title>DetectorIndex(panel)</title>
<polygon fill="none" stroke="black" points="219.84,-1188 55.84,-1188 51.84,-1184 51.84,-1152 215.84,-1152 219.84,-1156 219.84,-1188"/>
<polyline fill="none" stroke="black" points="215.84,-1184 51.84,-1184 "/>
<polyline fill="none" stroke="black" points="215.84,-1184 215.84,-1152 "/>
<polyline fill="none" stroke="black" points="215.84,-1184 219.84,-1188 "/>
<text text-anchor="middle" x="135.84" y="-1166.3" font-family="Times,serif" font-size="14.00">DetectorIndex(panel)</text>
</g>
<!-- ess.nmx.mcstas.load.detector_name_from_index_DetectorName(panel) -->
<g id="node9" class="node">
<title>ess.nmx.mcstas.load.detector_name_from_index_DetectorName(panel)</title>
<ellipse fill="none" stroke="black" cx="135.84" cy="-1098" rx="135.68" ry="18"/>
<text text-anchor="middle" x="135.84" y="-1094.3" font-family="Times,serif" font-size="14.00">detector_name_from_index</text>
</g>
<!-- DetectorIndex(panel)&#45;&gt;ess.nmx.mcstas.load.detector_name_from_index_DetectorName(panel) -->
<g id="edge7" class="edge">
<title>DetectorIndex(panel)&#45;&gt;ess.nmx.mcstas.load.detector_name_from_index_DetectorName(panel)</title>
<path fill="none" stroke="black" d="M135.84,-1151.7C135.84,-1143.98 135.84,-1134.71 135.84,-1126.11"/>
<polygon fill="black" stroke="black" points="139.34,-1126.1 135.84,-1116.1 132.34,-1126.1 139.34,-1126.1"/>
</g>
<!-- ess.nmx.mcstas.load.detector_name_from_index_DetectorName(panel)&#45;&gt;DetectorName(panel) -->
<g id="edge8" class="edge">
<title>ess.nmx.mcstas.load.detector_name_from_index_DetectorName(panel)&#45;&gt;DetectorName(panel)</title>
<path fill="none" stroke="black" d="M135.84,-1079.7C135.84,-1071.98 135.84,-1062.71 135.84,-1054.11"/>
<polygon fill="black" stroke="black" points="139.34,-1054.1 135.84,-1044.1 132.34,-1054.1 139.34,-1054.1"/>
</g>
<!-- ess.nmx.mcstas.load.event_weights_from_probability_EventData(panel) -->
<g id="node10" class="node">
<title>ess.nmx.mcstas.load.event_weights_from_probability_EventData(panel)</title>
<ellipse fill="none" stroke="black" cx="336.84" cy="-666" rx="159.47" ry="18"/>
<text text-anchor="middle" x="336.84" y="-662.3" font-family="Times,serif" font-size="14.00">event_weights_from_probability</text>
</g>
<!-- EventData(panel) -->
<g id="node13" class="node">
<title>EventData(panel)</title>
<polygon fill="none" stroke="black" points="407.84,-612 269.84,-612 265.84,-608 265.84,-576 403.84,-576 407.84,-580 407.84,-612"/>
<polyline fill="none" stroke="black" points="403.84,-608 265.84,-608 "/>
<polyline fill="none" stroke="black" points="403.84,-608 403.84,-576 "/>
<polyline fill="none" stroke="black" points="403.84,-608 407.84,-612 "/>
<text text-anchor="middle" x="336.84" y="-590.3" font-family="Times,serif" font-size="14.00">EventData(panel)</text>
</g>
<!-- ess.nmx.mcstas.load.event_weights_from_probability_EventData(panel)&#45;&gt;EventData(panel) -->
<g id="edge11" class="edge">
<title>ess.nmx.mcstas.load.event_weights_from_probability_EventData(panel)&#45;&gt;EventData(panel)</title>
<path fill="none" stroke="black" d="M336.84,-647.7C336.84,-639.98 336.84,-630.71 336.84,-622.11"/>
<polygon fill="black" stroke="black" points="340.34,-622.1 336.84,-612.1 333.34,-622.1 340.34,-622.1"/>
</g>
<!-- RawEventData(panel) -->
<g id="node11" class="node">
<title>RawEventData(panel)</title>
<polygon fill="none" stroke="black" points="504.34,-756 335.34,-756 331.34,-752 331.34,-720 500.34,-720 504.34,-724 504.34,-756"/>
<polyline fill="none" stroke="black" points="500.34,-752 331.34,-752 "/>
<polyline fill="none" stroke="black" points="500.34,-752 500.34,-720 "/>
<polyline fill="none" stroke="black" points="500.34,-752 504.34,-756 "/>
<text text-anchor="middle" x="417.84" y="-734.3" font-family="Times,serif" font-size="14.00">RawEventData(panel)</text>
</g>
<!-- RawEventData(panel)&#45;&gt;ess.nmx.mcstas.load.event_weights_from_probability_EventData(panel) -->
<g id="edge9" class="edge">
<title>RawEventData(panel)&#45;&gt;ess.nmx.mcstas.load.event_weights_from_probability_EventData(panel)</title>
<path fill="none" stroke="black" d="M397.82,-719.7C387.71,-710.97 375.3,-700.24 364.32,-690.75"/>
<polygon fill="black" stroke="black" points="366.48,-687.99 356.63,-684.1 361.91,-693.29 366.48,-687.99"/>
</g>
<!-- MaximumProbability -->
<g id="node12" class="node">
<title>MaximumProbability</title>
<polygon fill="none" stroke="black" points="313.34,-756 146.34,-756 146.34,-720 313.34,-720 313.34,-756"/>
<text text-anchor="middle" x="229.84" y="-734.3" font-family="Times,serif" font-size="14.00">MaximumProbability</text>
</g>
<!-- MaximumProbability&#45;&gt;ess.nmx.mcstas.load.event_weights_from_probability_EventData(panel) -->
<g id="edge10" class="edge">
<title>MaximumProbability&#45;&gt;ess.nmx.mcstas.load.event_weights_from_probability_EventData(panel)</title>
<path fill="none" stroke="black" d="M256.01,-719.88C269.98,-710.74 287.34,-699.38 302.38,-689.54"/>
<polygon fill="black" stroke="black" points="304.48,-692.35 310.93,-683.95 300.65,-686.49 304.48,-692.35"/>
</g>
<!-- EventData(panel)&#45;&gt;ess.nmx.mcstas.load.load_mcstas_NMXData(panel) -->
<g id="edge14" class="edge">
<title>EventData(panel)&#45;&gt;ess.nmx.mcstas.load.load_mcstas_NMXData(panel)</title>
<path fill="none" stroke="black" d="M265.82,-581.91C241.39,-574.32 216.52,-561.53 201.84,-540 192.83,-526.78 194.41,-518.17 201.84,-504 232.73,-445.04 304.63,-411.4 355.67,-394.19"/>
<polygon fill="black" stroke="black" points="356.84,-397.49 365.26,-391.06 354.67,-390.83 356.84,-397.49"/>
</g>
<!-- ess.nmx.mcstas.load.proton_charge_from_event_data_ProtonCharge(panel) -->
<g id="node23" class="node">
<title>ess.nmx.mcstas.load.proton_charge_from_event_data_ProtonCharge(panel)</title>
<ellipse fill="none" stroke="black" cx="369.84" cy="-522" rx="159.47" ry="18"/>
<text text-anchor="middle" x="369.84" y="-518.3" font-family="Times,serif" font-size="14.00">proton_charge_from_event_data</text>
</g>
<!-- EventData(panel)&#45;&gt;ess.nmx.mcstas.load.proton_charge_from_event_data_ProtonCharge(panel) -->
<g id="edge27" class="edge">
<title>EventData(panel)&#45;&gt;ess.nmx.mcstas.load.proton_charge_from_event_data_ProtonCharge(panel)</title>
<path fill="none" stroke="black" d="M345,-575.7C348.75,-567.73 353.29,-558.1 357.46,-549.26"/>
<polygon fill="black" stroke="black" points="360.68,-550.64 361.77,-540.1 354.34,-547.66 360.68,-550.64"/>
</g>
<!-- ess.nmx.mcstas.xml.read_mcstas_geometry_xml_McStasInstrument&#45;&gt;McStasInstrument -->
<g id="edge13" class="edge">
<title>ess.nmx.mcstas.xml.read_mcstas_geometry_xml_McStasInstrument&#45;&gt;McStasInstrument</title>
<path fill="none" stroke="black" d="M646.35,-936.05C638.6,-927.58 629.08,-917.17 620.53,-907.82"/>
<polygon fill="black" stroke="black" points="622.96,-905.29 613.63,-900.28 617.8,-910.02 622.96,-905.29"/>
</g>
<!-- NMXData(panel) -->
<g id="node17" class="node">
<title>NMXData(panel)</title>
<polygon fill="none" stroke="black" points="535.84,-324 403.84,-324 399.84,-320 399.84,-288 531.84,-288 535.84,-292 535.84,-324"/>
<polyline fill="none" stroke="black" points="531.84,-320 399.84,-320 "/>
<polyline fill="none" stroke="black" points="531.84,-320 531.84,-288 "/>
<polyline fill="none" stroke="black" points="531.84,-320 535.84,-324 "/>
<text text-anchor="middle" x="467.84" y="-302.3" font-family="Times,serif" font-size="14.00">NMXData(panel)</text>
</g>
<!-- ess.nmx.mcstas.load.load_mcstas_NMXData(panel)&#45;&gt;NMXData(panel) -->
<g id="edge19" class="edge">
<title>ess.nmx.mcstas.load.load_mcstas_NMXData(panel)&#45;&gt;NMXData(panel)</title>
<path fill="none" stroke="black" d="M425.39,-360.05C432.1,-351.67 440.34,-341.38 447.76,-332.1"/>
<polygon fill="black" stroke="black" points="450.5,-334.27 454.02,-324.28 445.04,-329.9 450.5,-334.27"/>
</g>
<!-- ProtonCharge(panel) -->
<g id="node16" class="node">
<title>ProtonCharge(panel)</title>
<polygon fill="none" stroke="black" points="480.84,-468 318.84,-468 314.84,-464 314.84,-432 476.84,-432 480.84,-436 480.84,-468"/>
<polyline fill="none" stroke="black" points="476.84,-464 314.84,-464 "/>
<polyline fill="none" stroke="black" points="476.84,-464 476.84,-432 "/>
<polyline fill="none" stroke="black" points="476.84,-464 480.84,-468 "/>
<text text-anchor="middle" x="397.84" y="-446.3" font-family="Times,serif" font-size="14.00">ProtonCharge(panel)</text>
</g>
<!-- ProtonCharge(panel)&#45;&gt;ess.nmx.mcstas.load.load_mcstas_NMXData(panel) -->
<g id="edge15" class="edge">
<title>ProtonCharge(panel)&#45;&gt;ess.nmx.mcstas.load.load_mcstas_NMXData(panel)</title>
<path fill="none" stroke="black" d="M401.3,-431.7C402.84,-423.98 404.7,-414.71 406.42,-406.11"/>
<polygon fill="black" stroke="black" points="409.89,-406.6 408.42,-396.1 403.02,-405.22 409.89,-406.6"/>
</g>
<!-- NMXData(panel)&#45;&gt;ess.nmx.reduction.bin_time_of_arrival_NMXReducedData(panel) -->
<g id="edge22" class="edge">
<title>NMXData(panel)&#45;&gt;ess.nmx.reduction.bin_time_of_arrival_NMXReducedData(panel)</title>
<path fill="none" stroke="black" d="M495.24,-287.88C510.21,-278.52 528.91,-266.83 544.92,-256.83"/>
<polygon fill="black" stroke="black" points="546.87,-259.73 553.49,-251.47 543.16,-253.8 546.87,-259.73"/>
</g>
<!-- ess.nmx.reduction.merge_panels_NMXReducedData -->
<g id="node18" class="node">
<title>ess.nmx.reduction.merge_panels_NMXReducedData</title>
<ellipse fill="none" stroke="black" cx="579.84" cy="-90" rx="75.29" ry="18"/>
<text text-anchor="middle" x="579.84" y="-86.3" font-family="Times,serif" font-size="14.00">merge_panels</text>
</g>
<!-- NMXReducedData -->
<g id="node20" class="node">
<title>NMXReducedData</title>
<polygon fill="none" stroke="black" points="653.84,-36 505.84,-36 505.84,0 653.84,0 653.84,-36"/>
<text text-anchor="middle" x="579.84" y="-14.3" font-family="Times,serif" font-size="14.00">NMXReducedData</text>
</g>
<!-- ess.nmx.reduction.merge_panels_NMXReducedData&#45;&gt;NMXReducedData -->
<g id="edge21" class="edge">
<title>ess.nmx.reduction.merge_panels_NMXReducedData&#45;&gt;NMXReducedData</title>
<path fill="none" stroke="black" d="M579.84,-71.7C579.84,-63.98 579.84,-54.71 579.84,-46.11"/>
<polygon fill="black" stroke="black" points="583.34,-46.1 579.84,-36.1 576.34,-46.1 583.34,-46.1"/>
</g>
<!-- NMXReducedData(panel) -->
<g id="node19" class="node">
<title>NMXReducedData(panel)</title>
<polygon fill="none" stroke="black" points="678.34,-180 485.34,-180 481.34,-176 481.34,-144 674.34,-144 678.34,-148 678.34,-180"/>
<polyline fill="none" stroke="black" points="674.34,-176 481.34,-176 "/>
<polyline fill="none" stroke="black" points="674.34,-176 674.34,-144 "/>
<polyline fill="none" stroke="black" points="674.34,-176 678.34,-180 "/>
<text text-anchor="middle" x="579.84" y="-158.3" font-family="Times,serif" font-size="14.00">NMXReducedData(panel)</text>
</g>
<!-- NMXReducedData(panel)&#45;&gt;ess.nmx.reduction.merge_panels_NMXReducedData -->
<g id="edge20" class="edge">
<title>NMXReducedData(panel)&#45;&gt;ess.nmx.reduction.merge_panels_NMXReducedData</title>
<path fill="none" stroke="black" d="M579.84,-143.7C579.84,-135.98 579.84,-126.71 579.84,-118.11"/>
<polygon fill="black" stroke="black" points="583.34,-118.1 579.84,-108.1 576.34,-118.1 583.34,-118.1"/>
</g>
<!-- ess.nmx.reduction.bin_time_of_arrival_NMXReducedData(panel)&#45;&gt;NMXReducedData(panel) -->
<g id="edge26" class="edge">
<title>ess.nmx.reduction.bin_time_of_arrival_NMXReducedData(panel)&#45;&gt;NMXReducedData(panel)</title>
<path fill="none" stroke="black" d="M579.84,-215.7C579.84,-207.98 579.84,-198.71 579.84,-190.11"/>
<polygon fill="black" stroke="black" points="583.34,-190.1 579.84,-180.1 576.34,-190.1 583.34,-190.1"/>
</g>
<!-- TimeBinSteps -->
<g id="node22" class="node">
<title>TimeBinSteps</title>
<polygon fill="none" stroke="black" points="738.84,-324 622.84,-324 622.84,-288 738.84,-288 738.84,-324"/>
<text text-anchor="middle" x="680.84" y="-302.3" font-family="Times,serif" font-size="14.00">TimeBinSteps</text>
</g>
<!-- TimeBinSteps&#45;&gt;ess.nmx.reduction.bin_time_of_arrival_NMXReducedData(panel) -->
<g id="edge25" class="edge">
<title>TimeBinSteps&#45;&gt;ess.nmx.reduction.bin_time_of_arrival_NMXReducedData(panel)</title>
<path fill="none" stroke="black" d="M656.13,-287.88C642.98,-278.76 626.63,-267.43 612.45,-257.6"/>
<polygon fill="black" stroke="black" points="614.15,-254.53 603.94,-251.71 610.17,-260.28 614.15,-254.53"/>
</g>
<!-- ess.nmx.mcstas.load.proton_charge_from_event_data_ProtonCharge(panel)&#45;&gt;ProtonCharge(panel) -->
<g id="edge28" class="edge">
<title>ess.nmx.mcstas.load.proton_charge_from_event_data_ProtonCharge(panel)&#45;&gt;ProtonCharge(panel)</title>
<path fill="none" stroke="black" d="M376.76,-503.7C379.91,-495.81 383.72,-486.3 387.22,-477.55"/>
<polygon fill="black" stroke="black" points="390.53,-478.69 391,-468.1 384.03,-476.09 390.53,-478.69"/>
</g>
<!-- ess.nmx.mcstas.load.load_raw_event_data_RawEventData(panel)&#45;&gt;RawEventData(panel) -->
<g id="edge33" class="edge">
<title>ess.nmx.mcstas.load.load_raw_event_data_RawEventData(panel)&#45;&gt;RawEventData(panel)</title>
<path fill="none" stroke="black" d="M417.84,-791.7C417.84,-783.98 417.84,-774.71 417.84,-766.11"/>
<polygon fill="black" stroke="black" points="421.34,-766.1 417.84,-756.1 414.34,-766.1 421.34,-766.1"/>
</g>
</g>
</svg>
