<?xml version="1.0" encoding="UTF-8" standalone="no"?>
<!DOCTYPE svg PUBLIC "-//W3C//DTD SVG 1.1//EN"
 "http://www.w3.org/Graphics/SVG/1.1/DTD/svg11.dtd">
<!-- Generated by graphviz version 2.43.0 (0)
 -->
<!-- Title: %3 Pages: 1 -->
<svg width="563pt" height="376pt"
 viewBox="0.00 0.00 563.00 376.00" xmlns="http://www.w3.org/2000/svg" xmlns:xlink="http://www.w3.org/1999/xlink">
<g id="graph0" class="graph" transform="scale(1 1) rotate(0) translate(4 372)">
<title>%3</title>
<polygon fill="white" stroke="transparent" points="-4,4 -4,-372 559,-372 559,4 -4,4"/>
<!-- DetectorName -->
<g id="node1" class="node">
<title>DetectorName</title>
<polygon fill="none" stroke="black" points="451.5,-309 263.5,-309 263.5,-276 451.5,-276 451.5,-309"/>
<text text-anchor="start" x="305" y="-294.8" font-family="Times,serif" font-size="14.00">DetectorName</text>
<text text-anchor="start" x="271.5" y="-283.2" font-family="Times,serif" font-size="11.00">via:</text>
<text text-anchor="start" x="292.5" y="-283.2" font-family="Times,serif" font-style="italic" font-size="11.00">detector_name_from_index</text>
</g>
<!-- DetectorBankPrefix -->
<g id="node2" class="node">
<title>DetectorBankPrefix</title>
<polygon fill="none" stroke="black" points="366.5,-240 170.5,-240 170.5,-207 366.5,-207 366.5,-240"/>
<text text-anchor="start" x="198" y="-225.8" font-family="Times,serif" font-size="14.00">DetectorBankPrefix</text>
<text text-anchor="start" x="178.5" y="-214.2" font-family="Times,serif" font-size="11.00">via:</text>
<text text-anchor="start" x="199.5" y="-214.2" font-family="Times,serif" font-style="italic" font-size="11.00">load_event_data_bank_name</text>
</g>
<!-- DetectorName&#45;&gt;DetectorBankPrefix -->
<g id="edge1" class="edge">
<title>DetectorName&#45;&gt;DetectorBankPrefix</title>
<path fill="none" stroke="black" d="M336.86,-275.96C325.15,-267.14 310.31,-255.97 297.45,-246.29"/>
<polygon fill="black" stroke="black" points="299.43,-243.41 289.34,-240.19 295.22,-249 299.43,-243.41"/>
</g>
<!-- RawEventProbability -->
<g id="node5" class="node">
<title>RawEventProbability</title>
<polygon fill="none" stroke="black" points="352.5,-171 184.5,-171 184.5,-138 352.5,-138 352.5,-171"/>
<text text-anchor="start" x="192.5" y="-156.8" font-family="Times,serif" font-size="14.00">RawEventProbability</text>
<text text-anchor="start" x="199" y="-145.2" font-family="Times,serif" font-size="11.00">via:</text>
<text text-anchor="start" x="220" y="-145.2" font-family="Times,serif" font-style="italic" font-size="11.00">load_raw_event_data</text>
</g>
<!-- DetectorName&#45;&gt;RawEventProbability -->
<g id="edge11" class="edge">
<title>DetectorName&#45;&gt;RawEventProbability</title>
<path fill="none" stroke="black" d="M365.39,-275.93C373.27,-257.98 382.5,-228.23 369.5,-207 361.15,-193.37 347.93,-183.2 333.78,-175.68"/>
<polygon fill="black" stroke="black" points="334.91,-172.33 324.38,-171.1 331.84,-178.63 334.91,-172.33"/>
</g>
<!-- DetectorBankPrefix&#45;&gt;RawEventProbability -->
<g id="edge12" class="edge">
<title>DetectorBankPrefix&#45;&gt;RawEventProbability</title>
<path fill="none" stroke="black" d="M268.5,-206.96C268.5,-199.38 268.5,-190.05 268.5,-181.42"/>
<polygon fill="black" stroke="black" points="272,-181.42 268.5,-171.42 265,-181.42 272,-181.42"/>
</g>
<!-- FilePath -->
<g id="node3" class="node">
<title>FilePath</title>
<polygon fill="none" stroke="black" points="236.5,-304 160.5,-304 160.5,-281 236.5,-281 236.5,-304"/>
<text text-anchor="middle" x="198.5" y="-288.8" font-family="Times,serif" font-size="14.00">FilePath</text>
</g>
<!-- FilePath&#45;&gt;DetectorBankPrefix -->
<g id="edge2" class="edge">
<title>FilePath&#45;&gt;DetectorBankPrefix</title>
<path fill="none" stroke="black" d="M209.75,-280.74C219.13,-271.75 232.83,-258.64 244.64,-247.34"/>
<polygon fill="black" stroke="black" points="247.26,-249.68 252.06,-240.23 242.42,-244.62 247.26,-249.68"/>
</g>
<!-- FilePath&#45;&gt;RawEventProbability -->
<g id="edge10" class="edge">
<title>FilePath&#45;&gt;RawEventProbability</title>
<path fill="none" stroke="black" d="M188.73,-280.75C174.82,-264.09 152.56,-231.38 167.5,-207 175.85,-193.37 189.07,-183.2 203.22,-175.68"/>
<polygon fill="black" stroke="black" points="205.16,-178.63 212.62,-171.1 202.09,-172.33 205.16,-178.63"/>
</g>
<!-- DetectorIndex -->
<g id="node4" class="node">
<title>DetectorIndex</title>
<polygon fill="none" stroke="red" stroke-dasharray="5,2" points="417,-368 298,-368 298,-345 417,-345 417,-368"/>
<text text-anchor="middle" x="357.5" y="-352.8" font-family="Times,serif" font-size="14.00" fill="red">DetectorIndex</text>
</g>
<!-- DetectorIndex&#45;&gt;DetectorName -->
<g id="edge3" class="edge">
<title>DetectorIndex&#45;&gt;DetectorName</title>
<path fill="none" stroke="black" d="M357.5,-344.98C357.5,-337.93 357.5,-328.32 357.5,-319.31"/>
<polygon fill="black" stroke="black" points="361,-319.2 357.5,-309.2 354,-319.2 361,-319.2"/>
</g>
<!-- MaximumProbability -->
<g id="node6" class="node">
<title>MaximumProbability</title>
<polygon fill="none" stroke="black" points="167,-102 0,-102 0,-69 167,-69 167,-102"/>
<text text-anchor="start" x="8" y="-87.8" font-family="Times,serif" font-size="14.00">MaximumProbability</text>
<text text-anchor="start" x="12.5" y="-76.2" font-family="Times,serif" font-size="11.00">via:</text>
<text text-anchor="start" x="33.5" y="-76.2" font-family="Times,serif" font-style="italic" font-size="11.00">maximum_probability</text>
</g>
<!-- RawEventProbability&#45;&gt;MaximumProbability -->
<g id="edge4" class="edge">
<title>RawEventProbability&#45;&gt;MaximumProbability</title>
<path fill="none" stroke="black" d="M225.59,-137.96C198.95,-128.31 164.52,-115.84 136.23,-105.6"/>
<polygon fill="black" stroke="black" points="137.09,-102.19 126.5,-102.07 134.71,-108.77 137.09,-102.19"/>
</g>
<!-- MaximumTimeOfArrival -->
<g id="node7" class="node">
<title>MaximumTimeOfArrival</title>
<polygon fill="none" stroke="black" points="362.5,-102 174.5,-102 174.5,-69 362.5,-69 362.5,-102"/>
<text text-anchor="start" x="182.5" y="-87.8" font-family="Times,serif" font-size="14.00">MaximumTimeOfArrival</text>
<text text-anchor="start" x="190.5" y="-76.2" font-family="Times,serif" font-size="11.00">via:</text>
<text text-anchor="start" x="211.5" y="-76.2" font-family="Times,serif" font-style="italic" font-size="11.00">calculate_maximum_toa</text>
</g>
<!-- RawEventProbability&#45;&gt;MaximumTimeOfArrival -->
<g id="edge5" class="edge">
<title>RawEventProbability&#45;&gt;MaximumTimeOfArrival</title>
<path fill="none" stroke="black" d="M268.5,-137.96C268.5,-130.38 268.5,-121.05 268.5,-112.42"/>
<polygon fill="black" stroke="black" points="272,-112.42 268.5,-102.42 265,-112.42 272,-112.42"/>
</g>
<!-- MinimumTimeOfArrival -->
<g id="node8" class="node">
<title>MinimumTimeOfArrival</title>
<polygon fill="none" stroke="black" points="555,-102 370,-102 370,-69 555,-69 555,-102"/>
<text text-anchor="start" x="378" y="-87.8" font-family="Times,serif" font-size="14.00">MinimumTimeOfArrival</text>
<text text-anchor="start" x="385.5" y="-76.2" font-family="Times,serif" font-size="11.00">via:</text>
<text text-anchor="start" x="406.5" y="-76.2" font-family="Times,serif" font-style="italic" font-size="11.00">calculate_minimum_toa</text>
</g>
<!-- RawEventProbability&#45;&gt;MinimumTimeOfArrival -->
<g id="edge6" class="edge">
<title>RawEventProbability&#45;&gt;MinimumTimeOfArrival</title>
<path fill="none" stroke="black" d="M313.5,-137.96C341.55,-128.27 377.85,-115.73 407.6,-105.46"/>
<polygon fill="black" stroke="black" points="409.1,-108.64 417.41,-102.07 406.82,-102.03 409.1,-108.64"/>
</g>
<!-- NMXRawDataMetadata -->
<g id="node9" class="node">
<title>NMXRawDataMetadata</title>
<polygon fill="none" stroke="black" points="367.5,-33 169.5,-33 169.5,0 367.5,0 367.5,-33"/>
<text text-anchor="start" x="184" y="-18.8" font-family="Times,serif" font-size="14.00">NMXRawDataMetadata</text>
<text text-anchor="start" x="177.5" y="-7.2" font-family="Times,serif" font-size="11.00">via:</text>
<text text-anchor="start" x="198.5" y="-7.2" font-family="Times,serif" font-style="italic" font-size="11.00">retrieve_raw_data_metadata</text>
</g>
<!-- MaximumProbability&#45;&gt;NMXRawDataMetadata -->
<g id="edge9" class="edge">
<title>MaximumProbability&#45;&gt;NMXRawDataMetadata</title>
<path fill="none" stroke="black" d="M126.41,-68.96C153.05,-59.31 187.48,-46.84 215.77,-36.6"/>
<polygon fill="black" stroke="black" points="217.29,-39.77 225.5,-33.07 214.91,-33.19 217.29,-39.77"/>
</g>
<!-- MaximumTimeOfArrival&#45;&gt;NMXRawDataMetadata -->
<g id="edge8" class="edge">
<title>MaximumTimeOfArrival&#45;&gt;NMXRawDataMetadata</title>
<path fill="none" stroke="black" d="M268.5,-68.96C268.5,-61.38 268.5,-52.05 268.5,-43.42"/>
<polygon fill="black" stroke="black" points="272,-43.42 268.5,-33.42 265,-43.42 272,-43.42"/>
</g>
<!-- MinimumTimeOfArrival&#45;&gt;NMXRawDataMetadata -->
<g id="edge7" class="edge">
<title>MinimumTimeOfArrival&#45;&gt;NMXRawDataMetadata</title>
<path fill="none" stroke="black" d="M417.5,-68.96C389.45,-59.27 353.15,-46.73 323.4,-36.46"/>
<polygon fill="black" stroke="black" points="324.18,-33.03 313.59,-33.07 321.9,-39.64 324.18,-33.03"/>
</g>
</g>
</svg>
