<?xml version="1.0" encoding="UTF-8" standalone="no"?>
<!DOCTYPE svg PUBLIC "-//W3C//DTD SVG 1.1//EN"
 "http://www.w3.org/Graphics/SVG/1.1/DTD/svg11.dtd">
<!-- Generated by graphviz version 2.43.0 (0)
 -->
<!-- Title: %3 Pages: 1 -->
<svg width="866pt" height="583pt"
 viewBox="0.00 0.00 866.00 583.00" xmlns="http://www.w3.org/2000/svg" xmlns:xlink="http://www.w3.org/1999/xlink">
<g id="graph0" class="graph" transform="scale(1 1) rotate(0) translate(4 579)">
<title>%3</title>
<polygon fill="white" stroke="transparent" points="-4,4 -4,-579 862,-579 862,4 -4,4"/>
<!-- FilePath -->
<g id="node1" class="node">
<title>FilePath</title>
<polygon fill="none" stroke="black" points="369.5,-511 293.5,-511 293.5,-488 369.5,-488 369.5,-511"/>
<text text-anchor="middle" x="331.5" y="-495.8" font-family="Times,serif" font-size="14.00">FilePath</text>
</g>
<!-- CrystalRotation -->
<g id="node2" class="node">
<title>CrystalRotation</title>
<polygon fill="none" stroke="black" points="155,-378 0,-378 0,-345 155,-345 155,-378"/>
<text text-anchor="start" x="21" y="-363.8" font-family="Times,serif" font-size="14.00">CrystalRotation</text>
<text text-anchor="start" x="8" y="-352.2" font-family="Times,serif" font-size="11.00">via:</text>
<text text-anchor="start" x="29" y="-352.2" font-family="Times,serif" font-style="italic" font-size="11.00">load_crystal_rotation</text>
</g>
<!-- FilePath&#45;&gt;CrystalRotation -->
<g id="edge1" class="edge">
<title>FilePath&#45;&gt;CrystalRotation</title>
<path fill="none" stroke="black" d="M293.16,-494.56C253.9,-489.04 192.43,-476.18 147.5,-447 123.78,-431.59 104.02,-405.63 91.62,-386.54"/>
<polygon fill="black" stroke="black" points="94.57,-384.67 86.29,-378.06 88.64,-388.39 94.57,-384.67"/>
</g>
<!-- McStasInstrument -->
<g id="node3" class="node">
<title>McStasInstrument</title>
<polygon fill="none" stroke="black" points="343.5,-447 151.5,-447 151.5,-414 343.5,-414 343.5,-447"/>
<text text-anchor="start" x="180.5" y="-432.8" font-family="Times,serif" font-size="14.00">McStasInstrument</text>
<text text-anchor="start" x="159.5" y="-421.2" font-family="Times,serif" font-size="11.00">via:</text>
<text text-anchor="start" x="180.5" y="-421.2" font-family="Times,serif" font-style="italic" font-size="11.00">read_mcstas_geometry_xml</text>
</g>
<!-- FilePath&#45;&gt;McStasInstrument -->
<g id="edge7" class="edge">
<title>FilePath&#45;&gt;McStasInstrument</title>
<path fill="none" stroke="black" d="M318,-487.74C306.53,-478.58 289.68,-465.14 275.33,-453.7"/>
<polygon fill="black" stroke="black" points="277.23,-450.73 267.23,-447.23 272.86,-456.21 277.23,-450.73"/>
</g>
<!-- DetectorBankPrefix -->
<g id="node5" class="node">
<title>DetectorBankPrefix</title>
<polygon fill="none" stroke="black" points="576.5,-447 380.5,-447 380.5,-414 576.5,-414 576.5,-447"/>
<text text-anchor="start" x="408" y="-432.8" font-family="Times,serif" font-size="14.00">DetectorBankPrefix</text>
<text text-anchor="start" x="388.5" y="-421.2" font-family="Times,serif" font-size="11.00">via:</text>
<text text-anchor="start" x="409.5" y="-421.2" font-family="Times,serif" font-style="italic" font-size="11.00">load_event_data_bank_name</text>
</g>
<!-- FilePath&#45;&gt;DetectorBankPrefix -->
<g id="edge4" class="edge">
<title>FilePath&#45;&gt;DetectorBankPrefix</title>
<path fill="none" stroke="black" d="M354.79,-487.88C376.28,-478.09 408.73,-463.3 435.01,-451.32"/>
<polygon fill="black" stroke="black" points="436.73,-454.39 444.38,-447.05 433.82,-448.02 436.73,-454.39"/>
</g>
<!-- RawEventProbability -->
<g id="node8" class="node">
<title>RawEventProbability</title>
<polygon fill="none" stroke="black" points="803.5,-378 635.5,-378 635.5,-345 803.5,-345 803.5,-378"/>
<text text-anchor="start" x="643.5" y="-363.8" font-family="Times,serif" font-size="14.00">RawEventProbability</text>
<text text-anchor="start" x="650" y="-352.2" font-family="Times,serif" font-size="11.00">via:</text>
<text text-anchor="start" x="671" y="-352.2" font-family="Times,serif" font-style="italic" font-size="11.00">load_raw_event_data</text>
</g>
<!-- FilePath&#45;&gt;RawEventProbability -->
<g id="edge26" class="edge">
<title>FilePath&#45;&gt;RawEventProbability</title>
<path fill="none" stroke="black" d="M333.97,-487.86C338.85,-469.48 351.56,-431.99 377.5,-414 468.44,-350.91 516.06,-393.24 625.15,-378.87"/>
<polygon fill="black" stroke="black" points="625.81,-382.31 635.2,-377.41 624.8,-375.38 625.81,-382.31"/>
</g>
<!-- NMXExperimentMetadata -->
<g id="node12" class="node">
<title>NMXExperimentMetadata</title>
<polygon fill="none" stroke="black" points="269,-309 64,-309 64,-276 269,-276 269,-309"/>
<text text-anchor="start" x="72" y="-294.8" font-family="Times,serif" font-size="14.00">NMXExperimentMetadata</text>
<text text-anchor="start" x="80" y="-283.2" font-family="Times,serif" font-size="11.00">via:</text>
<text text-anchor="start" x="101" y="-283.2" font-family="Times,serif" font-style="italic" font-size="11.00">load_experiment_metadata</text>
</g>
<!-- CrystalRotation&#45;&gt;NMXExperimentMetadata -->
<g id="edge13" class="edge">
<title>CrystalRotation&#45;&gt;NMXExperimentMetadata</title>
<path fill="none" stroke="black" d="M98.14,-344.96C109.85,-336.14 124.69,-324.97 137.55,-315.29"/>
<polygon fill="black" stroke="black" points="139.78,-318 145.66,-309.19 135.57,-312.41 139.78,-318"/>
</g>
<!-- McStasInstrument&#45;&gt;CrystalRotation -->
<g id="edge2" class="edge">
<title>McStasInstrument&#45;&gt;CrystalRotation</title>
<path fill="none" stroke="black" d="M208.07,-413.96C183.81,-404.4 152.5,-392.06 126.63,-381.86"/>
<polygon fill="black" stroke="black" points="127.6,-378.48 117.01,-378.07 125.03,-384.99 127.6,-378.48"/>
</g>
<!-- NMXDetectorMetadata -->
<g id="node11" class="node">
<title>NMXDetectorMetadata</title>
<polygon fill="none" stroke="black" points="361,-378 178,-378 178,-345 361,-345 361,-378"/>
<text text-anchor="start" x="186" y="-363.8" font-family="Times,serif" font-size="14.00">NMXDetectorMetadata</text>
<text text-anchor="start" x="191" y="-352.2" font-family="Times,serif" font-size="11.00">via:</text>
<text text-anchor="start" x="212" y="-352.2" font-family="Times,serif" font-style="italic" font-size="11.00">load_detector_metadata</text>
</g>
<!-- McStasInstrument&#45;&gt;NMXDetectorMetadata -->
<g id="edge10" class="edge">
<title>McStasInstrument&#45;&gt;NMXDetectorMetadata</title>
<path fill="none" stroke="black" d="M252.6,-413.96C255.12,-406.29 258.22,-396.84 261.08,-388.14"/>
<polygon fill="black" stroke="black" points="264.48,-389.01 264.27,-378.42 257.83,-386.83 264.48,-389.01"/>
</g>
<!-- McStasInstrument&#45;&gt;NMXExperimentMetadata -->
<g id="edge12" class="edge">
<title>McStasInstrument&#45;&gt;NMXExperimentMetadata</title>
<path fill="none" stroke="black" d="M213.6,-413.88C199.09,-405.39 183.45,-393.43 174.5,-378 164.28,-360.37 162.77,-337.13 163.54,-319.48"/>
<polygon fill="black" stroke="black" points="167.04,-319.54 164.25,-309.32 160.06,-319.05 167.04,-319.54"/>
</g>
<!-- PixelIds -->
<g id="node17" class="node">
<title>PixelIds</title>
<polygon fill="none" stroke="black" points="505,-378 368,-378 368,-345 505,-345 505,-378"/>
<text text-anchor="start" x="407.5" y="-363.8" font-family="Times,serif" font-size="14.00">PixelIds</text>
<text text-anchor="start" x="376" y="-352.2" font-family="Times,serif" font-size="11.00">via:</text>
<text text-anchor="start" x="397" y="-352.2" font-family="Times,serif" font-style="italic" font-size="11.00">retrieve_pixel_ids</text>
</g>
<!-- McStasInstrument&#45;&gt;PixelIds -->
<g id="edge23" class="edge">
<title>McStasInstrument&#45;&gt;PixelIds</title>
<path fill="none" stroke="black" d="M291.34,-413.96C318.67,-404.27 354.03,-391.73 383.01,-381.46"/>
<polygon fill="black" stroke="black" points="384.32,-384.71 392.58,-378.07 381.98,-378.11 384.32,-384.71"/>
</g>
<!-- DetectorName -->
<g id="node4" class="node">
<title>DetectorName</title>
<polygon fill="none" stroke="black" points="610.5,-516 422.5,-516 422.5,-483 610.5,-483 610.5,-516"/>
<text text-anchor="start" x="464" y="-501.8" font-family="Times,serif" font-size="14.00">DetectorName</text>
<text text-anchor="start" x="430.5" y="-490.2" font-family="Times,serif" font-size="11.00">via:</text>
<text text-anchor="start" x="451.5" y="-490.2" font-family="Times,serif" font-style="italic" font-size="11.00">detector_name_from_index</text>
</g>
<!-- DetectorName&#45;&gt;DetectorBankPrefix -->
<g id="edge3" class="edge">
<title>DetectorName&#45;&gt;DetectorBankPrefix</title>
<path fill="none" stroke="black" d="M507.69,-482.96C503.2,-475.04 497.63,-465.22 492.56,-456.29"/>
<polygon fill="black" stroke="black" points="495.51,-454.39 487.53,-447.42 489.42,-457.85 495.51,-454.39"/>
</g>
<!-- DetectorName&#45;&gt;RawEventProbability -->
<g id="edge27" class="edge">
<title>DetectorName&#45;&gt;RawEventProbability</title>
<path fill="none" stroke="black" d="M539.79,-482.9C576.17,-458.52 646.58,-411.35 687.63,-383.85"/>
<polygon fill="black" stroke="black" points="689.81,-386.6 696.17,-378.13 685.92,-380.79 689.81,-386.6"/>
</g>
<!-- DetectorName&#45;&gt;NMXDetectorMetadata -->
<g id="edge11" class="edge">
<title>DetectorName&#45;&gt;NMXDetectorMetadata</title>
<path fill="none" stroke="black" d="M456.49,-482.96C430.86,-474.68 401.41,-462.86 377.5,-447 360.73,-435.88 361.85,-427.01 346.5,-414 333.52,-403 318.11,-392.29 304.5,-383.52"/>
<polygon fill="black" stroke="black" points="306.18,-380.44 295.86,-378.04 302.44,-386.35 306.18,-380.44"/>
</g>
<!-- DetectorName&#45;&gt;PixelIds -->
<g id="edge24" class="edge">
<title>DetectorName&#45;&gt;PixelIds</title>
<path fill="none" stroke="black" d="M545.46,-482.87C558.42,-474.18 572.36,-462.06 579.5,-447 585.78,-433.75 587.93,-426 579.5,-414 570.81,-401.63 541.24,-390.01 511.23,-380.96"/>
<polygon fill="black" stroke="black" points="512.08,-377.56 501.5,-378.11 510.11,-384.28 512.08,-377.56"/>
</g>
<!-- DetectorBankPrefix&#45;&gt;RawEventProbability -->
<g id="edge28" class="edge">
<title>DetectorBankPrefix&#45;&gt;RawEventProbability</title>
<path fill="none" stroke="black" d="M534.4,-413.96C570.01,-404.06 616.31,-391.19 653.7,-380.79"/>
<polygon fill="black" stroke="black" points="654.79,-384.12 663.49,-378.07 652.92,-377.38 654.79,-384.12"/>
</g>
<!-- DetectorIndex -->
<g id="node6" class="node">
<title>DetectorIndex</title>
<polygon fill="none" stroke="red" stroke-dasharray="5,2" points="576,-575 457,-575 457,-552 576,-552 576,-575"/>
<text text-anchor="middle" x="516.5" y="-559.8" font-family="Times,serif" font-size="14.00" fill="red">DetectorIndex</text>
</g>
<!-- DetectorIndex&#45;&gt;DetectorName -->
<g id="edge5" class="edge">
<title>DetectorIndex&#45;&gt;DetectorName</title>
<path fill="none" stroke="black" d="M516.5,-551.98C516.5,-544.93 516.5,-535.32 516.5,-526.31"/>
<polygon fill="black" stroke="black" points="520,-526.2 516.5,-516.2 513,-526.2 520,-526.2"/>
</g>
<!-- MaximumCounts -->
<g id="node7" class="node">
<title>MaximumCounts</title>
<polygon fill="none" stroke="black" points="683.5,-304 545.5,-304 545.5,-281 683.5,-281 683.5,-304"/>
<text text-anchor="middle" x="614.5" y="-288.8" font-family="Times,serif" font-size="14.00">MaximumCounts</text>
</g>
<!-- McStasWeight2CountScaleFactor -->
<g id="node10" class="node">
<title>McStasWeight2CountScaleFactor</title>
<polygon fill="none" stroke="black" points="750,-240 479,-240 479,-207 750,-207 750,-240"/>
<text text-anchor="start" x="494.5" y="-225.8" font-family="Times,serif" font-size="14.00">McStasWeight2CountScaleFactor</text>
<text text-anchor="start" x="487" y="-214.2" font-family="Times,serif" font-size="11.00">via:</text>
<text text-anchor="start" x="508" y="-214.2" font-family="Times,serif" font-style="italic" font-size="11.00">mcstas_weight_to_probability_scalefactor</text>
</g>
<!-- MaximumCounts&#45;&gt;McStasWeight2CountScaleFactor -->
<g id="edge8" class="edge">
<title>MaximumCounts&#45;&gt;McStasWeight2CountScaleFactor</title>
<path fill="none" stroke="black" d="M614.5,-280.74C614.5,-272.52 614.5,-260.86 614.5,-250.28"/>
<polygon fill="black" stroke="black" points="618,-250.23 614.5,-240.23 611,-250.24 618,-250.23"/>
</g>
<!-- MaximumProbability -->
<g id="node9" class="node">
<title>MaximumProbability</title>
<polygon fill="none" stroke="black" points="858,-309 691,-309 691,-276 858,-276 858,-309"/>
<text text-anchor="start" x="699" y="-294.8" font-family="Times,serif" font-size="14.00">MaximumProbability</text>
<text text-anchor="start" x="703.5" y="-283.2" font-family="Times,serif" font-size="11.00">via:</text>
<text text-anchor="start" x="724.5" y="-283.2" font-family="Times,serif" font-style="italic" font-size="11.00">maximum_probability</text>
</g>
<!-- RawEventProbability&#45;&gt;MaximumProbability -->
<g id="edge6" class="edge">
<title>RawEventProbability&#45;&gt;MaximumProbability</title>
<path fill="none" stroke="black" d="M732.26,-344.96C739.03,-336.71 747.5,-326.39 755.07,-317.17"/>
<polygon fill="black" stroke="black" points="757.79,-319.37 761.43,-309.42 752.38,-314.93 757.79,-319.37"/>
</g>
<!-- NMXReducedProbability -->
<g id="node13" class="node">
<title>NMXReducedProbability</title>
<polygon fill="none" stroke="black" points="538,-309 333,-309 333,-276 538,-276 538,-309"/>
<text text-anchor="start" x="347" y="-294.8" font-family="Times,serif" font-size="14.00">NMXReducedProbability</text>
<text text-anchor="start" x="341" y="-283.2" font-family="Times,serif" font-size="11.00">via:</text>
<text text-anchor="start" x="362" y="-283.2" font-family="Times,serif" font-style="italic" font-size="11.00">reduce_raw_event_probability</text>
</g>
<!-- RawEventProbability&#45;&gt;NMXReducedProbability -->
<g id="edge20" class="edge">
<title>RawEventProbability&#45;&gt;NMXReducedProbability</title>
<path fill="none" stroke="black" d="M653.63,-344.96C611.13,-334.93 555.71,-321.86 511.36,-311.4"/>
<polygon fill="black" stroke="black" points="512.04,-307.96 501.5,-309.07 510.43,-314.77 512.04,-307.96"/>
</g>
<!-- MaximumProbability&#45;&gt;McStasWeight2CountScaleFactor -->
<g id="edge9" class="edge">
<title>MaximumProbability&#45;&gt;McStasWeight2CountScaleFactor</title>
<path fill="none" stroke="black" d="M737.39,-275.96C714.65,-266.44 685.35,-254.17 661.06,-244"/>
<polygon fill="black" stroke="black" points="662.26,-240.71 651.68,-240.07 659.56,-247.16 662.26,-240.71"/>
</g>
<!-- NMXReducedCounts -->
<g id="node14" class="node">
<title>NMXReducedCounts</title>
<polygon fill="none" stroke="black" points="540.5,-171 320.5,-171 320.5,-138 540.5,-138 540.5,-171"/>
<text text-anchor="start" x="356.5" y="-156.8" font-family="Times,serif" font-size="14.00">NMXReducedCounts</text>
<text text-anchor="start" x="328.5" y="-145.2" font-family="Times,serif" font-size="11.00">via:</text>
<text text-anchor="start" x="349.5" y="-145.2" font-family="Times,serif" font-style="italic" font-size="11.00">raw_event_probability_to_counts</text>
</g>
<!-- McStasWeight2CountScaleFactor&#45;&gt;NMXReducedCounts -->
<g id="edge15" class="edge">
<title>McStasWeight2CountScaleFactor&#45;&gt;NMXReducedCounts</title>
<path fill="none" stroke="black" d="M571.82,-206.96C545.33,-197.31 511.08,-184.84 482.94,-174.6"/>
<polygon fill="black" stroke="black" points="483.86,-171.2 473.26,-171.07 481.46,-177.78 483.86,-171.2"/>
</g>
<!-- NMXReducedDataGroup -->
<g id="node15" class="node">
<title>NMXReducedDataGroup</title>
<polygon fill="none" stroke="black" points="391.5,-33 199.5,-33 199.5,0 391.5,0 391.5,-33"/>
<text text-anchor="start" x="207.5" y="-18.8" font-family="Times,serif" font-size="14.00">NMXReducedDataGroup</text>
<text text-anchor="start" x="211.5" y="-7.2" font-family="Times,serif" font-size="11.00">via:</text>
<text text-anchor="start" x="232.5" y="-7.2" font-family="Times,serif" font-style="italic" font-size="11.00">format_nmx_reduced_data</text>
</g>
<!-- NMXDetectorMetadata&#45;&gt;NMXReducedDataGroup -->
<g id="edge19" class="edge">
<title>NMXDetectorMetadata&#45;&gt;NMXReducedDataGroup</title>
<path fill="none" stroke="black" d="M272.97,-344.68C278.2,-319.41 287.5,-268.32 287.5,-224.5 287.5,-224.5 287.5,-224.5 287.5,-153.5 287.5,-115.25 290.69,-71.05 293.04,-43.69"/>
<polygon fill="black" stroke="black" points="296.56,-43.67 293.96,-33.39 289.59,-43.05 296.56,-43.67"/>
</g>
<!-- NMXExperimentMetadata&#45;&gt;NMXReducedDataGroup -->
<g id="edge18" class="edge">
<title>NMXExperimentMetadata&#45;&gt;NMXReducedDataGroup</title>
<path fill="none" stroke="black" d="M173.81,-275.98C195.17,-230.59 257.7,-97.79 283.82,-42.31"/>
<polygon fill="black" stroke="black" points="287.02,-43.72 288.12,-33.19 280.69,-40.74 287.02,-43.72"/>
</g>
<!-- NMXReducedProbability&#45;&gt;NMXReducedCounts -->
<g id="edge14" class="edge">
<title>NMXReducedProbability&#45;&gt;NMXReducedCounts</title>
<path fill="none" stroke="black" d="M434.93,-275.9C434.08,-252.86 432.48,-209.47 431.46,-181.55"/>
<polygon fill="black" stroke="black" points="434.95,-181.2 431.08,-171.34 427.95,-181.46 434.95,-181.2"/>
</g>
<!-- NMXReducedCounts&#45;&gt;NMXReducedDataGroup -->
<g id="edge16" class="edge">
<title>NMXReducedCounts&#45;&gt;NMXReducedDataGroup</title>
<path fill="none" stroke="black" d="M366.89,-137.9C347.17,-130.14 327.09,-118.7 313.5,-102 300.11,-85.54 296.02,-61.48 295.04,-43.23"/>
<polygon fill="black" stroke="black" points="298.54,-42.91 294.78,-33.01 291.54,-43.09 298.54,-42.91"/>
</g>
<!-- ProtonCharge -->
<g id="node16" class="node">
<title>ProtonCharge</title>
<polygon fill="none" stroke="black" points="544,-102 317,-102 317,-69 544,-69 544,-102"/>
<text text-anchor="start" x="380.5" y="-87.8" font-family="Times,serif" font-size="14.00">ProtonCharge</text>
<text text-anchor="start" x="325" y="-76.2" font-family="Times,serif" font-size="11.00">via:</text>
<text text-anchor="start" x="346" y="-76.2" font-family="Times,serif" font-style="italic" font-size="11.00">proton_charge_from_event_counts</text>
</g>
<!-- NMXReducedCounts&#45;&gt;ProtonCharge -->
<g id="edge25" class="edge">
<title>NMXReducedCounts&#45;&gt;ProtonCharge</title>
<path fill="none" stroke="black" d="M430.5,-137.96C430.5,-130.38 430.5,-121.05 430.5,-112.42"/>
<polygon fill="black" stroke="black" points="434,-112.42 430.5,-102.42 427,-112.42 434,-112.42"/>
</g>
<!-- ProtonCharge&#45;&gt;NMXReducedDataGroup -->
<g id="edge17" class="edge">
<title>ProtonCharge&#45;&gt;NMXReducedDataGroup</title>
<path fill="none" stroke="black" d="M399.19,-68.96C380.41,-59.64 356.33,-47.69 336.1,-37.65"/>
<polygon fill="black" stroke="black" points="337.62,-34.5 327.11,-33.19 334.51,-40.77 337.62,-34.5"/>
</g>
<!-- PixelIds&#45;&gt;NMXReducedProbability -->
<g id="edge21" class="edge">
<title>PixelIds&#45;&gt;NMXReducedProbability</title>
<path fill="none" stroke="black" d="M436.27,-344.96C436.15,-337.38 436.02,-328.05 435.89,-319.42"/>
<polygon fill="black" stroke="black" points="439.39,-319.37 435.74,-309.42 432.39,-319.47 439.39,-319.37"/>
</g>
<!-- TimeBinSteps -->
<g id="node18" class="node">
<title>TimeBinSteps</title>
<polygon fill="none" stroke="black" points="628.5,-373 512.5,-373 512.5,-350 628.5,-350 628.5,-373"/>
<text text-anchor="middle" x="570.5" y="-357.8" font-family="Times,serif" font-size="14.00">TimeBinSteps</text>
</g>
<!-- TimeBinSteps&#45;&gt;NMXReducedProbability -->
<g id="edge22" class="edge">
<title>TimeBinSteps&#45;&gt;NMXReducedProbability</title>
<path fill="none" stroke="black" d="M549.11,-349.88C529.55,-340.18 500.1,-325.56 476.08,-313.64"/>
<polygon fill="black" stroke="black" points="477.35,-310.36 466.84,-309.05 474.24,-316.63 477.35,-310.36"/>
</g>
</g>
</svg>
