<?xml version="1.0" encoding="UTF-8" standalone="no"?>
<!DOCTYPE svg PUBLIC "-//W3C//DTD SVG 1.1//EN"
 "http://www.w3.org/Graphics/SVG/1.1/DTD/svg11.dtd">
<!-- Generated by graphviz version 2.43.0 (0)
 -->
<!-- Title: %3 Pages: 1 -->
<svg width="846pt" height="514pt"
 viewBox="0.00 0.00 845.50 514.00" xmlns="http://www.w3.org/2000/svg" xmlns:xlink="http://www.w3.org/1999/xlink">
<g id="graph0" class="graph" transform="scale(1 1) rotate(0) translate(4 510)">
<title>%3</title>
<polygon fill="white" stroke="transparent" points="-4,4 -4,-510 841.5,-510 841.5,4 -4,4"/>
<!-- CrystalRotation -->
<g id="node1" class="node">
<title>CrystalRotation</title>
<polygon fill="none" stroke="black" points="167,-373 38,-373 38,-350 167,-350 167,-373"/>
<text text-anchor="middle" x="102.5" y="-357.8" font-family="Times,serif" font-size="14.00">CrystalRotation</text>
</g>
<!-- NMXExperimentMetadata -->
<g id="node9" class="node">
<title>NMXExperimentMetadata</title>
<polygon fill="none" stroke="black" points="205,-309 0,-309 0,-276 205,-276 205,-309"/>
<text text-anchor="start" x="8" y="-294.8" font-family="Times,serif" font-size="14.00">NMXExperimentMetadata</text>
<text text-anchor="start" x="16" y="-283.2" font-family="Times,serif" font-size="11.00">via:</text>
<text text-anchor="start" x="37" y="-283.2" font-family="Times,serif" font-style="italic" font-size="11.00">load_experiment_metadata</text>
</g>
<!-- CrystalRotation&#45;&gt;NMXExperimentMetadata -->
<g id="edge7" class="edge">
<title>CrystalRotation&#45;&gt;NMXExperimentMetadata</title>
<path fill="none" stroke="black" d="M102.5,-349.74C102.5,-341.52 102.5,-329.86 102.5,-319.28"/>
<polygon fill="black" stroke="black" points="106,-319.23 102.5,-309.23 99,-319.24 106,-319.23"/>
</g>
<!-- DetectorName -->
<g id="node2" class="node">
<title>DetectorName</title>
<polygon fill="none" stroke="black" points="573.5,-447 385.5,-447 385.5,-414 573.5,-414 573.5,-447"/>
<text text-anchor="start" x="427" y="-432.8" font-family="Times,serif" font-size="14.00">DetectorName</text>
<text text-anchor="start" x="393.5" y="-421.2" font-family="Times,serif" font-size="11.00">via:</text>
<text text-anchor="start" x="414.5" y="-421.2" font-family="Times,serif" font-style="italic" font-size="11.00">detector_name_from_index</text>
</g>
<!-- DetectorBankPrefix -->
<g id="node3" class="node">
<title>DetectorBankPrefix</title>
<polygon fill="none" stroke="black" points="694.5,-378 498.5,-378 498.5,-345 694.5,-345 694.5,-378"/>
<text text-anchor="start" x="526" y="-363.8" font-family="Times,serif" font-size="14.00">DetectorBankPrefix</text>
<text text-anchor="start" x="506.5" y="-352.2" font-family="Times,serif" font-size="11.00">via:</text>
<text text-anchor="start" x="527.5" y="-352.2" font-family="Times,serif" font-style="italic" font-size="11.00">load_event_data_bank_name</text>
</g>
<!-- DetectorName&#45;&gt;DetectorBankPrefix -->
<g id="edge1" class="edge">
<title>DetectorName&#45;&gt;DetectorBankPrefix</title>
<path fill="none" stroke="black" d="M506.64,-413.96C522.62,-404.81 543.03,-393.12 560.36,-383.19"/>
<polygon fill="black" stroke="black" points="562.17,-386.19 569.11,-378.19 558.69,-380.12 562.17,-386.19"/>
</g>
<!-- NMXDetectorMetadata -->
<g id="node8" class="node">
<title>NMXDetectorMetadata</title>
<polygon fill="none" stroke="black" points="395,-309 212,-309 212,-276 395,-276 395,-309"/>
<text text-anchor="start" x="220" y="-294.8" font-family="Times,serif" font-size="14.00">NMXDetectorMetadata</text>
<text text-anchor="start" x="225" y="-283.2" font-family="Times,serif" font-size="11.00">via:</text>
<text text-anchor="start" x="246" y="-283.2" font-family="Times,serif" font-style="italic" font-size="11.00">load_detector_metadata</text>
</g>
<!-- DetectorName&#45;&gt;NMXDetectorMetadata -->
<g id="edge5" class="edge">
<title>DetectorName&#45;&gt;NMXDetectorMetadata</title>
<path fill="none" stroke="black" d="M385.12,-421.89C356.21,-414.71 327.14,-401.6 308.5,-378 295.55,-361.61 295.44,-337.38 297.9,-319.06"/>
<polygon fill="black" stroke="black" points="301.38,-319.5 299.57,-309.06 294.47,-318.35 301.38,-319.5"/>
</g>
<!-- RawEventProbability -->
<g id="node14" class="node">
<title>RawEventProbability</title>
<polygon fill="none" stroke="black" points="714.5,-309 546.5,-309 546.5,-276 714.5,-276 714.5,-309"/>
<text text-anchor="start" x="554.5" y="-294.8" font-family="Times,serif" font-size="14.00">RawEventProbability</text>
<text text-anchor="start" x="561" y="-283.2" font-family="Times,serif" font-size="11.00">via:</text>
<text text-anchor="start" x="582" y="-283.2" font-family="Times,serif" font-style="italic" font-size="11.00">load_raw_event_data</text>
</g>
<!-- DetectorName&#45;&gt;RawEventProbability -->
<g id="edge21" class="edge">
<title>DetectorName&#45;&gt;RawEventProbability</title>
<path fill="none" stroke="black" d="M478.19,-413.89C477.5,-395.34 479.21,-364.47 495.5,-345 507.45,-330.72 523.83,-320.38 541.06,-312.92"/>
<polygon fill="black" stroke="black" points="542.71,-316.02 550.69,-309.05 540.11,-309.53 542.71,-316.02"/>
</g>
<!-- PixelIds -->
<g id="node15" class="node">
<title>PixelIds</title>
<polygon fill="none" stroke="black" points="539,-309 402,-309 402,-276 539,-276 539,-309"/>
<text text-anchor="start" x="441.5" y="-294.8" font-family="Times,serif" font-size="14.00">PixelIds</text>
<text text-anchor="start" x="410" y="-283.2" font-family="Times,serif" font-size="11.00">via:</text>
<text text-anchor="start" x="431" y="-283.2" font-family="Times,serif" font-style="italic" font-size="11.00">retrieve_pixel_ids</text>
</g>
<!-- DetectorName&#45;&gt;PixelIds -->
<g id="edge18" class="edge">
<title>DetectorName&#45;&gt;PixelIds</title>
<path fill="none" stroke="black" d="M478.47,-413.9C476.94,-390.86 474.07,-347.47 472.22,-319.55"/>
<polygon fill="black" stroke="black" points="475.7,-319.08 471.55,-309.34 468.72,-319.55 475.7,-319.08"/>
</g>
<!-- DetectorBankPrefix&#45;&gt;RawEventProbability -->
<g id="edge22" class="edge">
<title>DetectorBankPrefix&#45;&gt;RawEventProbability</title>
<path fill="none" stroke="black" d="M604.39,-344.96C608.36,-337.13 613.28,-327.43 617.78,-318.57"/>
<polygon fill="black" stroke="black" points="621.02,-319.92 622.42,-309.42 614.77,-316.75 621.02,-319.92"/>
</g>
<!-- FilePath -->
<g id="node4" class="node">
<title>FilePath</title>
<polygon fill="none" stroke="black" points="699.5,-442 623.5,-442 623.5,-419 699.5,-419 699.5,-442"/>
<text text-anchor="middle" x="661.5" y="-426.8" font-family="Times,serif" font-size="14.00">FilePath</text>
</g>
<!-- FilePath&#45;&gt;DetectorBankPrefix -->
<g id="edge2" class="edge">
<title>FilePath&#45;&gt;DetectorBankPrefix</title>
<path fill="none" stroke="black" d="M651.06,-418.74C642.43,-409.84 629.87,-396.89 618.97,-385.66"/>
<polygon fill="black" stroke="black" points="621.24,-382.98 611.77,-378.23 616.22,-387.85 621.24,-382.98"/>
</g>
<!-- FilePath&#45;&gt;RawEventProbability -->
<g id="edge20" class="edge">
<title>FilePath&#45;&gt;RawEventProbability</title>
<path fill="none" stroke="black" d="M672,-418.93C686.72,-402.76 710.33,-371.03 697.5,-345 691.51,-332.83 681.11,-322.74 670.26,-314.81"/>
<polygon fill="black" stroke="black" points="672.19,-311.88 661.95,-309.16 668.26,-317.68 672.19,-311.88"/>
</g>
<!-- DetectorIndex -->
<g id="node5" class="node">
<title>DetectorIndex</title>
<polygon fill="none" stroke="red" stroke-dasharray="5,2" points="539,-506 420,-506 420,-483 539,-483 539,-506"/>
<text text-anchor="middle" x="479.5" y="-490.8" font-family="Times,serif" font-size="14.00" fill="red">DetectorIndex</text>
</g>
<!-- DetectorIndex&#45;&gt;DetectorName -->
<g id="edge3" class="edge">
<title>DetectorIndex&#45;&gt;DetectorName</title>
<path fill="none" stroke="black" d="M479.5,-482.98C479.5,-475.93 479.5,-466.32 479.5,-457.31"/>
<polygon fill="black" stroke="black" points="483,-457.2 479.5,-447.2 476,-457.2 483,-457.2"/>
</g>
<!-- McStasInstrument -->
<g id="node6" class="node">
<title>McStasInstrument</title>
<polygon fill="none" stroke="black" points="461.5,-373 311.5,-373 311.5,-350 461.5,-350 461.5,-373"/>
<text text-anchor="middle" x="386.5" y="-357.8" font-family="Times,serif" font-size="14.00">McStasInstrument</text>
</g>
<!-- McStasInstrument&#45;&gt;NMXDetectorMetadata -->
<g id="edge4" class="edge">
<title>McStasInstrument&#45;&gt;NMXDetectorMetadata</title>
<path fill="none" stroke="black" d="M373.16,-349.74C361.83,-340.58 345.18,-327.14 331,-315.7"/>
<polygon fill="black" stroke="black" points="332.97,-312.79 322.99,-309.23 328.58,-318.24 332.97,-312.79"/>
</g>
<!-- McStasInstrument&#45;&gt;NMXExperimentMetadata -->
<g id="edge6" class="edge">
<title>McStasInstrument&#45;&gt;NMXExperimentMetadata</title>
<path fill="none" stroke="black" d="M341.81,-349.96C298.01,-339.62 230.4,-323.67 178.2,-311.36"/>
<polygon fill="black" stroke="black" points="178.85,-307.92 168.31,-309.03 177.24,-314.73 178.85,-307.92"/>
</g>
<!-- McStasInstrument&#45;&gt;PixelIds -->
<g id="edge17" class="edge">
<title>McStasInstrument&#45;&gt;PixelIds</title>
<path fill="none" stroke="black" d="M400,-349.74C411.47,-340.58 428.32,-327.14 442.67,-315.7"/>
<polygon fill="black" stroke="black" points="445.14,-318.21 450.77,-309.23 440.77,-312.73 445.14,-318.21"/>
</g>
<!-- McStasWeight2CountScaleFactor -->
<g id="node7" class="node">
<title>McStasWeight2CountScaleFactor</title>
<polygon fill="none" stroke="black" points="520.5,-235 264.5,-235 264.5,-212 520.5,-212 520.5,-235"/>
<text text-anchor="middle" x="392.5" y="-219.8" font-family="Times,serif" font-size="14.00">McStasWeight2CountScaleFactor</text>
</g>
<!-- NMXReducedCounts -->
<g id="node11" class="node">
<title>NMXReducedCounts</title>
<polygon fill="none" stroke="black" points="540.5,-171 320.5,-171 320.5,-138 540.5,-138 540.5,-171"/>
<text text-anchor="start" x="356.5" y="-156.8" font-family="Times,serif" font-size="14.00">NMXReducedCounts</text>
<text text-anchor="start" x="328.5" y="-145.2" font-family="Times,serif" font-size="11.00">via:</text>
<text text-anchor="start" x="349.5" y="-145.2" font-family="Times,serif" font-style="italic" font-size="11.00">raw_event_probability_to_counts</text>
</g>
<!-- McStasWeight2CountScaleFactor&#45;&gt;NMXReducedCounts -->
<g id="edge9" class="edge">
<title>McStasWeight2CountScaleFactor&#45;&gt;NMXReducedCounts</title>
<path fill="none" stroke="black" d="M398.61,-211.74C403.46,-203.18 410.43,-190.88 416.62,-179.97"/>
<polygon fill="black" stroke="black" points="419.69,-181.66 421.58,-171.23 413.6,-178.21 419.69,-181.66"/>
</g>
<!-- NMXReducedDataGroup -->
<g id="node12" class="node">
<title>NMXReducedDataGroup</title>
<polygon fill="none" stroke="black" points="377.5,-33 185.5,-33 185.5,0 377.5,0 377.5,-33"/>
<text text-anchor="start" x="193.5" y="-18.8" font-family="Times,serif" font-size="14.00">NMXReducedDataGroup</text>
<text text-anchor="start" x="197.5" y="-7.2" font-family="Times,serif" font-size="11.00">via:</text>
<text text-anchor="start" x="218.5" y="-7.2" font-family="Times,serif" font-style="italic" font-size="11.00">format_nmx_reduced_data</text>
</g>
<!-- NMXDetectorMetadata&#45;&gt;NMXReducedDataGroup -->
<g id="edge13" class="edge">
<title>NMXDetectorMetadata&#45;&gt;NMXReducedDataGroup</title>
<path fill="none" stroke="black" d="M287.02,-275.74C277.94,-266.2 267.19,-253.32 260.5,-240 232.21,-183.64 234.88,-164.63 227.5,-102 225.78,-87.43 221.73,-82.48 227.5,-69 232.31,-57.76 240.91,-47.81 249.86,-39.73"/>
<polygon fill="black" stroke="black" points="252.32,-42.23 257.72,-33.12 247.81,-36.87 252.32,-42.23"/>
</g>
<!-- NMXExperimentMetadata&#45;&gt;NMXReducedDataGroup -->
<g id="edge12" class="edge">
<title>NMXExperimentMetadata&#45;&gt;NMXReducedDataGroup</title>
<path fill="none" stroke="black" d="M108.89,-275.86C124.83,-237.96 169.05,-139.16 224.5,-69 232.77,-58.54 243.28,-48.39 253.01,-39.91"/>
<polygon fill="black" stroke="black" points="255.56,-42.33 260.94,-33.2 251.04,-36.99 255.56,-42.33"/>
</g>
<!-- NMXReducedProbability -->
<g id="node10" class="node">
<title>NMXReducedProbability</title>
<polygon fill="none" stroke="black" points="733,-240 528,-240 528,-207 733,-207 733,-240"/>
<text text-anchor="start" x="542" y="-225.8" font-family="Times,serif" font-size="14.00">NMXReducedProbability</text>
<text text-anchor="start" x="536" y="-214.2" font-family="Times,serif" font-size="11.00">via:</text>
<text text-anchor="start" x="557" y="-214.2" font-family="Times,serif" font-style="italic" font-size="11.00">reduce_raw_event_probability</text>
</g>
<!-- NMXReducedProbability&#45;&gt;NMXReducedCounts -->
<g id="edge8" class="edge">
<title>NMXReducedProbability&#45;&gt;NMXReducedCounts</title>
<path fill="none" stroke="black" d="M584.11,-206.96C555.06,-197.23 517.44,-184.63 486.7,-174.33"/>
<polygon fill="black" stroke="black" points="487.58,-170.93 476.98,-171.07 485.35,-177.57 487.58,-170.93"/>
</g>
<!-- NMXReducedCounts&#45;&gt;NMXReducedDataGroup -->
<g id="edge10" class="edge">
<title>NMXReducedCounts&#45;&gt;NMXReducedDataGroup</title>
<path fill="none" stroke="black" d="M444.57,-137.84C459.02,-119.8 477.31,-89.96 461.5,-69 450.99,-55.06 417.62,-43.76 382.41,-35.32"/>
<polygon fill="black" stroke="black" points="382.99,-31.86 372.45,-33.02 381.41,-38.68 382.99,-31.86"/>
</g>
<!-- ProtonCharge -->
<g id="node13" class="node">
<title>ProtonCharge</title>
<polygon fill="none" stroke="black" points="458,-102 231,-102 231,-69 458,-69 458,-102"/>
<text text-anchor="start" x="294.5" y="-87.8" font-family="Times,serif" font-size="14.00">ProtonCharge</text>
<text text-anchor="start" x="239" y="-76.2" font-family="Times,serif" font-size="11.00">via:</text>
<text text-anchor="start" x="260" y="-76.2" font-family="Times,serif" font-style="italic" font-size="11.00">proton_charge_from_event_counts</text>
</g>
<!-- NMXReducedCounts&#45;&gt;ProtonCharge -->
<g id="edge19" class="edge">
<title>NMXReducedCounts&#45;&gt;ProtonCharge</title>
<path fill="none" stroke="black" d="M410.55,-137.96C399.35,-129.23 385.17,-118.19 372.83,-108.57"/>
<polygon fill="black" stroke="black" points="374.68,-105.57 364.64,-102.19 370.37,-111.09 374.68,-105.57"/>
</g>
<!-- ProtonCharge&#45;&gt;NMXReducedDataGroup -->
<g id="edge11" class="edge">
<title>ProtonCharge&#45;&gt;NMXReducedDataGroup</title>
<path fill="none" stroke="black" d="M329.89,-68.96C322.05,-60.62 312.23,-50.18 303.49,-40.89"/>
<polygon fill="black" stroke="black" points="305.87,-38.31 296.47,-33.42 300.77,-43.1 305.87,-38.31"/>
</g>
<!-- RawEventProbability&#45;&gt;NMXReducedProbability -->
<g id="edge14" class="edge">
<title>RawEventProbability&#45;&gt;NMXReducedProbability</title>
<path fill="none" stroke="black" d="M630.5,-275.96C630.5,-268.38 630.5,-259.05 630.5,-250.42"/>
<polygon fill="black" stroke="black" points="634,-250.42 630.5,-240.42 627,-250.42 634,-250.42"/>
</g>
<!-- PixelIds&#45;&gt;NMXReducedProbability -->
<g id="edge15" class="edge">
<title>PixelIds&#45;&gt;NMXReducedProbability</title>
<path fill="none" stroke="black" d="M507.61,-275.96C530.35,-266.44 559.65,-254.17 583.94,-244"/>
<polygon fill="black" stroke="black" points="585.44,-247.16 593.32,-240.07 582.74,-240.71 585.44,-247.16"/>
</g>
<!-- TimeBinSteps -->
<g id="node16" class="node">
<title>TimeBinSteps</title>
<polygon fill="none" stroke="black" points="837.5,-304 721.5,-304 721.5,-281 837.5,-281 837.5,-304"/>
<text text-anchor="middle" x="779.5" y="-288.8" font-family="Times,serif" font-size="14.00">TimeBinSteps</text>
</g>
<!-- TimeBinSteps&#45;&gt;NMXReducedProbability -->
<g id="edge16" class="edge">
<title>TimeBinSteps&#45;&gt;NMXReducedProbability</title>
<path fill="none" stroke="black" d="M755.89,-280.88C734.02,-271.05 700.93,-256.17 674.24,-244.17"/>
<polygon fill="black" stroke="black" points="675.64,-240.96 665.09,-240.05 672.77,-247.35 675.64,-240.96"/>
</g>
</g>
</svg>
