<?xml version="1.0" encoding="UTF-8" standalone="no"?>
<!DOCTYPE svg PUBLIC "-//W3C//DTD SVG 1.1//EN"
 "http://www.w3.org/Graphics/SVG/1.1/DTD/svg11.dtd">
<!-- Generated by graphviz version 2.43.0 (0)
 -->
<!-- Title: %3 Pages: 1 -->
<svg width="982pt" height="652pt"
 viewBox="0.00 0.00 981.50 652.00" xmlns="http://www.w3.org/2000/svg" xmlns:xlink="http://www.w3.org/1999/xlink">
<g id="graph0" class="graph" transform="scale(1 1) rotate(0) translate(4 648)">
<title>%3</title>
<polygon fill="white" stroke="transparent" points="-4,4 -4,-648 977.5,-648 977.5,4 -4,4"/>
<!-- FilePath -->
<g id="node1" class="node">
<title>FilePath</title>
<polygon fill="none" stroke="black" points="362.5,-580 286.5,-580 286.5,-557 362.5,-557 362.5,-580"/>
<text text-anchor="middle" x="324.5" y="-564.8" font-family="Times,serif" font-size="14.00">FilePath</text>
</g>
<!-- CrystalRotation -->
<g id="node2" class="node">
<title>CrystalRotation</title>
<polygon fill="none" stroke="black" points="155,-447 0,-447 0,-414 155,-414 155,-447"/>
<text text-anchor="start" x="21" y="-432.8" font-family="Times,serif" font-size="14.00">CrystalRotation</text>
<text text-anchor="start" x="8" y="-421.2" font-family="Times,serif" font-size="11.00">via:</text>
<text text-anchor="start" x="29" y="-421.2" font-family="Times,serif" font-style="italic" font-size="11.00">load_crystal_rotation</text>
</g>
<!-- FilePath&#45;&gt;CrystalRotation -->
<g id="edge1" class="edge">
<title>FilePath&#45;&gt;CrystalRotation</title>
<path fill="none" stroke="black" d="M286.33,-564.23C246.6,-559.25 184.07,-546.8 139.5,-516 117.47,-500.78 100.29,-475.14 89.65,-456.09"/>
<polygon fill="black" stroke="black" points="92.63,-454.24 84.83,-447.08 86.46,-457.54 92.63,-454.24"/>
</g>
<!-- McStasInstrument -->
<g id="node3" class="node">
<title>McStasInstrument</title>
<polygon fill="none" stroke="black" points="335.5,-516 143.5,-516 143.5,-483 335.5,-483 335.5,-516"/>
<text text-anchor="start" x="172.5" y="-501.8" font-family="Times,serif" font-size="14.00">McStasInstrument</text>
<text text-anchor="start" x="151.5" y="-490.2" font-family="Times,serif" font-size="11.00">via:</text>
<text text-anchor="start" x="172.5" y="-490.2" font-family="Times,serif" font-style="italic" font-size="11.00">read_mcstas_geometry_xml</text>
</g>
<!-- FilePath&#45;&gt;McStasInstrument -->
<g id="edge7" class="edge">
<title>FilePath&#45;&gt;McStasInstrument</title>
<path fill="none" stroke="black" d="M310.84,-556.74C299.23,-547.58 282.18,-534.14 267.66,-522.7"/>
<polygon fill="black" stroke="black" points="269.48,-519.68 259.46,-516.23 265.15,-525.17 269.48,-519.68"/>
</g>
<!-- DetectorBankPrefix(panel) -->
<g id="node5" class="node">
<title>DetectorBankPrefix(panel)</title>
<polygon fill="none" stroke="black" points="578.5,-516 376.17,-516 372.5,-512.33 372.5,-483 574.83,-483 578.5,-486.67 578.5,-516"/>
<polyline fill="none" stroke="black" points="574.83,-512.33 372.5,-512.33 "/>
<polyline fill="none" stroke="black" points="574.83,-512.33 574.83,-483 "/>
<polyline fill="none" stroke="black" points="574.83,-512.33 578.5,-516 "/>
<text text-anchor="start" x="380.5" y="-501.8" font-family="Times,serif" font-size="14.00">DetectorBankPrefix(panel)</text>
<text text-anchor="start" x="385.5" y="-490.2" font-family="Times,serif" font-size="11.00">via:</text>
<text text-anchor="start" x="406.5" y="-490.2" font-family="Times,serif" font-style="italic" font-size="11.00">load_event_data_bank_name</text>
</g>
<!-- FilePath&#45;&gt;DetectorBankPrefix(panel) -->
<g id="edge4" class="edge">
<title>FilePath&#45;&gt;DetectorBankPrefix(panel)</title>
<path fill="none" stroke="black" d="M348.43,-556.88C370.59,-547.05 404.13,-532.17 431.18,-520.17"/>
<polygon fill="black" stroke="black" points="432.73,-523.31 440.45,-516.05 429.89,-516.91 432.73,-523.31"/>
</g>
<!-- RawEventProbability(panel) -->
<g id="node8" class="node">
<title>RawEventProbability(panel)</title>
<polygon fill="none" stroke="black" points="902.5,-447 688.17,-447 684.5,-443.33 684.5,-414 898.83,-414 902.5,-417.67 902.5,-447"/>
<polyline fill="none" stroke="black" points="898.83,-443.33 684.5,-443.33 "/>
<polyline fill="none" stroke="black" points="898.83,-443.33 898.83,-414 "/>
<polyline fill="none" stroke="black" points="898.83,-443.33 902.5,-447 "/>
<text text-anchor="start" x="692.5" y="-432.8" font-family="Times,serif" font-size="14.00">RawEventProbability(panel)</text>
<text text-anchor="start" x="724" y="-421.2" font-family="Times,serif" font-size="11.00">via:</text>
<text text-anchor="start" x="745" y="-421.2" font-family="Times,serif" font-style="italic" font-size="11.00">load_raw_event_data</text>
</g>
<!-- FilePath&#45;&gt;RawEventProbability(panel) -->
<g id="edge27" class="edge">
<title>FilePath&#45;&gt;RawEventProbability(panel)</title>
<path fill="none" stroke="black" d="M326.8,-556.8C331.39,-538.32 343.54,-500.69 369.5,-483 424.52,-445.5 595.86,-454.8 674.36,-447.59"/>
<polygon fill="black" stroke="black" points="674.79,-451.06 684.35,-446.51 674.04,-444.1 674.79,-451.06"/>
</g>
<!-- NMXExperimentMetadata -->
<g id="node12" class="node">
<title>NMXExperimentMetadata</title>
<polygon fill="none" stroke="black" points="269,-378 64,-378 64,-345 269,-345 269,-378"/>
<text text-anchor="start" x="72" y="-363.8" font-family="Times,serif" font-size="14.00">NMXExperimentMetadata</text>
<text text-anchor="start" x="80" y="-352.2" font-family="Times,serif" font-size="11.00">via:</text>
<text text-anchor="start" x="101" y="-352.2" font-family="Times,serif" font-style="italic" font-size="11.00">load_experiment_metadata</text>
</g>
<!-- CrystalRotation&#45;&gt;NMXExperimentMetadata -->
<g id="edge13" class="edge">
<title>CrystalRotation&#45;&gt;NMXExperimentMetadata</title>
<path fill="none" stroke="black" d="M98.14,-413.96C109.85,-405.14 124.69,-393.97 137.55,-384.29"/>
<polygon fill="black" stroke="black" points="139.78,-387 145.66,-378.19 135.57,-381.41 139.78,-387"/>
</g>
<!-- McStasInstrument&#45;&gt;CrystalRotation -->
<g id="edge2" class="edge">
<title>McStasInstrument&#45;&gt;CrystalRotation</title>
<path fill="none" stroke="black" d="M201.93,-482.96C178.9,-473.44 149.24,-461.17 124.65,-451"/>
<polygon fill="black" stroke="black" points="125.73,-447.66 115.15,-447.07 123.05,-454.13 125.73,-447.66"/>
</g>
<!-- NMXDetectorMetadata(panel) -->
<g id="node11" class="node">
<title>NMXDetectorMetadata(panel)</title>
<polygon fill="none" stroke="black" points="410,-447 180.67,-447 177,-443.33 177,-414 406.33,-414 410,-417.67 410,-447"/>
<polyline fill="none" stroke="black" points="406.33,-443.33 177,-443.33 "/>
<polyline fill="none" stroke="black" points="406.33,-443.33 406.33,-414 "/>
<polyline fill="none" stroke="black" points="406.33,-443.33 410,-447 "/>
<text text-anchor="start" x="185" y="-432.8" font-family="Times,serif" font-size="14.00">NMXDetectorMetadata(panel)</text>
<text text-anchor="start" x="215" y="-421.2" font-family="Times,serif" font-size="11.00">via:</text>
<text text-anchor="start" x="236" y="-421.2" font-family="Times,serif" font-style="italic" font-size="11.00">load_detector_metadata</text>
</g>
<!-- McStasInstrument&#45;&gt;NMXDetectorMetadata(panel) -->
<g id="edge10" class="edge">
<title>McStasInstrument&#45;&gt;NMXDetectorMetadata(panel)</title>
<path fill="none" stroke="black" d="M252.02,-482.96C258.61,-474.79 266.82,-464.6 274.2,-455.45"/>
<polygon fill="black" stroke="black" points="277.12,-457.4 280.67,-447.42 271.67,-453.01 277.12,-457.4"/>
</g>
<!-- McStasInstrument&#45;&gt;NMXExperimentMetadata -->
<g id="edge12" class="edge">
<title>McStasInstrument&#45;&gt;NMXExperimentMetadata</title>
<path fill="none" stroke="black" d="M210.6,-482.97C197.3,-474.24 182.68,-462.06 174.5,-447 164.77,-429.09 163.22,-405.87 163.85,-388.31"/>
<polygon fill="black" stroke="black" points="167.35,-388.39 164.47,-378.2 160.36,-387.96 167.35,-388.39"/>
</g>
<!-- PixelIds(panel) -->
<g id="node18" class="node">
<title>PixelIds(panel)</title>
<polygon fill="none" stroke="black" points="554,-447 420.67,-447 417,-443.33 417,-414 550.33,-414 554,-417.67 554,-447"/>
<polyline fill="none" stroke="black" points="550.33,-443.33 417,-443.33 "/>
<polyline fill="none" stroke="black" points="550.33,-443.33 550.33,-414 "/>
<polyline fill="none" stroke="black" points="550.33,-443.33 554,-447 "/>
<text text-anchor="start" x="432" y="-432.8" font-family="Times,serif" font-size="14.00">PixelIds(panel)</text>
<text text-anchor="start" x="425" y="-421.2" font-family="Times,serif" font-size="11.00">via:</text>
<text text-anchor="start" x="446" y="-421.2" font-family="Times,serif" font-style="italic" font-size="11.00">retrieve_pixel_ids</text>
</g>
<!-- McStasInstrument&#45;&gt;PixelIds(panel) -->
<g id="edge24" class="edge">
<title>McStasInstrument&#45;&gt;PixelIds(panel)</title>
<path fill="none" stroke="black" d="M296.56,-482.96C332.91,-473.06 380.17,-460.19 418.33,-449.79"/>
<polygon fill="black" stroke="black" points="419.6,-453.08 428.33,-447.07 417.76,-446.32 419.6,-453.08"/>
</g>
<!-- DetectorName(panel) -->
<g id="node4" class="node">
<title>DetectorName(panel)</title>
<polygon fill="none" stroke="black" points="605.5,-585 421.17,-585 417.5,-581.33 417.5,-552 601.83,-552 605.5,-555.67 605.5,-585"/>
<polyline fill="none" stroke="black" points="601.83,-581.33 417.5,-581.33 "/>
<polyline fill="none" stroke="black" points="601.83,-581.33 601.83,-552 "/>
<polyline fill="none" stroke="black" points="601.83,-581.33 605.5,-585 "/>
<text text-anchor="start" x="434.5" y="-570.8" font-family="Times,serif" font-size="14.00">DetectorName(panel)</text>
<text text-anchor="start" x="425.5" y="-559.2" font-family="Times,serif" font-size="11.00">via:</text>
<text text-anchor="start" x="446.5" y="-559.2" font-family="Times,serif" font-style="italic" font-size="11.00">detector_name_from_index</text>
</g>
<!-- DetectorName(panel)&#45;&gt;DetectorBankPrefix(panel) -->
<g id="edge3" class="edge">
<title>DetectorName(panel)&#45;&gt;DetectorBankPrefix(panel)</title>
<path fill="none" stroke="black" d="M503.15,-551.96C498.9,-544.04 493.62,-534.22 488.82,-525.29"/>
<polygon fill="black" stroke="black" points="491.87,-523.57 484.05,-516.42 485.7,-526.89 491.87,-523.57"/>
</g>
<!-- DetectorName(panel)&#45;&gt;RawEventProbability(panel) -->
<g id="edge28" class="edge">
<title>DetectorName(panel)&#45;&gt;RawEventProbability(panel)</title>
<path fill="none" stroke="black" d="M543.85,-551.9C595.24,-527.11 695.49,-478.77 752.07,-451.48"/>
<polygon fill="black" stroke="black" points="753.61,-454.62 761.1,-447.13 750.57,-448.32 753.61,-454.62"/>
</g>
<!-- DetectorName(panel)&#45;&gt;NMXDetectorMetadata(panel) -->
<g id="edge11" class="edge">
<title>DetectorName(panel)&#45;&gt;NMXDetectorMetadata(panel)</title>
<path fill="none" stroke="black" d="M447.4,-551.9C421.5,-543.75 392.21,-532.05 368.5,-516 366.81,-514.85 335.43,-479.27 313.8,-454.65"/>
<polygon fill="black" stroke="black" points="316.4,-452.31 307.17,-447.1 311.14,-456.92 316.4,-452.31"/>
</g>
<!-- DetectorName(panel)&#45;&gt;PixelIds(panel) -->
<g id="edge25" class="edge">
<title>DetectorName(panel)&#45;&gt;PixelIds(panel)</title>
<path fill="none" stroke="black" d="M544.69,-551.93C558.75,-543.45 573.67,-531.48 581.5,-516 588.12,-502.91 589.03,-495.59 581.5,-483 573.37,-469.42 560.31,-459.22 546.39,-451.63"/>
<polygon fill="black" stroke="black" points="547.68,-448.36 537.17,-447.02 544.55,-454.62 547.68,-448.36"/>
</g>
<!-- DetectorBankPrefix(panel)&#45;&gt;RawEventProbability(panel) -->
<g id="edge29" class="edge">
<title>DetectorBankPrefix(panel)&#45;&gt;RawEventProbability(panel)</title>
<path fill="none" stroke="black" d="M549.25,-482.96C597.33,-472.83 660.17,-459.59 710.07,-449.08"/>
<polygon fill="black" stroke="black" points="710.81,-452.5 719.87,-447.01 709.36,-445.65 710.81,-452.5"/>
</g>
<!-- DetectorIndex(panel) -->
<g id="node6" class="node">
<title>DetectorIndex(panel)</title>
<polygon fill="none" stroke="black" points="595.5,-644 430.06,-644 427.5,-641.44 427.5,-621 592.94,-621 595.5,-623.56 595.5,-644"/>
<polyline fill="none" stroke="black" points="592.94,-641.44 427.5,-641.44 "/>
<polyline fill="none" stroke="black" points="592.94,-641.44 592.94,-621 "/>
<polyline fill="none" stroke="black" points="592.94,-641.44 595.5,-644 "/>
<text text-anchor="middle" x="511.5" y="-628.8" font-family="Times,serif" font-size="14.00">DetectorIndex(panel)</text>
</g>
<!-- DetectorIndex(panel)&#45;&gt;DetectorName(panel) -->
<g id="edge5" class="edge">
<title>DetectorIndex(panel)&#45;&gt;DetectorName(panel)</title>
<path fill="none" stroke="black" d="M511.5,-620.98C511.5,-613.93 511.5,-604.32 511.5,-595.31"/>
<polygon fill="black" stroke="black" points="515,-595.2 511.5,-585.2 508,-595.2 515,-595.2"/>
</g>
<!-- MaximumCounts -->
<g id="node7" class="node">
<title>MaximumCounts</title>
<polygon fill="none" stroke="black" points="750.5,-373 612.5,-373 612.5,-350 750.5,-350 750.5,-373"/>
<text text-anchor="middle" x="681.5" y="-357.8" font-family="Times,serif" font-size="14.00">MaximumCounts</text>
</g>
<!-- McStasWeight2CountScaleFactor(panel) -->
<g id="node10" class="node">
<title>McStasWeight2CountScaleFactor(panel)</title>
<polygon fill="none" stroke="black" points="834,-309 532.67,-309 529,-305.33 529,-276 830.33,-276 834,-279.67 834,-309"/>
<polyline fill="none" stroke="black" points="830.33,-305.33 529,-305.33 "/>
<polyline fill="none" stroke="black" points="830.33,-305.33 830.33,-276 "/>
<polyline fill="none" stroke="black" points="830.33,-305.33 834,-309 "/>
<text text-anchor="start" x="537" y="-294.8" font-family="Times,serif" font-size="14.00">McStasWeight2CountScaleFactor(panel)</text>
<text text-anchor="start" x="554" y="-283.2" font-family="Times,serif" font-size="11.00">via:</text>
<text text-anchor="start" x="575" y="-283.2" font-family="Times,serif" font-style="italic" font-size="11.00">mcstas_weight_to_probability_scalefactor</text>
</g>
<!-- MaximumCounts&#45;&gt;McStasWeight2CountScaleFactor(panel) -->
<g id="edge8" class="edge">
<title>MaximumCounts&#45;&gt;McStasWeight2CountScaleFactor(panel)</title>
<path fill="none" stroke="black" d="M681.5,-349.74C681.5,-341.52 681.5,-329.86 681.5,-319.28"/>
<polygon fill="black" stroke="black" points="685,-319.23 681.5,-309.23 678,-319.24 685,-319.23"/>
</g>
<!-- MaximumProbability(panel) -->
<g id="node9" class="node">
<title>MaximumProbability(panel)</title>
<polygon fill="none" stroke="black" points="973.5,-378 761.17,-378 757.5,-374.33 757.5,-345 969.83,-345 973.5,-348.67 973.5,-378"/>
<polyline fill="none" stroke="black" points="969.83,-374.33 757.5,-374.33 "/>
<polyline fill="none" stroke="black" points="969.83,-374.33 969.83,-345 "/>
<polyline fill="none" stroke="black" points="969.83,-374.33 973.5,-378 "/>
<text text-anchor="start" x="765.5" y="-363.8" font-family="Times,serif" font-size="14.00">MaximumProbability(panel)</text>
<text text-anchor="start" x="794.5" y="-352.2" font-family="Times,serif" font-size="11.00">via:</text>
<text text-anchor="start" x="815.5" y="-352.2" font-family="Times,serif" font-style="italic" font-size="11.00">maximum_probability</text>
</g>
<!-- RawEventProbability(panel)&#45;&gt;MaximumProbability(panel) -->
<g id="edge6" class="edge">
<title>RawEventProbability(panel)&#45;&gt;MaximumProbability(panel)</title>
<path fill="none" stroke="black" d="M810.2,-413.96C819.34,-405.46 830.83,-394.76 840.96,-385.33"/>
<polygon fill="black" stroke="black" points="843.45,-387.8 848.39,-378.42 838.69,-382.67 843.45,-387.8"/>
</g>
<!-- NMXReducedProbability(panel) -->
<g id="node13" class="node">
<title>NMXReducedProbability(panel)</title>
<polygon fill="none" stroke="black" points="605.5,-378 367.17,-378 363.5,-374.33 363.5,-345 601.83,-345 605.5,-348.67 605.5,-378"/>
<polyline fill="none" stroke="black" points="601.83,-374.33 363.5,-374.33 "/>
<polyline fill="none" stroke="black" points="601.83,-374.33 601.83,-345 "/>
<polyline fill="none" stroke="black" points="601.83,-374.33 605.5,-378 "/>
<text text-anchor="start" x="371.5" y="-363.8" font-family="Times,serif" font-size="14.00">NMXReducedProbability(panel)</text>
<text text-anchor="start" x="390" y="-352.2" font-family="Times,serif" font-size="11.00">via:</text>
<text text-anchor="start" x="411" y="-352.2" font-family="Times,serif" font-style="italic" font-size="11.00">reduce_raw_event_probability</text>
</g>
<!-- RawEventProbability(panel)&#45;&gt;NMXReducedProbability(panel) -->
<g id="edge21" class="edge">
<title>RawEventProbability(panel)&#45;&gt;NMXReducedProbability(panel)</title>
<path fill="none" stroke="black" d="M721.83,-413.96C675.21,-403.85 614.31,-390.65 565.87,-380.14"/>
<polygon fill="black" stroke="black" points="566.56,-376.71 556.05,-378.01 565.08,-383.55 566.56,-376.71"/>
</g>
<!-- MaximumProbability(panel)&#45;&gt;McStasWeight2CountScaleFactor(panel) -->
<g id="edge9" class="edge">
<title>MaximumProbability(panel)&#45;&gt;McStasWeight2CountScaleFactor(panel)</title>
<path fill="none" stroke="black" d="M822.82,-344.96C796.33,-335.31 762.08,-322.84 733.94,-312.6"/>
<polygon fill="black" stroke="black" points="734.86,-309.2 724.26,-309.07 732.46,-315.78 734.86,-309.2"/>
</g>
<!-- NMXReducedCounts(panel) -->
<g id="node14" class="node">
<title>NMXReducedCounts(panel)</title>
<polygon fill="none" stroke="black" points="566.5,-240 350.17,-240 346.5,-236.33 346.5,-207 562.83,-207 566.5,-210.67 566.5,-240"/>
<polyline fill="none" stroke="black" points="562.83,-236.33 346.5,-236.33 "/>
<polyline fill="none" stroke="black" points="562.83,-236.33 562.83,-207 "/>
<polyline fill="none" stroke="black" points="562.83,-236.33 566.5,-240 "/>
<text text-anchor="start" x="357.5" y="-225.8" font-family="Times,serif" font-size="14.00">NMXReducedCounts(panel)</text>
<text text-anchor="start" x="354.5" y="-214.2" font-family="Times,serif" font-size="11.00">via:</text>
<text text-anchor="start" x="375.5" y="-214.2" font-family="Times,serif" font-style="italic" font-size="11.00">raw_event_probability_to_counts</text>
</g>
<!-- McStasWeight2CountScaleFactor(panel)&#45;&gt;NMXReducedCounts(panel) -->
<g id="edge15" class="edge">
<title>McStasWeight2CountScaleFactor(panel)&#45;&gt;NMXReducedCounts(panel)</title>
<path fill="none" stroke="black" d="M629.31,-275.96C596.21,-266.1 553.21,-253.3 518.38,-242.93"/>
<polygon fill="black" stroke="black" points="519.37,-239.57 508.79,-240.07 517.38,-246.28 519.37,-239.57"/>
</g>
<!-- NMXReducedDataGroup(panel) -->
<g id="node15" class="node">
<title>NMXReducedDataGroup(panel)</title>
<polygon fill="none" stroke="black" points="431.5,-102 193.17,-102 189.5,-98.33 189.5,-69 427.83,-69 431.5,-72.67 431.5,-102"/>
<polyline fill="none" stroke="black" points="427.83,-98.33 189.5,-98.33 "/>
<polyline fill="none" stroke="black" points="427.83,-98.33 427.83,-69 "/>
<polyline fill="none" stroke="black" points="427.83,-98.33 431.5,-102 "/>
<text text-anchor="start" x="197.5" y="-87.8" font-family="Times,serif" font-size="14.00">NMXReducedDataGroup(panel)</text>
<text text-anchor="start" x="226.5" y="-76.2" font-family="Times,serif" font-size="11.00">via:</text>
<text text-anchor="start" x="247.5" y="-76.2" font-family="Times,serif" font-style="italic" font-size="11.00">format_nmx_reduced_data</text>
</g>
<!-- NMXDetectorMetadata(panel)&#45;&gt;NMXReducedDataGroup(panel) -->
<g id="edge20" class="edge">
<title>NMXDetectorMetadata(panel)&#45;&gt;NMXReducedDataGroup(panel)</title>
<path fill="none" stroke="black" d="M294.08,-413.59C294.95,-388.2 296.5,-336.96 296.5,-293.5 296.5,-293.5 296.5,-293.5 296.5,-222.5 296.5,-183.94 302.14,-139.56 306.26,-112.27"/>
<polygon fill="black" stroke="black" points="309.72,-112.78 307.8,-102.36 302.8,-111.7 309.72,-112.78"/>
</g>
<!-- NMXExperimentMetadata&#45;&gt;NMXReducedDataGroup(panel) -->
<g id="edge19" class="edge">
<title>NMXExperimentMetadata&#45;&gt;NMXReducedDataGroup(panel)</title>
<path fill="none" stroke="black" d="M174.65,-344.98C198.51,-299.59 268.3,-166.79 297.46,-111.31"/>
<polygon fill="black" stroke="black" points="300.7,-112.67 302.26,-102.19 294.51,-109.41 300.7,-112.67"/>
</g>
<!-- NMXReducedProbability(panel)&#45;&gt;NMXReducedCounts(panel) -->
<g id="edge14" class="edge">
<title>NMXReducedProbability(panel)&#45;&gt;NMXReducedCounts(panel)</title>
<path fill="none" stroke="black" d="M481.29,-344.9C476.52,-321.76 467.53,-278.08 461.79,-250.18"/>
<polygon fill="black" stroke="black" points="465.21,-249.43 459.76,-240.34 458.35,-250.84 465.21,-249.43"/>
</g>
<!-- NMXReducedCounts(panel)&#45;&gt;NMXReducedDataGroup(panel) -->
<g id="edge17" class="edge">
<title>NMXReducedCounts(panel)&#45;&gt;NMXReducedDataGroup(panel)</title>
<path fill="none" stroke="black" d="M395.54,-206.95C375.08,-199.1 353.64,-187.59 338.5,-171 323.7,-154.78 316.7,-130.53 313.41,-112.16"/>
<polygon fill="black" stroke="black" points="316.84,-111.48 311.86,-102.13 309.92,-112.55 316.84,-111.48"/>
</g>
<!-- ProtonCharge(panel) -->
<g id="node17" class="node">
<title>ProtonCharge(panel)</title>
<polygon fill="none" stroke="black" points="569,-171 345.67,-171 342,-167.33 342,-138 565.33,-138 569,-141.67 569,-171"/>
<polyline fill="none" stroke="black" points="565.33,-167.33 342,-167.33 "/>
<polyline fill="none" stroke="black" points="565.33,-167.33 565.33,-138 "/>
<polyline fill="none" stroke="black" points="565.33,-167.33 569,-171 "/>
<text text-anchor="start" x="380.5" y="-156.8" font-family="Times,serif" font-size="14.00">ProtonCharge(panel)</text>
<text text-anchor="start" x="350" y="-145.2" font-family="Times,serif" font-size="11.00">via:</text>
<text text-anchor="start" x="371" y="-145.2" font-family="Times,serif" font-style="italic" font-size="11.00">proton_charge_from_event_counts</text>
</g>
<!-- NMXReducedCounts(panel)&#45;&gt;ProtonCharge(panel) -->
<g id="edge26" class="edge">
<title>NMXReducedCounts(panel)&#45;&gt;ProtonCharge(panel)</title>
<path fill="none" stroke="black" d="M456.27,-206.96C456.15,-199.38 456.02,-190.05 455.89,-181.42"/>
<polygon fill="black" stroke="black" points="459.39,-181.37 455.74,-171.42 452.39,-181.47 459.39,-181.37"/>
</g>
<!-- NMXReducedDataGroup -->
<g id="node16" class="node">
<title>NMXReducedDataGroup</title>
<polygon fill="none" stroke="black" points="406.5,-33 214.5,-33 214.5,0 406.5,0 406.5,-33"/>
<text text-anchor="start" x="222.5" y="-18.8" font-family="Times,serif" font-size="14.00">NMXReducedDataGroup</text>
<text text-anchor="start" x="260.5" y="-7.2" font-family="Times,serif" font-size="11.00">via:</text>
<text text-anchor="start" x="281.5" y="-7.2" font-family="Times,serif" font-style="italic" font-size="11.00">merge_panels</text>
</g>
<!-- NMXReducedDataGroup(panel)&#45;&gt;NMXReducedDataGroup -->
<g id="edge16" class="edge">
<title>NMXReducedDataGroup(panel)&#45;&gt;NMXReducedDataGroup</title>
<path fill="none" stroke="black" d="M310.5,-68.96C310.5,-61.38 310.5,-52.05 310.5,-43.42"/>
<polygon fill="black" stroke="black" points="314,-43.42 310.5,-33.42 307,-43.42 314,-43.42"/>
</g>
<!-- ProtonCharge(panel)&#45;&gt;NMXReducedDataGroup(panel) -->
<g id="edge18" class="edge">
<title>ProtonCharge(panel)&#45;&gt;NMXReducedDataGroup(panel)</title>
<path fill="none" stroke="black" d="M421.87,-137.96C401.45,-128.52 375.18,-116.39 353.28,-106.27"/>
<polygon fill="black" stroke="black" points="354.74,-103.09 344.2,-102.07 351.81,-109.44 354.74,-103.09"/>
</g>
<!-- PixelIds(panel)&#45;&gt;NMXReducedProbability(panel) -->
<g id="edge22" class="edge">
<title>PixelIds(panel)&#45;&gt;NMXReducedProbability(panel)</title>
<path fill="none" stroke="black" d="M485.27,-413.96C485.15,-406.38 485.02,-397.05 484.89,-388.42"/>
<polygon fill="black" stroke="black" points="488.39,-388.37 484.74,-378.42 481.39,-388.47 488.39,-388.37"/>
</g>
<!-- TimeBinSteps -->
<g id="node19" class="node">
<title>TimeBinSteps</title>
<polygon fill="none" stroke="black" points="677.5,-442 561.5,-442 561.5,-419 677.5,-419 677.5,-442"/>
<text text-anchor="middle" x="619.5" y="-426.8" font-family="Times,serif" font-size="14.00">TimeBinSteps</text>
</g>
<!-- TimeBinSteps&#45;&gt;NMXReducedProbability(panel) -->
<g id="edge23" class="edge">
<title>TimeBinSteps&#45;&gt;NMXReducedProbability(panel)</title>
<path fill="none" stroke="black" d="M598.11,-418.88C578.55,-409.18 549.1,-394.56 525.08,-382.64"/>
<polygon fill="black" stroke="black" points="526.35,-379.36 515.84,-378.05 523.24,-385.63 526.35,-379.36"/>
</g>
</g>
</svg>
